<svg xmlns="http://www.w3.org/2000/svg" width="334" height="612" fill="none"><path fill="#fff" d="M311.827 211.777c0 2.579-.069 5.149-.199 7.709-2.548 50.143-29.759 97.177-69.528 127.17-21.897 16.512-47.604 27.862-75.101 31.726-51.892 7.293-97.403-13.883-122.973-51.704-12.739-18.842-20.537-41.817-21.693-67.47a141 141 0 0 1-.155-6.723c0-.233.006-.466.006-.692.006-.854.012-1.708.031-2.558l.037-1.373c.025-.687.05-1.369.081-2.057.019-.448.037-.903.062-1.352q.074-1.42.174-2.835.048-.664.106-1.32c.062-.756.124-1.517.199-2.275q.066-.705.143-1.413.104-.993.217-1.988c.056-.454.106-.906.162-1.359q.194-1.525.416-3.046c.056-.397.124-.802.186-1.199q.159-1.039.336-2.081c.08-.475.162-.957.248-1.434.112-.649.237-1.294.355-1.938.087-.446.168-.896.26-1.342q.298-1.494.622-2.98c.093-.434.199-.863.298-1.297q.214-.97.448-1.933l.354-1.443c.162-.638.33-1.27.497-1.908q.166-.657.342-1.303.4-1.458.82-2.908c.137-.452.274-.898.41-1.35l.56-1.83c.155-.473.304-.952.46-1.426q.307-.955.633-1.903l.41-1.231c.336-.95.671-1.901 1.02-2.847.167-.444.335-.895.503-1.339q.336-.893.683-1.777c.174-.458.354-.922.54-1.375.262-.664.535-1.318.809-1.978q.288-.719.596-1.432.523-1.224 1.056-2.439.288-.643.585-1.287.402-.893.814-1.777c.205-.431.404-.854.602-1.284q.523-1.091 1.063-2.176.324-.659.659-1.31c.372-.749.758-1.493 1.143-2.237q.316-.599.634-1.188.486-.917.982-1.826c.21-.381.416-.761.633-1.137q.735-1.327 1.498-2.638.234-.409.478-.808c.33-.561.66-1.128.995-1.684-23.122-87.336-9.738-118.935 61.952-61.523.193-.115.386-.217.572-.331.826-.48 1.653-.954 2.492-1.423.335-.192.677-.378 1.013-.563.764-.421 1.534-.843 2.305-1.253.398-.213.795-.419 1.193-.626.721-.377 1.442-.748 2.175-1.115q.662-.336 1.323-.663c.69-.335 1.386-.671 2.076-1a71 71 0 0 1 1.442-.674c.664-.313 1.336-.614 2.007-.916q.764-.34 1.528-.672c.653-.287 1.305-.56 1.958-.834q.792-.335 1.603-.665a179.422 179.422 0 0 1 3.579-1.407c.634-.245 1.268-.472 1.902-.706.571-.206 1.137-.417 1.708-.616.628-.22 1.268-.436 1.902-.65.578-.195 1.149-.394 1.733-.583q.95-.304 1.908-.6.876-.276 1.752-.542c.641-.19 1.287-.369 1.933-.554.584-.17 1.168-.333 1.759-.498.652-.173 1.317-.342 1.976-.516q.864-.226 1.739-.445c.678-.165 1.361-.317 2.045-.476.565-.13 1.131-.266 1.696-.395.721-.158 1.448-.298 2.175-.45.528-.106 1.063-.225 1.597-.325.814-.158 1.634-.299 2.455-.445.447-.076.888-.163 1.336-.238 1.273-.21 2.547-.409 3.821-.588q1.913-.267 3.815-.486c.392-.042.777-.077 1.169-.12.87-.09 1.746-.183 2.616-.26.478-.043.944-.07 1.416-.112.783-.06 1.573-.127 2.349-.173.504-.034 1.001-.053 1.504-.074.746-.042 1.491-.084 2.237-.107.516-.022 1.025-.025 1.541-.04.721-.02 1.448-.041 2.169-.042.516-.01 1.031 0 1.547-.004.715.006 1.429.006 2.138.013q.772.016 1.534.042c.709.02 1.417.039 2.126.071.503.024 1 .054 1.503.078.709.044 1.423.082 2.132.133.491.031.975.076 1.46.115q1.072.084 2.144.188c.472.046.938.1 1.41.147.721.08 1.448.16 2.169.254.447.056.895.118 1.342.175q1.111.153 2.212.316c.423.067.839.133 1.262.206q1.139.18 2.268.39.585.104 1.162.22 1.176.219 2.343.467.524.106 1.056.222 1.212.273 2.423.563c.311.07.616.146.926.221q1.276.32 2.542.66.38.106.77.212c.895.244 1.79.507 2.678.771.119.04.243.073.361.107 71.373-77.148 84.82-49.577 61.928 43.667a126 126 0 0 1 2.523 3.574c.173.258.348.516.515.768q.512.766 1.013 1.533.27.422.541.853a121 121 0 0 1 1.721 2.789c.174.289.348.572.516.862.286.475.559.957.832 1.44.212.371.417.738.628 1.11q.393.707.777 1.415l.652 1.245c.354.666.696 1.34 1.038 2.019.273.546.553 1.096.82 1.655.211.441.423.888.628 1.336.217.459.429.925.64 1.385q.306.672.603 1.346c.23.519.447 1.041.671 1.568.223.527.447 1.054.658 1.583q.437 1.057.845 2.128c.168.422.324.851.485 1.274q.297.798.584 1.606.235.643.46 1.297c.218.616.423 1.233.628 1.851.143.451.292.894.435 1.344q.383 1.2.739 2.413c.124.409.242.832.36 1.248q.254.88.498 1.769c.111.43.23.852.341 1.282a99 99 0 0 1 .522 2.085l.299 1.245c.192.845.385 1.696.565 2.556l.261 1.262c.124.629.249 1.258.367 1.887.08.435.161.863.236 1.298.137.752.261 1.513.385 2.273.062.412.131.823.193 1.228q.195 1.308.373 2.627c.055.425.105.858.155 1.284.081.66.161 1.326.23 1.988q.073.658.137 1.317.122 1.218.217 2.448.054.623.099 1.254.095 1.314.168 2.649c.025.436.044.879.062 1.316q.045 1.03.081 2.072l.037 1.331c.019.876.025 1.754.031 2.637 0 .208.007.414.007.627"/><path fill="#E6E6E6" d="M77.492 185.541c16.013-44.632 151.218-87.147 183.811-18.677z"/><path fill="#FFEBF6" d="M311.628 219.486c-2.548 50.144-29.759 97.177-69.528 127.17-21.897 16.512-47.604 27.862-75.101 31.727-51.892 7.293-97.403-13.884-122.973-51.705-12.739-18.842-20.537-41.816-21.693-67.469 1.293-6.607 11.378-48.442 66.14-86.089l156.784-22.034c59.66 24.245 66.302 68.353 66.302 68.353z"/><path fill="#fff" d="M284.504 222.688c0 62.687-50.327 120.581-112.404 129.305-30.591 4.3-58.323-4.146-78.593-21.308 19.748 14.6 45.566 21.501 73.815 17.531 62.077-8.724 112.403-66.618 112.403-129.305 0-8.98-1.031-17.563-2.982-25.666-5.139-19.145-13.764-33.582-25.036-43.4 13.614 9.721 23.967 25.403 29.814 47.177 1.951 8.103 2.983 16.687 2.983 25.666" opacity=".55"/><path fill="#F4BDE3" d="M309.191 208.45c0 80.772-64.842 155.364-144.827 166.605-56.534 7.945-105.5-17.884-129.355-62.234 25.166 39.673 71.69 62.137 124.924 54.655 79.986-11.241 144.828-85.833 144.828-166.605 0-23.663-5.568-45.225-15.448-63.616 12.633 19.93 19.878 44.2 19.878 71.195"/><path fill="#fff" d="M300.979 159.01c-23.178-46.315-73.138-73.592-131.027-65.456-79.985 11.241-144.827 85.833-144.827 166.605 0 20.732 4.269 39.854 11.974 56.636-8.861-17.686-13.82-38.154-13.82-60.487 0-80.772 64.842-155.364 144.828-166.605 59.479-8.36 110.583 20.665 132.872 69.307" opacity=".55"/><path fill="#FFEBF6" d="M59.094 149.752q-21.358-81.22 30.959-30.727c-11.19 8.507-21.42 18.894-30.96 30.727M274.343 119.499q21.357-87.223-30.959-22.025c11.19 5.362 21.419 12.874 30.959 22.025"/><path fill="#001F54" d="M166.996 380.578c-39.265 5.519-76.179-4.735-103.942-28.871C35.29 327.571 20 292.442 20 252.79c0-29.047 8.293-58.305 23.994-84.686-6.29-23.921-9.705-43.33-10.15-57.698-.502-16.16 2.605-26.498 9.5-31.605 11.734-8.695 33.127-.449 65.384 25.195 18.415-10.633 38.01-17.466 58.268-20.313 20.259-2.848 39.582-1.54 57.888 3.823 32.157-34.573 53.493-48.768 65.207-43.384 6.869 3.156 9.979 12.56 9.508 28.745-.419 14.39-3.785 34.61-10.002 60.104 15.967 22.064 24.403 49.186 24.403 78.5 0 39.652-15.291 79.079-43.056 111.019s-64.681 52.57-103.946 58.088zM51.222 80.06c-2.383.334-4.227 1.147-5.657 2.206-7.49 5.55-13.07 24.811 2.882 85.063.154.582.047 1.238-.296 1.806-15.57 25.823-23.801 54.539-23.801 83.045 0 79.431 63.99 135.061 142.646 124.007s142.653-84.671 142.653-164.103c0-28.768-8.37-55.359-24.206-76.897-.346-.472-.457-1.1-.302-1.729 15.771-64.245 10.189-81.817 2.727-85.246-6.752-3.103-22.822 1.882-61.067 43.221-.635.687-1.562.976-2.358.735-18.131-5.523-37.459-6.898-57.447-4.09-19.987 2.81-39.584 9.712-57.819 20.456-.798.47-1.729.442-2.366-.068-30.266-24.237-46.684-29.657-55.589-28.405z"/><path fill="#001F54" d="M59.095 151.949a2 2 0 0 1-.53.008 1.81 1.81 0 0 1-1.577-1.364c-10.447-39.73-5.58-48.494-1.01-51.629 6.646-4.562 17.983 1.273 35.681 18.355.438.423.64 1.05.548 1.711a2.63 2.63 0 0 1-1.015 1.708c-10.582 8.046-20.558 17.949-30.494 30.275a2.55 2.55 0 0 1-1.602.936zm.571-50c-.735.103-1.259.34-1.621.589-2.223 1.525-6.306 8.735 2.19 42.614 8.615-10.3 17.314-18.887 26.446-26.106-16.297-15.39-23.75-17.556-27.015-17.097M274.343 121.699c-.602.084-1.185-.086-1.602-.486-9.937-9.533-19.912-16.632-30.494-21.704-.553-.265-.926-.786-1.016-1.422s.111-1.32.548-1.865c17.699-22.057 29.039-31.079 35.682-28.384 4.57 1.851 9.436 9.247-1.011 51.913a2.64 2.64 0 0 1-1.577 1.806 2.3 2.3 0 0 1-.529.141zM246.757 96.55c9.132 4.651 17.831 10.793 26.445 18.672 8.497-36.267 4.412-42.33 2.191-43.23-1.974-.799-8.664.082-28.636 24.558"/><path fill="#FEF26B" d="M147.822 75.421s12.757-51.666 20.352-52.733 17.856 46.696 17.856 46.696-11.431 15.929-38.208 6.037"/><path fill="#fff" d="M168.102 27.834c-3.772 5.077-7.934 18.222-12.091 31.276 4.279-3.563 8.493-8.88 12.091-31.276" opacity=".55"/><path fill="#001F54" d="M169.635 29.582s1.014 25.542-11.156 39.66l17.504.894 2.464.319 3.091-1.815s-5.494-27.076-11.903-39.058" opacity=".2" style="mix-blend-mode:color-burn"/><path fill="#001F54" d="M169.161 80.56c-5.9.83-13.295.294-22.317-3.039-.913-.337-1.381-1.316-1.125-2.352.032-.13 3.256-13.144 7.371-26.12 7.732-24.381 11.965-28.116 15.086-28.555 3.121-.438 7.273 2.09 13.866 24.242 3.496 11.746 6.093 23.78 6.118 23.899.134.626-.025 1.321-.435 1.892-.347.483-6.137 8.288-18.565 10.035zm-18.778-6.675c20.445 6.926 30.651-1.973 33.281-4.838-.696-3.117-2.839-12.436-5.572-21.732-5.998-20.394-9.418-22.245-9.921-22.41-.62.334-4.101 3.15-11.209 25.76-3.059 9.736-5.585 19.342-6.578 23.22z"/><path fill="#001F54" d="M178.816 35.197c-.4 5.457-5.067 9.594-10.067 11.019-.463.188-1.172.305-1.651.421-.957.262-2.291.414-3.261.514-1.538.174-3.255.185-4.769.142l-3.104-.188c-.363-.023-.307-.597.075-.632 1.139-.13 3.587-.27 4.681-.51 4.822-.78 11.382-2.547 13.394-7.868.251-.688.417-1.526.355-2.178.015-2.901 4.189-3.6 4.348-.72zM183.469 51.952c-1.51 2.585-3.721 4.703-6.125 6.418-6.774 4.79-14.824 5.643-22.119 4.99l-4.033-.555.154-.629 4.069.077c8.559-.19 19.091-2.852 24.059-11.498.054-.112.141-.277.141-.299l3.852 1.498z"/><path fill="#FF69CD" d="M93.119 170.159c7.144-4.487 11.108-11.692 8.852-16.094-2.255-4.401-9.876-4.331-17.02.156-7.145 4.488-11.109 11.693-8.853 16.094 2.255 4.402 9.876 4.332 17.02-.156M261.355 144.23c2.256-5.035-1.708-11.127-8.852-13.606s-14.766-.407-17.021 4.629 1.707 11.126 8.852 13.605 14.765.407 17.021-4.628"/><path fill="#001F54" d="M128.803 142.84c6.178-.868 11.185-7.527 11.185-14.874 0-7.346-5.007-12.598-11.185-11.729-6.177.868-11.185 7.527-11.185 14.873s5.008 12.598 11.185 11.73"/><path fill="#fff" d="M130.375 128.992c1.864-.262 3.374-2.428 3.374-4.838s-1.51-4.151-3.374-3.889c-1.863.262-3.374 2.428-3.374 4.838s1.511 4.151 3.374 3.889"/><path fill="#001F54" d="M208.671 131.615c6.178-.868 11.185-7.527 11.185-14.873 0-7.347-5.007-12.598-11.185-11.73-6.177.868-11.185 7.527-11.185 14.874 0 7.346 5.008 12.598 11.185 11.729"/><path fill="#fff" d="M207.098 118.209c1.863-.262 3.374-2.428 3.374-4.838s-1.511-4.151-3.374-3.889-3.374 2.427-3.374 4.837 1.51 4.152 3.374 3.89"/><path fill="#39D5FF" d="M175.987 74.048s6.594-7.211 16.947-8.666 17.891 1.932 24.157 12.228c6.266 10.298 9.059 14.467 17.07 13.341-4.991 9.926-37.074 16.268-43.262 4.96"/><path fill="#001F54" d="M181.592 75.6s5.27-5.128 10.723.594c5.453 5.72 9.104 22.337 34.526 17.691 0 0-15.947 9.243-31.429.496-15.484-8.744-13.82-18.78-13.82-18.78z" opacity=".2" style="mix-blend-mode:color-burn"/><path fill="#001F54" d="M212.507 103.658q-.338.049-.675.091c-11.283 1.438-19.832-1.016-22.867-6.564-.548-1.002-.126-2.385.942-3.089s2.38-.462 2.928.54c2.252 4.117 9.554 5.923 19.053 4.713 7.008-.892 13.719-3.338 17.539-6.152-6.126-.924-9.272-6.093-14.229-14.239-5.702-9.369-12.361-12.773-22.265-11.381-9.304 1.308-15.399 7.798-15.458 7.864-.877.948-2.252 1.098-3.073.33-.82-.767-.78-2.157.091-3.11.295-.322 7.351-7.918 18.44-9.477 11.09-1.558 19.561 2.413 26.05 13.077 6.229 10.237 8.517 13.43 15.177 12.493.768-.108 1.479.201 1.871.813s.406 1.436.037 2.168c-3.236 6.435-14.043 10.584-23.563 11.922z"/><path fill="#FD6CCB" d="M141.569 83.417c3.803-7.067 10.125-12.022 16.915-14.178 10.351-3.29 20.431 1.329 24.431 10.58 1.881 4.349 5.469 10.233 11.868 13.435-4.068 10.84-26.595 17.066-35.507 10.467"/><path fill="#E825AD" d="M146.312 83.353s4.9-4.547 8.567.445 6.424 20.751 35.126 10.667c0 0-9.7 12.348-28.421 6.811z"/><path fill="#001F54" d="M173.761 108.303c-5.874.826-11.885.257-15.914-2.726-.906-.669-.999-2.044-.208-3.069.79-1.026 2.164-1.312 3.068-.642 4.199 3.109 12.704 3.14 20.686.076 4.899-1.881 8.697-4.639 10.556-7.593-5.835-3.556-9.206-9.16-11.043-13.41-3.655-8.453-12.925-12.484-22.045-9.589-6.487 2.062-12.107 6.77-15.415 12.918-.609 1.131-1.943 1.668-2.978 1.2-1.035-.47-1.38-1.767-.773-2.899 3.957-7.35 10.668-12.979 18.415-15.439 11.111-3.53 22.392 1.336 26.818 11.572 1.766 4.087 5.111 9.578 11.022 12.536.883.442 1.243 1.513.854 2.55-1.883 5.017-7.128 9.492-14.392 12.281a40 40 0 0 1-8.65 2.235z"/><path fill="#FEF26B" d="M118.043 101.338c17.888 28.194 41.233 7.738 43.543-.989-5.682-.322-8.05-5.912-13.651-13.014-5.601-7.1-14.87-12.85-27.655-4.985-12.784 7.865-11.985 24.3-11.985 24.3 3.534-1.998 6.823-3.8 9.747-5.312z"/><path fill="#001F54" d="M141.984 117.729c-7.144 1.004-16.397-1.112-24.862-13.563a328 328 0 0 0-7.983 4.388c-.653.37-1.401.412-2.002.115s-.98-.897-1.013-1.609c-.035-.731-.71-17.993 13.233-26.57 11.357-6.985 22.134-5.098 30.346 5.315 1.325 1.681 2.486 3.295 3.51 4.72 3.206 4.463 5.324 7.41 8.79 7.607a1.83 1.83 0 0 1 1.433.8c.318.475.408 1.094.245 1.707-1.359 5.134-8.611 13.713-18.695 16.467-.949.259-1.953.474-3 .621zm-23.942-18.59c.752-.105 1.475.189 1.875.82 6.922 10.909 15.387 15.361 24.502 12.873 6.46-1.764 11.988-6.892 14.19-10.745-3.703-1.22-6.114-4.575-9.03-8.633-1.05-1.463-2.136-2.974-3.413-4.592-4.848-6.147-13.111-11.944-24.961-4.655-8.067 4.962-10.094 13.943-10.59 18.763a258 258 0 0 1 6.668-3.585 2.4 2.4 0 0 1 .758-.245z"/><path fill="#001F54" d="M120.404 97.604s7.796 13.124 17.625 14.326 19.165-9.041 19.165-9.041c-11.863 6.865-22.943 1.89-33.678-8.336 0 0-7.426-4.309-11.863 6.739 0 0 5.177-4.68 8.751-3.688" opacity=".2" style="mix-blend-mode:color-burn"/><path fill="#fff" d="M115.839 90.716s6.302-8.758 14.537-9.045c8.234-.286 12.055 5.649 14.519 7.793 2.465 2.142 5.747 7.826 7.519 9.367 0 0-11.358-13.121-17.48-14.377-6.122-1.255-14.165 1.928-19.095 6.262M147.827 79.148s6.009-6.628 15.284-7.931c9.275-1.304 15.345 7.832 15.345 7.832-9.352-6.85-19.484-7.448-30.629.099M183.75 71.34s8.813-4.413 16.146-2.954c7.334 1.458 11.063 5.913 12.602 8.529 1.54 2.616 4.468 6.933 4.468 6.933s-8.289-10.782-18.087-12.658-15.13.15-15.13.15z" opacity=".55"/><path fill="#F4BDE3" d="M59.452 136.542c-2.856-18.074-7.806-39.02 8.196-31.243-7.88 2.832-8.056 17.012-8.196 31.243M249.26 94.744s18.118-20.983 23.803-21.782c5.684-.799 3.974 12.417 3.974 12.417-2.15-8.985-14.018-1.42-27.777 9.364"/><path fill="#C4612B" d="M33.605 528.73c11.208 2.31 16.045 8.58 17.465 13.131 1.124 3.603 1.37 7.427-1.367 11.614-2.884 4.414-10.276 9.61-19.962 10.014-3.95.165-9.013.032-14.078 3.408-1.078-.853-1.091-2.498-.53-4.462-3.227-.356-7.019-.366-12.739.837-.058.012-3.06-15.648 16.191-30.927-1.884-2.957-.95-5.638 1.571-7.259 4.006 4.76 5.93 2.092 13.446 3.642z"/><path fill="#C4612B" d="M49.7 553.475c-2.88 4.412-10.273 9.611-19.956 10.012-3.94.168-8.982.031-14.032 3.375a.4.4 0 0 0-.053.033 2.1 2.1 0 0 1-.416-.44c-.308-.443-.454-1.002-.475-1.645-.017-.703.122-1.507.368-2.372-3.23-.354-7.02-.369-12.737.836-.01-.014-.081-.344-.136-.939-.012-.098-.017-.206-.024-.326a21 21 0 0 1-.043-1.454c.002-.114 0-.234.005-.358.012-.261.019-.534.036-.83q.009-.197.031-.401c.07-.919.204-1.959.428-3.109 1.18-5.984 4.934-14.805 15.893-23.511-1.882-2.956-.95-5.634 1.571-7.26 4.007 4.763 5.928 2.097 13.45 3.644 9.277 1.918 14.188 6.538 16.403 10.655l.01.008c.463.855.808 1.688 1.049 2.472 1.119 3.602 1.37 7.425-1.37 11.612z"/><path fill="#5F5F82" d="M49.7 553.477c-2.88 4.412-10.272 9.611-19.956 10.012-3.939.168-8.982.03-14.031 3.375a.3.3 0 0 0-.054.033 2.1 2.1 0 0 1-.416-.44c-.307-.444-.453-1.002-.474-1.645-.017-.703.122-1.507.368-2.372-3.23-.354-7.021-.369-12.738.835-.01-.013-.08-.343-.136-.938-.012-.098-.017-.206-.024-.327a21 21 0 0 1-.043-1.454c.002-.113 0-.233.005-.357.012-.261.02-.535.037-.83q.009-.198.03-.401c.07-.919.205-1.959.428-3.109 1.181-5.985 4.935-14.805 15.894-23.511a5 5 0 0 1-.157-.256c-.65-1.103-.9-2.164-.826-3.144l.018-.206c.172-1.38.997-2.576 2.285-3.485q.121-.086.25-.171c4.007 4.763 5.929 2.097 13.45 3.644 9.278 1.918 14.188 6.538 16.404 10.655l.01.008c.462.855.808 1.688 1.048 2.472.27.861.488 1.738.626 2.63.442 2.822.084 5.8-1.995 8.982z"/><path fill="#F9F9F9" d="M18.429 532.091q.019.162.059.335l.1-.081q-.082-.127-.159-.256zM51.703 544.492c-1.255-1.23-2.38-2.145-3.532-3.613-2.774-3.547-8.004-7.485-13.52-8.623-6.983-1.443-9.324 1.033-14.387-2.473-1.494.956-2.011 1.007-1.827 2.307-.65-1.104-.901-2.164-.827-3.144l.019-.206c.172-1.38.997-2.577 2.284-3.486q.12-.078.251-.163v-.005c4.008 4.762 5.928 2.097 13.45 3.643 9.277 1.919 14.188 6.539 16.403 10.655l.01.009c.463.854.808 1.687 1.049 2.471.27.861.488 1.738.625 2.63z" opacity=".4"/><path fill="#F9F9F9" d="M2.695 555.849c-.888 4.488-.335 7.375-.302 7.42.345-.074.682-.138 1.014-.203.03-1.174.161-2.645.493-4.345 1.184-5.988 4.93-14.805 15.897-23.507-.677-1.064-1.133-1.982-1.312-2.795-10.884 8.678-14.612 17.466-15.79 23.428z" opacity=".4"/><path fill="#001F54" d="M49.7 553.486c-2.88 4.412-10.273 9.611-19.956 10.012-3.94.168-8.982.031-14.032 3.375a.4.4 0 0 0-.053.033 2.1 2.1 0 0 1-.416-.44c-.308-.443-.46-1.004-.475-1.645-.017-.703.122-1.507.368-2.372-3.23-.354-7.02-.369-12.737.836-.01-.014-.081-.344-.136-.939-.012-.098-.017-.206-.024-.326q-.044-.602-.043-1.455c.002-.113 0-.233.005-.357.012-.261.019-.535.036-.83q.009-.198.031-.401c.07-.919.204-1.959.428-3.109.595 2.772 2.15 3.651 4.795 2.711 5.287-1.879 9.343-4.885 14.892-5.105-1.174 3.915 6.689 3.908 8.7 2.853 7.88-4.135 7.617-11.761 9.121-17.406s9.814.48 9.82.481c.462.855.807 1.688 1.048 2.472 1.119 3.603 1.37 7.425-1.37 11.612z" opacity=".2"/><path fill="#001F54" d="M15.665 569.168c.436 0 .876-.127 1.258-.381 4.087-2.724 8.207-2.865 11.842-2.991l1.07-.037c10.336-.432 18.38-5.856 21.767-11.04 3.553-5.435 2.633-10.325 1.633-13.53-.839-2.69-4.7-11.696-19.173-14.678-2.934-.605-5.054-.615-6.76-.624-2.706-.014-3.523-.017-5.408-2.257a2.266 2.266 0 0 0-2.962-.447c-3.162 2.034-4.309 5.301-3.166 8.541C-3.474 547.88.268 564.083.336 564.227a2.27 2.27 0 0 0 2.505 1.272c4.28-.901 7.307-1.074 9.667-.987-.045 2.194.85 3.453 1.747 4.165.411.325.91.49 1.41.49zm4.446-40.894c2.496 2.126 4.694 2.137 7.17 2.149 1.58.008 3.375.017 5.867.531 12.04 2.482 15.104 9.494 15.756 11.586 1.186 3.802.857 6.701-1.1 9.695-2.663 4.076-9.48 8.627-18.157 8.988l-1.038.038c-3.125.106-7.192.245-11.396 2.179q.044-.178.102-.378a2.268 2.268 0 0 0-1.932-2.879c-2.46-.272-5.856-.445-10.935.397.007-4.51 1.65-15.422 15.55-26.453a2.27 2.27 0 0 0 .503-2.996c-.692-1.088-.825-2.033-.388-2.855z"/><path fill="#001F54" d="M17.045 534.02c2.676 1.355 5.377 2.785 8.333 3.357-2.154-1.856-3.716-4.336-5.254-6.691zM17.186 563.403c.636-2.573 1.607-5.248 3.03-7.525.5-.768 1.064-1.507 1.786-2.136-2.796.99-5.02 3.205-6.994 5.359-.67.759-1.292 1.488-1.93 2.373z"/><path fill="#F9F9F9" d="M109.569 502.034c-.849 12.915-7.923 54.785-38.617 53.386-11.72-.535-14.784-6.301-27.537-8.846-3.474-.727-3.876-5.488-.581-6.808 5.935-2.886 11.856-1.161 18.28.316 25.173 5.787 31.07-27.019 32.526-55.218"/><path fill="#EFEFEF" d="M43.418 546.583c12.753 2.549 15.814 8.31 27.533 8.846 30.693 1.403 37.774-40.473 38.618-53.384l-7.301-1.05c-2.028 16.176-5.564 48.53-33.203 47.27-11.718-.536-12.308-4.358-26.326-5.293-.717-.152-1.358-.619-1.885-1.289-.8 1.9.129 4.396 2.564 4.901z"/><path fill="#001F54" d="M72.426 558.182c13.421 0 24.284-7.888 31.487-22.904 6.846-14.271 8.181-30.044 8.379-33.06l-5.433-.358c-.141 2.136-3.831 52.314-35.777 50.846-5.817-.265-9.3-1.944-13.333-3.886-3.58-1.726-7.64-3.68-13.796-4.909-.387-.081-.614-.332-.65-.741-.026-.287.05-.672.547-.871q.09-.036.177-.079c4.632-2.25 9.466-1.119 15.065.192l1.414.33c7.241 1.662 13.55.516 18.753-3.41 10.012-7.557 15.605-25.326 17.102-54.323l-5.438-.28c-1.389 26.911-6.418 43.82-14.945 50.257-3.912 2.954-8.575 3.753-14.252 2.449l-1.394-.325c-6.029-1.411-12.265-2.87-18.607.175a6.27 6.27 0 0 0-3.848 6.36 6.25 6.25 0 0 0 4.983 5.599c5.505 1.099 9.073 2.819 12.522 4.481 4.382 2.111 8.519 4.104 15.449 4.421q.801.036 1.593.036z"/><path fill="#001F54" d="M167.763 611.981c-90.22 0-163.357-6.298-163.357-14.066s73.137-14.066 163.357-14.066 163.357 6.297 163.357 14.066c0 7.768-73.137 14.066-163.357 14.066" opacity=".1"/><path fill="#F9F9F9" d="m212.749 371.549 26.472 111.31 8.921 37.527c9.982 7.26 28.815 9.003 38.117-.907 22.634-2.886 22.017-29.031 7.414-60.842-8.214-17.906-20.855-37.6-36.265-55.949-8.804-10.491-18.523-20.546-28.843-29.568l-7.722-.771-8.095-.8z"/><path fill="#5F5F82" d="m239.227 482.857 2.114 8.903 6.806 28.624c9.983 7.26 28.815 9.003 38.117-.907 8.458-1.08 13.667-5.409 16.118-12.061 4.103-11.153.446-28.851-8.703-48.78-6.444-1.297-13.151-1.253-19.512.246a41 41 0 0 0-7.741 2.642c-4.066 1.851-7.832 4.31-11.435 6.942-.245.182-.49.354-.725.536-5.481 4.067-10.655 8.657-15.037 13.858z"/><path fill="#E5E5E5" d="M220.851 372.344a217 217 0 0 0 7.116 16.183c.498 1.015 1.026 2.05 1.879 2.794.788.681 1.787 1.054 2.758 1.416 8.35 3.041 17.007 5.818 24.812 9.947-8.803-10.491-18.523-20.546-28.842-29.568z"/><path fill="#001F54" d="m241.347 491.755 6.806 28.624c9.983 7.26 28.815 9.003 38.117-.907 8.458-1.079 13.668-5.409 16.119-12.061-5.218 3.24-12.025 3.766-17.671 1.37-5.708-2.432-10.082-7.786-11.316-13.867-.454-2.205-.509-4.52.072-6.698.753-2.83 2.532-5.3 3.412-8.095 1.189-3.73.708-7.777-.072-11.617a75.83 75.83 0 0 0-10.193-25.31c-.044 2.487-1.062 4.836-2.124 7.079-3.04 6.435-6.588 12.597-10.228 18.723-4.447 7.523-9.022 14.973-12.924 22.761z" opacity=".2"/><path fill="#001F54" d="M267.87 529.092c7.403 0 14.66-2.171 19.69-7.05 9.112-1.448 15.27-6.642 17.841-15.069 8.846-29.011-26.919-93.785-75.037-135.9a2.7 2.7 0 0 0-1.525-.66l-15.814-1.572a2.723 2.723 0 0 0-2.918 3.339l35.394 148.837a2.72 2.72 0 0 0 1.047 1.571c5.682 4.132 13.581 6.506 21.322 6.506zm-40.44-153.349c45.581 40.197 80.884 103.007 72.763 129.642-2.043 6.7-6.711 10.426-14.271 11.39a2.73 2.73 0 0 0-1.639.837c-7.843 8.353-24.231 7.425-33.724 1.13l-34.268-144.107 11.141 1.108z"/><path fill="#001F54" d="M291.167 475.564c-10.16-1.181-22.501 3.958-25.68 14.613-2.783 8.305 1.808 17.868 9.901 20.956 2.462.997 5.048 1.448 7.561 1.344a.744.744 0 0 0 .273-1.424c-4.315-1.979-7.908-4.619-9.922-8.034-5.864-10.137 1.946-19.351 11.523-23.33 2.066-.976 4.288-1.683 6.553-2.523.813-.279.65-1.544-.209-1.602"/><path fill="#F9F9F9" d="M186.479 590.757c.218.562.49 1.089.808 1.588a9.33 9.33 0 0 0 7.841 4.283h41.138c5.699-1.035 8.259-5.218 8.04-9.874-.127-3.005-1.425-6.217-3.776-8.903.019-.083.028-.155.045-.236a343 343 0 0 1 3.439-16.335 516 516 0 0 1 4.601-18.177c3.104-11.48 6.715-23.57 10.699-36.103l-21.635 7.623-53.491 18.841c-3.323 22.388-3.439 42.817 2.288 57.293z"/><path fill="#5F5F82" d="M230.226 536.967c.499 2.224 1.417 4.338 2.805 6.198.908 1.216 2.051 2.45 2.023 3.956-.019 1.243-.835 2.305-1.206 3.494-.626 2.015.118 4.275 1.48 5.882 1.369 1.616 3.275 2.667 5.218 3.503 1.134.49 2.296.916 3.475 1.28a516 516 0 0 1 4.601-18.177c3.104-11.48 6.715-23.57 10.699-36.103l-21.635 7.623c-2.061 2.196-3.849 4.592-5.237 7.269-2.388 4.573-3.34 10.118-2.224 15.073zM187.284 592.348a9.33 9.33 0 0 0 7.841 4.283h41.138c4.112-.745 6.58-3.132 7.559-6.145a9 9 0 0 0 .219-.763c.227-.944.318-1.942.263-2.968-.127-3.005-1.425-6.217-3.776-8.903.019-.083.027-.155.044-.236-2.604-2.105-5.68-3.613-8.966-4.283-2.441-.498-4.937-.562-7.432-.49-8.096.218-16.39 1.987-23.487 5.754-3.749 1.998-7.169 4.547-10.046 7.723-1.171 1.289-2.269 2.703-2.886 4.338a8.5 8.5 0 0 0-.473 1.688z"/><path fill="#001F54" d="M187.288 592.344a9.33 9.33 0 0 0 7.841 4.283h41.139c4.111-.744 6.579-3.132 7.559-6.144q.123-.368.218-.764c.227-.952.309-1.95.263-2.968-6.715 5.182-16.498 5.492-25.194 4.673-5.616-.526-11.733-1.643-15.363-5.962-1.652-1.97-2.568-4.338-3.058-6.87-3.749 1.997-7.169 4.546-10.046 7.723-1.171 1.289-2.269 2.703-2.886 4.338a8.5 8.5 0 0 0-.473 1.687z" opacity=".2"/><path fill="#001F54" d="M195.129 599.414h41.139q.25 0 .498-.044c4.763-.865 8.185-3.629 9.636-7.781 1.577-4.515.438-10.072-2.891-14.495 3.463-18.371 9.508-41.045 18.461-69.251a2.787 2.787 0 0 0-3.582-3.472l-75.118 26.462a2.79 2.79 0 0 0-1.831 2.218c-3.757 25.357-2.935 45.116 2.444 58.728 1.833 4.638 6.246 7.633 11.246 7.633zm40.872-5.572h-40.872a6.475 6.475 0 0 1-6.063-4.11c-4.9-12.4-5.693-30.631-2.355-54.204l68.272-24.05c-8.306 26.616-13.939 48.206-17.189 65.867a2.79 2.79 0 0 0 .643 2.34c2.7 3.087 3.761 7.036 2.702 10.066-.75 2.144-2.523 3.556-5.139 4.091z"/><path fill="#001F54" d="M244.098 578.053c-10.594-12.019-29.92-7.185-42.353-1.031-1.011.513-.352 2.062.727 1.662 6.456-2.511 13.351-4.271 20.259-4.227 6.246-.002 13.403 1.667 17.014 6.867 2.222 3.037 6.658-.272 4.353-3.271M225.339 597.423c2.888-4.443 3.805-11.5-.877-15.015-.721-.531-1.624.442-1.048 1.119 1.31 1.633 1.506 3.745.95 5.68-.538 1.903-1.711 3.623-3.135 4.914-2.878 2.907 1.881 6.741 4.11 3.302"/><path fill="#727272" d="M106.486 589.963c3.068 4.656 8.35 7.57 14.122 7.57h40.567c1.771 0 3.539-.41 5.038-1.353 5.01-3.159 5.971-10.309 3.358-17.633-3.984-3.702-8.629-6.552-13.894-7.824-6.842-1.651-14.049-.508-20.864 1.253-6.217 1.607-12.37 3.739-17.76 7.224-4.266 2.75-8.05 6.389-10.563 10.763z"/><path fill="#F9F9F9" d="M100.968 559.345c.155 6.815.636 13.078 1.607 18.551.517 2.985 1.189 5.735 2.023 8.214 2.305 6.852 8.776 11.435 16.009 11.435h40.567c1.771 0 3.539-.409 5.038-1.353 2.604-1.643 4.12-4.366 4.601-7.633.481-3.295-.072-7.133-1.616-10.981.208-.562.427-1.126.636-1.679 6.054-16.036 11.971-29.695 17.624-38.842a63 63 0 0 1 2.615-3.948c3.284.254 6.471.417 9.556.508 34.921 1.008 57.592-8.267 67.158-29.966a52 52 0 0 0 1.951-5.182c1.688-5.273 2.714-11.181 3.077-17.734.789-14.204-1.779-28.378-6.862-41.675-5.326-13.939-12.904-27.326-22.28-40.277a243 243 0 0 0-9.492-12.243l-11.798-16.335-32.871-3.693-56.067-6.289c-3.785 13.459-7.56 26.926-11.344 40.385l-2.75 17.343-8.013 50.45-7.387 46.556c-1.253 15.682-2.26 31.073-1.979 44.387z"/><path fill="#D3D3D3" fill-opacity=".4" d="M100.969 559.342c.154 6.815.636 13.078 1.607 18.551.163.926.335 1.833.526 2.713.19.889.398 1.76.625 2.596l.081.282c.108.434.235.862.363 1.278.135.463.282.908.426 1.343 2.305 6.852 8.776 11.435 16.008 11.435h40.568c1.77 0 3.539-.41 5.038-1.353 2.604-1.643 4.12-4.366 4.601-7.633-8.087 3.649-17.09 5.254-25.91 4.393-7.623-.753-15.818-3.876-19.113-10.79-.825-1.724-1.279-3.55-1.469-5.418-.399-3.721.208-7.633.952-11.344a180 180 0 0 1 4.91-18.932c1.198-3.784 2.596-7.633 5.246-10.599 5.818-6.499 15.828-6.879 24.458-5.6 9.375 1.389 18.468 4.12 27.57 6.789a64 64 0 0 1 2.614-3.948c3.285.255 6.472.418 9.557.509 34.921 1.007 57.592-8.267 67.158-29.966-18.83 14.221-42.635 22.034-65.886 18.804-28.279-3.92-54.217-26.009-58.837-54.18-4.175-25.547 9.874-52.482 32.199-65.587 20.411-11.989 46.412-12.733 68.41-3.902a243 243 0 0 0-9.493-12.243l-11.797-16.335-32.871-3.693-56.068-6.289c-3.784 13.459-7.559 26.926-11.343 40.385l-2.75 17.343-8.013 50.45-7.387 46.556c-1.253 15.682-2.261 31.073-1.979 44.387z"/><path fill="#5F5F82" d="M102.575 577.88c.517 2.986 1.19 5.736 2.023 8.214 2.305 6.853 8.776 11.435 16.009 11.435h40.567c1.771 0 3.539-.409 5.038-1.352 2.604-1.644 4.12-4.366 4.601-7.633.481-3.295-.072-7.133-1.616-10.982.208-.562.427-1.125.636-1.679a20.5 20.5 0 0 0-2.977-1.859c-4.039-2.07-8.629-2.859-13.169-2.931-1.569-.027-3.167.028-4.683-.39-1.007-.272-1.97-.744-3.013-.763-.772-.009-1.525.246-2.278.435-1.497.373-3.049.49-4.573.752-5.481.935-10.447 3.703-15.546 5.927-5.091 2.232-10.746 3.975-16.172 2.714-1.696-.391-3.303-1.063-4.847-1.888"/><path fill="#001F54" d="M102.575 577.889c.164.927.336 1.834.526 2.714.191.889.399 1.76.626 2.596.027.099.055.19.081.281.108.435.235.863.362 1.279.136.463.282.908.427 1.343 2.304 6.852 8.776 11.434 16.008 11.434h40.568c1.77 0 3.539-.409 5.037-1.352 2.604-1.643 4.12-4.366 4.602-7.633-8.087 3.649-17.09 5.254-25.911 4.393-7.622-.753-15.817-3.876-19.112-10.79-.825-1.724-1.279-3.55-1.47-5.418-.245.119-.481.218-.725.327-5.091 2.232-10.746 3.975-16.172 2.714-1.696-.391-3.303-1.063-4.847-1.888" opacity=".2"/><path fill="#FFD8BE" d="M181.36 507.044a36.6 36.6 0 0 0 3.712 11.252c3.295 6.289 8.359 11.535 14.548 15.311 1.707.045 3.386.072 5.038.072.799 0 1.579-.008 2.359-.019.282 0 .573-.008.853-.019.127 0 .254 0 .382-.008.699-.009 1.388-.036 2.069-.055.1-.009.208-.009.308-.019q1.198-.042 2.368-.108c1.107-.064 2.197-.136 3.267-.227 2.704-.219 5.318-.526 7.824-.916.019 0 .045-.009.064-.009a74.401 74.401 0 0 0 4.039-.718l.263-.055c.318-.055.636-.128.943-.2a.3.3 0 0 0 .1-.019 69 69 0 0 0 3.812-.916c.208-.055.418-.118.626-.172.699-.19 1.389-.398 2.061-.608a66 66 0 0 0 2.114-.681c.027-.019.044-.027.072-.027a59 59 0 0 0 6.089-2.479l.109-.055a47 47 0 0 0 1.859-.926 56 56 0 0 0 1.525-.835q.18-.094.345-.2c.6-.345 1.179-.699 1.752-1.062a59 59 0 0 0 1.688-1.115c.019-.019.044-.028.063-.045.545-.382 1.08-.772 1.607-1.179.036-.019.064-.045.1-.072.498-.39.99-.781 1.48-1.19a47 47 0 0 0 1.505-1.325 38 38 0 0 0 1.353-1.306q.097-.082.163-.163c.373-.372.726-.753 1.08-1.135.118-.118.227-.246.335-.371.373-.409.725-.825 1.079-1.253l.219-.272a42 42 0 0 0 2.205-2.958 3 3 0 0 0 .163-.245c.282-.427.562-.863.835-1.298.109-.182.227-.363.327-.545q.353-.572.68-1.17c.119-.2.227-.409.346-.617.027-.045.055-.1.082-.155.208-.39.418-.789.617-1.198.109-.218.219-.435.318-.653q.352-.71.662-1.434l.009-.008a53 53 0 0 0 1.951-5.182 36 36 0 0 0-.435-5.074c-3.422-21.735-25.647-36.302-49.652-32.536-24.012 3.776-40.703 24.458-37.281 46.193z"/><path fill="#66142E" d="m258.283 447.109-.175-.062c.008-.055.021-.11.029-.165z" opacity=".3"/><path fill="#5F5F82" d="M100.963 559.334q1.594.106 3.176.091c6.789-.036 13.723-1.261 19.53-4.773a23.9 23.9 0 0 0 5.337-4.382c3.059-3.323 5.137-7.487 5.445-11.953.027-.445.045-.88.045-1.325.027-2.794-.354-5.617.462-8.267 1.452-4.8 6.297-7.686 8.958-11.925 2.396-3.812 2.894-8.593 2.078-13.014-.816-4.419-2.858-8.53-5.227-12.342a71.4 71.4 0 0 0-24.657-23.888l-.935.282c-.888-.771-2.25-.426-3.358-.019-.499.183-.999.382-1.489.573l-7.387 46.556c-1.253 15.681-2.26 31.073-1.978 44.386"/><path fill="#FFB6B8" d="M185.077 518.296c3.295 6.288 8.358 11.534 14.547 15.31 1.707.045 3.386.072 5.038.072.799 0 1.579-.008 2.36-.019.282 0 .572-.008.852-.018.127 0 .255 0 .382-.009.699-.009 1.389-.036 2.069-.055.1-.009.208-.009.308-.019q1.198-.041 2.368-.108c1.107-.064 2.197-.136 3.268-.227a113 113 0 0 0 7.823-.916c.019 0 .045-.009.064-.009a74.401 74.401 0 0 0 4.039-.718l.263-.055c.318-.055.636-.127.944-.2.036 0 .063-.008.099-.018a91 91 0 0 0 3.813-.917c.207-.055.417-.118.625-.171.7-.191 1.389-.399 2.061-.609a64 64 0 0 0 2.114-.681c.028-.018.045-.027.072-.027a64 64 0 0 0 6.09-2.478l.108-.055a50 50 0 0 0 3.384-1.762c.119-.064.236-.127.346-.2.6-.345 1.179-.699 1.751-1.062a55 55 0 0 0 1.688-1.115c.019-.019.045-.028.064-.045a44 44 0 0 0 1.607-1.179c.036-.019.063-.045.099-.072.499-.39.99-.78 1.48-1.19a49 49 0 0 0 1.506-1.325 39 39 0 0 0 1.352-1.306 1.3 1.3 0 0 0 .164-.163c.373-.371.725-.753 1.079-1.135.119-.118.227-.245.335-.371.373-.409.725-.825 1.08-1.253l.218-.271a42 42 0 0 0 2.368-3.204c.282-.426.562-.863.836-1.298.108-.182.226-.362.326-.545q.353-.571.681-1.17c.118-.199.227-.409.345-.617.028-.045.055-.1.083-.155.208-.39.417-.789.617-1.198.108-.218.218-.435.318-.653q.35-.71.661-1.433c-18.83 14.212-42.626 22.025-65.878 18.794a70.4 70.4 0 0 1-15.817-4.147z"/><path fill="#001F54" d="M100.965 559.346c1.062.073 2.122.1 3.176.092 6.789-.037 13.722-1.262 19.53-4.773a24 24 0 0 0 5.337-4.383q.572-1.904 1.17-3.812c1.052-3.323 2.25-6.69 4.32-9.466.027-2.794-.355-5.616.462-8.267 1.452-4.8 6.297-7.686 8.958-11.924 2.396-3.813 2.894-8.594 2.078-13.015-.816-4.419-2.858-8.53-5.227-12.342a71.4 71.4 0 0 0-24.657-23.887l-.935.282c-.889-.772-2.25-.427-3.358-.019-.499.182-.999.381-1.489.572l-7.387 46.556c-1.253 15.682-2.26 31.073-1.978 44.386" opacity=".2"/><path fill="#001F54" d="M221.456 369.502c-14.629-3.198-29.453-4.847-44.281-6.677-12.89-1.63-31.357-3.773-44.435-5.292a2.68 2.68 0 0 0-2.894 1.949l-11.364 40.38c-.256.32-18.101 114.445-18.276 114.864-1.04 13.218-1.999 26.479-2.031 39.863.017 9.634.465 19.567 2.808 29.033.645 2.152 1.217 4.467 2.348 6.446 2.96 5.544 8.752 9.407 14.987 10.087 2.456.263 6.516.108 9 .148 6.653.009 23.364 0 29.779.007h2.482c5.409.419 10.412-1.999 12.724-7.083 2.461-5.339 1.483-11.571-.521-16.698l.022 2.011c5.827-15.01 11.43-30.487 20.501-43.83l-2.445 1.136c4.539.317 9.09.543 13.659.574 28.61.324 59.023-7.205 67.999-38.058 11.151-40.796-10.44-83.002-37.632-112.42a.924.924 0 0 0-1.42 1.174c15.522 21.618 30.293 44.512 35.32 70.878 2.876 16.734 2.559 35.743-6.595 50.412-12.108 19.003-36.698 22.628-57.638 22.511-4.433-.034-8.874-.261-13.312-.574a2.73 2.73 0 0 0-2.413 1.138c-2.502 3.513-4.611 7.167-6.559 10.873-5.727 11.053-10.298 22.646-14.685 34.235a2.77 2.77 0 0 0 .023 2.013c1.083 2.765 1.724 5.715 1.557 8.48-.155 2.769-1.227 5.186-3.118 6.507-2.09 1.69-5.34 1.039-7.949 1.168-6.354.013-23.224-.004-29.779.006-2.458-.094-7.136.222-9.386-.263-5.167-.935-9.586-4.939-10.937-10.027-.148-.581-.514-1.665-.663-2.241-4.851-21.618-1.985-45.696-.676-66.853.229.356 18.138-115.629 18.052-114.046l11.324-40.39-2.895 1.949c21.584 2.444 45.281 4.819 66.774 6.866 7.437.605 14.889 1.071 22.388 1.131a.699.699 0 0 0 .157-1.383z"/><path fill="#001F54" d="M172.379 578.431c-7.167-15.407-35.863-10.413-47.107-2.367a.696.696 0 0 0 .715 1.193c3.513-1.824 7.34-2.945 11.184-3.73 8.992-1.592 19.657-1.891 27.309 3.508q1.953 1.57 2.944 3.652c1.595 3.12 6.256 1.001 4.954-2.256zM149.297 598.54c3.686-4.38 3.478-12.766-1.508-15.957-.551-.306-1.089.454-.622.871 2.74 3.022 1.721 9.061-1.507 11.268-3.629 2.506.885 7.298 3.637 3.818M205.289 530.956c-5.151.227-10.294-.094-15.395-.698-2.229-.096-5.462-.068-7.727-.153-2.611.006-5.217-.094-7.833-.036-.465-.036-.893.318-.873.8a.77.77 0 0 0 .578.721c10.171 2.632 20.676 4.058 31.2 4.811 3.816.126 3.886-5.493.05-5.445"/><path fill="#F9F9F9" d="M69.513 533.229c7.051 1.997 14.076 2.097 19.884-.39 28.414 6.498 51.048-8.74 39.595-32.346 14.157-6.689 13.803-27.39-7.706-28.35-.036-.327-.063-.673-.099-1.008-.246-3.14-.136-6.462.263-9.929.863-7.722 3.195-16.182 6.299-25.039l3.276-6.952 24.839-52.783-26.536-9.338c-7.069 5.926-14.112 12.007-20.982 18.233a532 532 0 0 0-13.54 12.651c-16.518 15.981-31.292 32.572-41.93 49.115-6.044 9.412-10.762 18.805-13.686 28.052-7.75 24.504 5.591 51.104 30.32 58.082z"/><path fill="#5F5F82" d="M69.515 533.228c7.052 1.998 14.077 2.097 19.885-.39 28.414 6.499 51.048-8.74 39.594-32.345 14.158-6.689 13.804-27.39-7.705-28.351a36 36 0 0 1-.208-3.35c-.008-.362-.019-.725-.019-1.098 0-2.097.136-4.266.391-6.488-4.175-5.201-9.457-9.23-15.402-12.16-15.856-7.841-36.41-7.941-53.173-1.951-6.045 9.412-10.763 18.805-13.687 28.052-7.75 24.504 5.591 51.103 30.32 58.081z"/><g fill="#F9F9F9" opacity=".4"><path d="M96.017 532.819a59.3 59.3 0 0 0 9.696 1.397c-3.78.268-7.82.098-12.03-.557a22 22 0 0 0 2.334-.84M39.192 475.149c2.92-9.247 7.636-18.645 13.687-28.057 13.471-20.95 33.586-41.997 55.464-61.765 6.869-6.218 13.918-12.304 20.987-18.231l4.649 1.637c-6.405 5.4-12.785 10.926-19.014 16.565-21.88 19.767-41.993 40.815-55.464 61.765-6.05 9.412-10.766 18.81-13.687 28.057-7.751 24.501 5.586 51.102 30.32 58.085 2.287.646 4.571 1.09 6.812 1.315-4.248.504-8.836.016-13.433-1.284-24.735-6.983-38.07-33.584-30.32-58.085z"/></g><path fill="#001F54" d="M105.932 464.06c.589 3.901 2.767 8.494 6.698 8.449 1.062-.009 2.086-.399 3.104-.681a18.9 18.9 0 0 1 5.453-.699 25 25 0 0 1-.072-1.217 22 22 0 0 1-.036-1.126c-.019-.363-.019-.725-.019-1.098 0-2.097.136-4.266.39-6.489-4.175-5.2-9.456-9.229-15.402-12.16-.708 5-.888 10.019-.118 15.021z" opacity=".2"/><path fill="#001F54" d="M127.58 365.006c-33.286 28.119-75.36 65.175-90.515 106.856-4.551 12.217-4.135 26.272 1.325 38.155 6.434 14.417 20.36 25.249 36.108 27.423 5.239.725 10.891.44 16.1-1.791l-1.884.17c5.675 1.279 11.558 1.844 17.455 1.394 21.11-1.43 35.707-17.102 25.429-37.988l-1.373 3.898c7.69-3.47 13.155-12.366 10.773-20.941-2.197-8.618-11.536-12.709-19.585-12.843l2.669 2.513c-.634-6.218.193-12.71 1.629-19.069 4.328-19.51 13.993-37.1 23.197-54.693a1.24 1.24 0 0 0-.521-1.674 1.24 1.24 0 0 0-1.562.347c-4.096 5.382-7.829 11.038-11.244 16.903-6.924 11.759-12.217 24.561-15.261 37.891-1.535 6.703-2.517 13.707-1.826 20.886a2.78 2.78 0 0 0 2.632 2.512c3.284.154 6.512.833 9.128 2.309 5.443 2.828 7.083 9.479 4.031 14.674-1.434 2.567-3.778 4.638-6.542 5.931a2.9 2.9 0 0 0-1.387 3.871c8.432 17.115-3.766 28.345-20.642 29.457-5.191.375-10.488-.146-15.64-1.332a3.03 3.03 0 0 0-1.883.17c-3.869 1.645-8.394 1.934-12.837 1.291-13.64-1.913-25.742-11.277-31.362-23.858-6.095-13.148-4.574-27.357 1.459-40.241 5.789-13.257 14.056-25.226 23.127-36.527 18.444-22.753 40.204-42.522 62.499-61.517 2.632-2.285-.617-6.42-3.497-4.174z"/><path fill="#001F54" d="M129.055 470.741c-2.915-.397-5.888-.605-8.861-.416-2.965.187-5.942.802-8.615 2.038a.804.804 0 0 0-.393 1.069c.165.373.548.493.916.476 3.336-.05 6.558.607 9.814 1.129 1.981.062 3.963.253 5.849.977 3.803 1.174 5.214-4.553 1.29-5.273M130.018 496.861c-1.803.555-3.598.863-5.452.827-1.904-.134-3.888.414-5.364 1.607-2.042 1.55-3.19 4.331-2.637 6.842.449 2.197 2.198 4.553 4.569 4.755 1.002.089 1.454-1.235.654-1.805-1.595-1.501-1.821-4.718.262-5.816a2.7 2.7 0 0 1 1.646-.346c2.709.349 5.56.043 8.087-.911 3.252-1.298 1.59-6.125-1.767-5.151z"/><path fill="#001F54" d="M111.411 525.885c-3.141 2.835-8.173 1.984-11.693 1.389-3.699-.625-4.792-1.724-7.978-1.426-2.1.196-4.024 1.211-6.05 1.796-6.332 1.825-13.02-.648-19.14-3.087-2.878-1.147-5.89-2.389-7.817-4.816-1.927-2.425-2.248-6.421.16-8.369 1.448-1.172 3.458-1.323 5.319-1.268 11.418.333 22.818 6.416 33.81 3.305 3.361-.952 5.369-2.747 8.681-2.004 2.808.629 6.359 2.954 7.105 6.904.511 2.702-.371 5.746-2.399 7.576z" opacity=".2"/><path fill="#001F54" d="M123.527 459.446c-11.062-12.68-28.476-17.972-44.803-17.576a.99.99 0 0 0-.983.998.993.993 0 0 0 .933.983c11.729.733 23.384 3.845 32.653 11.073a46 46 0 0 1 8.039 8.033c2.368 2.863 6.595-.672 4.161-3.511"/><path fill="#F9F9F9" d="M209.902 324.691s89.032-40.459 89.173-41.825c2.488-24.493.024-83.86-36.519-118.25-18.491-17.403-48.123-28.552-81.478-28.227-56.981.556-87.836 26.014-101.852 49.6-29.972 50.435-27.565 132.697-.247 162.382.93 1.011 126.192-23.401 126.192-23.401"/><path fill="#F9F9F9" d="M299.073 282.857c-.14 1.364-89.168 41.826-89.168 41.826l-4.728.274s-125.27 24.412-126.199 23.405c-27.318-29.685-29.724-111.942.249-162.379 14.019-23.591 44.875-49.044 101.852-49.601 9.042-.088 17.812.667 26.157 2.161 22.449 4.018 41.84 13.381 55.319 26.064 10.077 9.48 17.556 20.853 23.056 32.877l.008.007c14.465 31.587 15.261 67.625 13.454 85.366"/><path fill="#5F5F82" d="M285.614 197.492c-9.733 4.176-23.275 6.473-37.599 3.464-31.892-6.699-43.493-38.21-40.784-62.413 22.449 4.018 41.84 13.381 55.319 26.064 10.077 9.48 17.556 20.854 23.056 32.877z"/><path fill="#001F54" d="M78.725 350.405c-.745-.067-.967-.306-1.27-.638-13.434-14.596-21.623-42.556-21.909-74.792-.294-33.314 7.688-66.133 21.898-90.048 11.072-18.632 39.256-49.983 103.611-50.611 32.421-.32 63.422 10.443 82.915 28.788 35.555 33.464 40.087 91.154 37.159 119.965-.15 1.474-.166 1.627-15.159 8.77-7.411 3.531-17.729 8.349-30.669 14.324a8978 8978 0 0 1-44.546 20.405 2.067 2.067 0 0 1-2.739-1.027 2.067 2.067 0 0 1 1.028-2.739c32.675-14.847 81.64-37.385 88.061-41.08 2.663-28.352-1.962-83.6-35.968-115.606-18.732-17.628-48.658-27.971-80.04-27.664-62.328.609-89.465 30.703-100.094 48.588-30.41 51.172-25.9 131.082-1.124 159.233 8.548-.934 78.348-14.271 124.895-23.341a2.074 2.074 0 0 1 2.427 1.634 2.07 2.07 0 0 1-1.635 2.428c-.313.06-31.68 6.172-62.757 12.082-18.256 3.472-32.843 6.196-43.354 8.095-14.556 2.632-19.02 3.388-20.728 3.234z"/><path fill="#FFD8BE" d="M280.309 257.661c11.082 1.74 30.217 9.765 35.499 30.784 13.351 53.139-50.956 97-131.457 95.358-70.58-1.438-108.449-27.005-114.312-52.518-4.61-20.067 4.852-41.553 29.4-55.584 0 0 14.448-7.612 41.218-11.432 19.087-2.723 52.503-2.619 74.871-3.583 18.228-.786 34.944-4.164 46.754-4.262 9.444-.079 18.027 1.235 18.027 1.235z"/><path fill="#001F54" d="M142.79 347.005c-13.778-3.349-36.732-9.233-38.119-26.053-.111-1.648-1.583-2.892-3.229-2.686a2.89 2.89 0 0 0-2.532 2.686 19.8 19.8 0 0 0 1.038 7.626c5.882 15.772 28.125 19.401 42.842 18.429z"/><path fill="#F27E80" d="M115.401 339.089s-16.84-7.46-14.406-20.484c2.703-14.462 18.997-15.299 23.291-6.084 5.584 11.99-15.726 17.801-8.885 26.568"/><path fill="#F9F9F9" d="M115.402 339.095s-2.194-.974-4.877-2.827c.437-1.059 1.141-2.107 2.007-3.153 4.051-4.954 11.318-10.073 7.778-17.666-2.623-5.638-9.733-7.515-15.48-4.812 5.866-6.323 16.18-5.167 19.462 1.892 3.54 7.593-3.727 12.712-7.777 17.666-2.342 2.87-3.618 5.692-1.113 8.898z" opacity=".7"/><path fill="#FF5C64" d="M115.396 339.095s-16.835-7.467-14.395-20.488c.417-2.196 1.13-4.075 2.078-5.65 0 0-1.485 8.707 7.25 6.776 0 0-3.131 7.857 6.18 10.462-2.342 2.87-3.618 5.691-1.113 8.898z"/><path fill="#001F54" d="M115.405 341.251a2.162 2.162 0 0 0 1.705-3.49c-2.002-2.566-.62-4.488 3.534-8.937 4.049-4.336 9.091-9.733 5.604-17.215-2.343-5.034-7.92-7.909-13.867-7.159-5.413.683-11.802 4.656-13.506 13.758-2.718 14.539 14.904 22.524 15.654 22.857.283.126.579.186.874.186zm-1.156-32.597c3.553 0 6.703 1.82 8.082 4.781 2.101 4.514-.428 7.711-4.845 12.44-2.357 2.523-5.084 5.443-5.556 8.722-4.333-2.953-10.155-8.376-8.806-15.595 1.083-5.789 4.745-9.625 9.798-10.264q.67-.084 1.327-.084"/><path fill="#001F54" d="M113.229 317.407c-8.095 4.528-9.933 12.521-3.872 19.764 1.209 1.459 3.416-.3 2.253-1.805-6.459-5.873-5.063-12.986 1.619-17.959"/><path fill="#FFB6B8" d="M305.937 336.604c-20.863 28.921-67.586 48.296-121.591 47.192-70.577-1.438-108.449-27.001-114.31-52.514-1.537-6.689-1.51-13.535.114-20.208.161.968.355 1.94.578 2.903 6.246 27.191 46.613 54.442 121.832 55.976 46.213.946 87.41-12.184 113.375-33.347z"/><path fill="#001F54" d="M280.309 257.656c13.731 1.063 27.675 9.036 34.257 21.628 6.463 12.73 6.71 28.183 2.128 41.565-16.513 43.902-71.945 62.053-114.974 64.66-35.334 1.588-76.202-2.512-107.02-21.014-16.49-10.014-29.724-25.856-27.628-46.247 1.556-19.147 15.745-34.498 32.371-42.552-11.308 7.412-21.172 17.307-25.835 30.039-12.22 34.826 18.357 56.376 47.744 66.137 41.427 13.196 91.896 13.843 132.832-1.333 24.463-9.224 49.373-25.471 58.293-51.138 4.194-12.308 3.828-26.395-1.546-38.281-5.688-12.127-17.816-20.182-30.615-23.466z"/><path fill="#F48990" d="M259.523 263.043c1.306 1.109 1.798 4.374-1.147 6.132-2.958 1.766-8.503.914-8.503.914s.246-2.986 2.664-5.752c1.936-2.215 5.365-2.67 6.986-1.294M167.781 268.832c-.969 1.416-.584 4.698 2.716 5.61 3.317.915 8.441-1.38 8.441-1.38s-1.022-2.814-4.08-4.84c-2.45-1.621-5.875-1.147-7.077.61"/><path fill="#001F54" d="M117.624 258.511c-4.092-6.703-4.117-15.353-1.496-22.8 2.971-8.287 10.55-14.419 19.024-15.918 8.314-1.702 17.123 1.742 22.975 7.444 5.469 5.23 9.355 11.951 10.809 19.372-4.962-4.719-10.082-9.115-15.86-12.253-10.159-5.897-21.288-3.888-28.07 5.963-3.528 5.157-5.961 11.841-7.382 18.192M215.485 243.058c-2.747-10.956-1.005-23.553 6.949-32.272 8.135-8.709 23.136-9.686 30.742.153 3.592 4.521 5.164 9.588 5.387 15.016.062 1.713-.095 3.456-.518 5.111a60.6 60.6 0 0 0-5.178-8.089c-3.306-4.167-6.878-8.055-12.162-8.729-4.665-.445-9.293 1.604-12.496 4.958-6.184 6.656-9.074 15.035-12.724 23.852"/></svg>