<svg xmlns="http://www.w3.org/2000/svg" width="74" height="26" fill="none"><path fill="#fff" d="m68.841 8.594-4.012-.931-.716-.287-18.411.143v8.883l23.139.072z"/><path fill="#F48120" d="M61.319 15.614a2.04 2.04 0 0 0-.215-1.862 2.22 2.22 0 0 0-1.504-.788l-12.465-.144c-.072 0-.144-.071-.215-.071a.13.13 0 0 1-.04-.048.14.14 0 0 1 0-.12.13.13 0 0 1 .04-.047c.071-.144.143-.215.286-.215l12.537-.144a4.51 4.51 0 0 0 3.653-2.722l.717-1.862c0-.072.071-.144 0-.215a8.17 8.17 0 0 0-7.519-6.364 8.166 8.166 0 0 0-8.17 5.504 3.9 3.9 0 0 0-2.579-.716 3.73 3.73 0 0 0-3.295 3.295c-.048.43-.024.867.071 1.29a5.23 5.23 0 0 0-5.086 5.23c-.012.264.012.529.072.787a.23.23 0 0 0 .215.215h22.995c.144 0 .287-.072.287-.215z"/><path fill="#FAAD3F" d="M65.259 7.59h-.358c-.072 0-.143.073-.215.144l-.502 1.72a2.05 2.05 0 0 0 .215 1.862 2.22 2.22 0 0 0 1.505.788l2.65.143c.072 0 .144.072.215.072a.14.14 0 0 1 .04.047.14.14 0 0 1 0 .12.14.14 0 0 1-.04.048c-.071.143-.143.215-.286.215l-2.723.143a4.51 4.51 0 0 0-3.653 2.722l-.143.645c-.072.072 0 .215.143.215h9.456a.19.19 0 0 0 .215-.215 7.8 7.8 0 0 0 .287-1.863 6.85 6.85 0 0 0-6.806-6.805"/><path fill="#F48120" d="M72.996 20.485a.645.645 0 1 1 0-1.29.645.645 0 0 1 0 1.29m0-1.146a.5.5 0 0 0-.463.31.5.5 0 0 0 .109.546.5.5 0 0 0 .856-.354.495.495 0 0 0-.502-.502m.287.86h-.144l-.143-.215h-.143v.215h-.143v-.645h.358a.19.19 0 0 1 .215.215c0 .072-.072.143-.144.215zm-.215-.358c.071 0 .071 0 .071-.072a.1.1 0 0 0-.005-.028.1.1 0 0 0-.015-.023.07.07 0 0 0-.051-.02h-.215v.214h.215zm-64.26-.645h1.577v4.298h2.722v1.361H8.809zm5.946 2.794a2.94 2.94 0 0 1 3.081-2.937 2.88 2.88 0 0 1 3.009 2.937 2.94 2.94 0 0 1-3.08 2.937 2.923 2.923 0 0 1-3.01-2.937m4.514 0a1.47 1.47 0 0 0-1.433-1.576 1.506 1.506 0 0 0 0 3.009c.86.143 1.433-.574 1.433-1.433m3.51.358v-3.152h1.576v3.152c0 .788.43 1.218 1.075 1.218a1.002 1.002 0 0 0 1.074-1.146v-3.224h1.576v3.152c0 1.863-1.074 2.65-2.65 2.65-1.648-.071-2.651-.86-2.651-2.65m7.665-3.152h2.221c2.006 0 3.224 1.146 3.224 2.794s-1.218 2.865-3.224 2.865h-2.15v-5.66zm2.221 4.227a1.44 1.44 0 0 0 1.453-2.015 1.44 1.44 0 0 0-1.453-.851h-.645v2.866zm5.444-4.227h4.514v1.361h-2.937v.931h2.65v1.29h-2.65v2.077h-1.577zm6.734 0h1.576v4.298h2.723v1.361h-4.299zm8.382-.072H54.8l2.436 5.731h-1.72l-.429-1.003h-2.221l-.43 1.003h-1.648zm1.433 3.51-.645-1.575-.645 1.576zm4.585-3.438h2.65a2.45 2.45 0 0 1 1.863.645 1.88 1.88 0 0 1-.645 3.008l1.361 2.006H62.68l-1.146-1.719h-.716v1.72h-1.576zm2.579 2.722c.501 0 .859-.286.859-.645 0-.43-.358-.644-.859-.644h-1.003v1.36h1.003zm4.656-2.722h4.585v1.29h-3.009v.86h2.722v1.289h-2.722v.86h3.081v1.36h-4.657zM5.37 22.706a1.42 1.42 0 0 1-1.29.86 1.506 1.506 0 0 1 0-3.009 1.5 1.5 0 0 1 1.362.931h1.647a2.96 2.96 0 0 0-3.008-2.364A2.983 2.983 0 0 0 1 22.061 2.923 2.923 0 0 0 4.009 25a3.09 3.09 0 0 0 3.009-2.293z"/></svg>