<svg xmlns="http://www.w3.org/2000/svg" width="400" height="401" fill="none"><mask id="a" width="402" height="402" x="-1" y="-1" maskUnits="userSpaceOnUse" style="mask-type:alpha"><path fill="#FFA467" stroke="#FFB685" stroke-width="2" d="M0 0h400v400H0z"/></mask><g mask="url(#a)"><path fill="#F9F9F9" d="M166.152 392.078c-.661 10.055-6.169 42.655-30.066 41.565-9.125-.416-11.511-4.906-21.441-6.887-2.704-.567-3.017-4.273-.452-5.301 4.621-2.247 9.231-.903 14.233.246 19.599 4.506 24.191-21.036 25.324-42.992"/><path fill="#EFEFEF" d="M114.646 426.756c9.929 1.985 12.313 6.47 21.437 6.888 23.897 1.092 29.41-31.512 30.067-41.565l-5.684-.817c-1.579 12.595-4.332 37.785-25.851 36.804-9.124-.417-9.583-3.394-20.498-4.122-.558-.117-1.057-.481-1.468-1.003-.622 1.48.101 3.423 1.997 3.816z"/><path fill="#001F54" d="M137.228 435.79c10.45 0 18.908-6.141 24.516-17.833 5.33-11.111 6.37-23.392 6.524-25.74l-4.23-.279c-.11 1.664-2.983 40.731-27.856 39.588-4.529-.206-7.241-1.513-10.381-3.025-2.787-1.344-5.948-2.866-10.741-3.822-.301-.063-.478-.259-.506-.577-.02-.224.039-.523.425-.679q.07-.027.138-.061c3.607-1.752 7.371-.871 11.729.15l1.102.257c5.638 1.294 10.55.401 14.601-2.655 7.795-5.884 12.149-19.719 13.315-42.295l-4.234-.218c-1.081 20.952-4.997 34.117-11.636 39.128-3.046 2.301-6.676 2.923-11.096 1.907l-1.085-.253c-4.695-1.098-9.55-2.234-14.488.137a4.88 4.88 0 0 0-2.996 4.951 4.865 4.865 0 0 0 3.88 4.36c4.286.855 7.064 2.195 9.75 3.489 3.411 1.643 6.632 3.195 12.027 3.442q.624.028 1.241.028z"/><path fill="#F9F9F9" d="m246.482 290.489 20.611 86.664 6.946 29.219c7.772 5.652 22.434 7.009 29.677-.707 17.622-2.247 17.142-22.603 5.773-47.371-6.396-13.941-16.238-29.274-28.236-43.561-6.855-8.168-14.422-15.996-22.457-23.021l-6.012-.6-6.303-.623z"/><path fill="#5F5F82" d="m267.094 377.156 1.646 6.932 5.299 22.286c7.773 5.653 22.435 7.01 29.678-.706 6.585-.841 10.641-4.212 12.549-9.391 3.194-8.683.347-22.462-6.776-37.979-5.017-1.01-10.239-.975-15.192.192a32 32 0 0 0-6.027 2.056c-3.166 1.442-6.098 3.357-8.903 5.405-.191.142-.381.276-.565.418-4.267 3.166-8.295 6.74-11.707 10.79z"/><path fill="#E5E5E5" d="M252.785 291.111a169 169 0 0 0 5.54 12.599c.388.791.799 1.597 1.463 2.176.614.53 1.392.821 2.148 1.103 6.501 2.367 13.241 4.53 19.318 7.744-6.854-8.168-14.422-15.997-22.456-23.021z"/><path fill="#001F54" d="m268.742 384.087 5.299 22.286c7.772 5.653 22.435 7.009 29.677-.707 6.585-.84 10.641-4.211 12.55-9.39-4.063 2.523-9.362 2.932-13.758 1.067-4.445-1.894-7.85-6.062-8.811-10.797-.353-1.717-.396-3.519.056-5.215.586-2.204 1.971-4.127 2.656-6.303.926-2.903.552-6.055-.056-9.044a59.08 59.08 0 0 0-7.935-19.707c-.035 1.937-.827 3.766-1.654 5.512-2.368 5.011-5.13 9.808-7.964 14.577-3.462 5.858-7.024 11.659-10.062 17.722z" opacity=".2"/><path fill="#001F54" d="M289.396 413.152c5.764 0 11.413-1.69 15.33-5.489 7.094-1.127 11.889-5.171 13.891-11.732 6.887-22.588-20.959-73.02-58.423-105.81a2.12 2.12 0 0 0-1.187-.514l-12.313-1.224a2.12 2.12 0 0 0-2.272 2.6l27.557 115.882c.118.492.407.926.815 1.223 4.424 3.217 10.575 5.065 16.602 5.065zM257.91 293.757c35.488 31.296 62.975 80.199 56.652 100.937-1.591 5.216-5.226 8.118-11.111 8.868a2.13 2.13 0 0 0-1.277.652c-6.106 6.504-18.866 5.781-26.256.879l-26.681-112.199z"/><path fill="#001F54" d="M307.535 371.474c-7.91-.92-17.518 3.081-19.994 11.377-2.166 6.466 1.408 13.912 7.71 16.317a14.2 14.2 0 0 0 5.886 1.046.58.58 0 0 0 .213-1.109c-3.36-1.541-6.157-3.596-7.725-6.255-4.566-7.893 1.515-15.067 8.971-18.165 1.609-.76 3.339-1.31 5.103-1.964.633-.217.505-1.202-.164-1.247"/><path fill="#F9F9F9" d="M226.028 461.152q.256.655.629 1.237a7.27 7.27 0 0 0 6.104 3.334h32.03c4.438-.805 6.43-4.062 6.26-7.688-.099-2.339-1.109-4.84-2.94-6.931.015-.065.022-.121.035-.184a266 266 0 0 1 2.678-12.718 402 402 0 0 1 3.582-14.153c2.417-8.938 5.228-18.35 8.33-28.109l-16.845 5.935-41.647 14.67c-2.587 17.431-2.678 33.337 1.781 44.607z"/><path fill="#5F5F82" d="M260.085 419.272c.388 1.731 1.103 3.377 2.184 4.825.707.948 1.597 1.909 1.575 3.081-.014.967-.65 1.794-.939 2.72-.487 1.569.092 3.329 1.152 4.58 1.067 1.258 2.551 2.077 4.063 2.727.883.381 1.788.713 2.706.997a402 402 0 0 1 3.582-14.153c2.417-8.938 5.228-18.35 8.33-28.109l-16.845 5.935c-1.604 1.711-2.996 3.576-4.077 5.66-1.859 3.561-2.6 7.878-1.732 11.736z"/><path fill="#001F54" d="M232.761 467.893h32.03q.195 0 .388-.035c3.708-.673 6.372-2.825 7.502-6.058 1.228-3.516.341-7.842-2.251-11.285 2.696-14.304 7.403-31.958 14.373-53.919a2.168 2.168 0 0 0-2.788-2.703l-58.486 20.603a2.17 2.17 0 0 0-1.425 1.728c-2.926 19.742-2.286 35.126 1.903 45.724 1.426 3.611 4.863 5.943 8.755 5.943zm31.822-4.339h-31.822a5.04 5.04 0 0 1-4.721-3.199c-3.815-9.655-4.432-23.85-1.833-42.203l53.155-18.725c-6.467 20.723-10.852 37.532-13.383 51.283a2.17 2.17 0 0 0 .501 1.822c2.102 2.403 2.928 5.478 2.103 7.837-.583 1.669-1.964 2.769-4.001 3.185z"/><path fill="#F9F9F9" d="M159.446 436.692c.12 5.306.495 10.182 1.251 14.443.403 2.325.926 4.466 1.575 6.395 1.795 5.336 6.833 8.903 12.464 8.903h31.586c1.378 0 2.755-.318 3.922-1.053 2.027-1.279 3.208-3.399 3.582-5.943.375-2.565-.056-5.553-1.258-8.549.162-.438.332-.877.495-1.308 4.714-12.485 9.321-23.12 13.722-30.242a49 49 0 0 1 2.036-3.073c2.557.198 5.038.325 7.44.396 27.189.784 44.84-6.437 52.289-23.332a41 41 0 0 0 1.519-4.034c1.314-4.106 2.113-8.705 2.395-13.808.614-11.059-1.385-22.095-5.342-32.447-4.147-10.853-10.047-21.276-17.347-31.359a189 189 0 0 0-7.391-9.532l-9.185-12.719-25.593-2.875-43.654-4.897c-2.946 10.48-5.885 20.964-8.832 31.444l-2.141 13.502-6.238 39.28-5.752 36.248c-.976 12.21-1.76 24.193-1.54 34.559z"/><path fill="#D3D3D3" fill-opacity=".4" d="M159.447 436.69c.12 5.306.495 10.183 1.251 14.444q.189 1.083.409 2.113c.149.691.311 1.37.487 2.02l.063.22c.084.338.184.671.283.995.105.36.219.707.331 1.045 1.795 5.336 6.833 8.903 12.464 8.903h31.586c1.378 0 2.755-.318 3.922-1.053 2.027-1.279 3.208-3.399 3.582-5.943-6.296 2.841-13.305 4.091-20.173 3.421-5.935-.586-12.315-3.018-14.881-8.401-.642-1.343-.995-2.764-1.144-4.218-.31-2.898.162-5.943.742-8.832 1.003-4.975 2.283-9.9 3.823-14.741.933-2.946 2.02-5.943 4.084-8.252 4.53-5.06 12.323-5.356 19.042-4.36 7.3 1.081 14.379 3.207 21.466 5.286a49 49 0 0 1 2.036-3.074c2.557.198 5.038.325 7.44.396 27.19.784 44.84-6.437 52.289-23.331-14.661 11.072-33.195 17.155-51.299 14.641-22.017-3.053-42.212-20.251-45.809-42.184-3.25-19.891 7.688-40.862 25.07-51.066 15.891-9.334 36.135-9.913 53.263-3.037a189 189 0 0 0-7.391-9.532l-9.185-12.719-25.593-2.875-43.653-4.897c-2.947 10.48-5.886 20.964-8.833 31.444l-2.141 13.502-6.238 39.28-5.752 36.248c-.975 12.21-1.76 24.193-1.54 34.559z"/><path fill="#FFD8BE" d="M222.04 395.978a28.5 28.5 0 0 0 2.891 8.761c2.565 4.897 6.508 8.981 11.326 11.921q1.994.054 3.923.056c.622 0 1.229-.007 1.837-.015.219 0 .446-.006.664-.015.099 0 .198.001.297-.006.544-.007 1.081-.028 1.611-.043.078-.007.162-.007.239-.015a94.613 94.613 0 0 0 4.388-.261 83 83 0 0 0 6.092-.713c.015 0 .035-.007.049-.007q.965-.148 1.909-.318c.417-.078.827-.155 1.236-.241l.205-.043c.247-.043.495-.099.735-.155.028 0 .049-.007.077-.015a53 53 0 0 0 2.968-.713c.162-.043.325-.092.487-.134a43 43 0 0 0 1.605-.474q.839-.255 1.646-.53c.021-.014.035-.021.056-.021a46 46 0 0 0 4.741-1.93l.085-.042a38 38 0 0 0 2.635-1.372c.092-.05.183-.099.268-.155.468-.269.919-.545 1.364-.827q.668-.425 1.314-.869c.015-.015.035-.021.05-.035.424-.297.84-.6 1.251-.918.028-.014.049-.034.078-.056.388-.304.77-.607 1.152-.926.396-.332.784-.678 1.172-1.032q.542-.497 1.053-1.017a1 1 0 0 0 .127-.127c.291-.289.565-.586.841-.883.092-.092.176-.191.261-.289.29-.318.564-.642.84-.976l.17-.211a33 33 0 0 0 1.844-2.494c.219-.332.438-.672.65-1.011.085-.142.177-.282.255-.424q.275-.446.53-.911c.092-.155.176-.319.269-.481.021-.034.042-.077.064-.12.162-.304.325-.614.48-.933.084-.17.17-.338.248-.508q.273-.554.515-1.116l.007-.007a41 41 0 0 0 1.518-4.035 28 28 0 0 0-.338-3.95c-2.664-16.923-19.969-28.264-38.658-25.332-18.696 2.94-31.691 19.042-29.027 35.965z"/><path fill="#66142E" d="m281.93 349.314-.136-.048.023-.127z" opacity=".3"/><path fill="#5F5F82" d="M159.444 436.692q1.241.083 2.473.071c5.286-.028 10.684-.982 15.206-3.716a18.6 18.6 0 0 0 4.155-3.413c2.382-2.586 4-5.829 4.239-9.305.021-.347.035-.686.035-1.032.021-2.176-.276-4.373.36-6.437 1.131-3.737 4.903-5.984 6.975-9.284 1.865-2.968 2.253-6.691 1.617-10.133-.635-3.441-2.225-6.641-4.069-9.61a55.6 55.6 0 0 0-19.198-18.598l-.728.22c-.692-.601-1.751-.332-2.615-.015-.388.142-.777.297-1.158.446l-5.752 36.247c-.976 12.21-1.76 24.193-1.54 34.559"/><path fill="#FFB6B8" d="M224.933 404.74c2.565 4.897 6.508 8.981 11.326 11.921q1.994.054 3.923.056c.622 0 1.229-.006 1.837-.014.219 0 .446-.007.664-.015q.149.002.297-.007c.544-.007 1.081-.028 1.611-.043.078-.006.162-.006.24-.014a91.034 91.034 0 0 0 4.388-.261 88 88 0 0 0 6.091-.714c.015 0 .035-.006.049-.006q.965-.148 1.909-.319a51 51 0 0 0 1.236-.241l.205-.042c.248-.043.495-.1.735-.156a.3.3 0 0 0 .077-.014q1.516-.33 2.968-.714c.162-.043.326-.092.487-.134.545-.148 1.082-.31 1.605-.473q.839-.255 1.646-.53c.021-.015.035-.022.056-.022a50 50 0 0 0 4.741-1.929l.085-.043a39 39 0 0 0 2.635-1.372q.139-.072.269-.155c.467-.269.918-.545 1.363-.827q.668-.424 1.314-.868c.015-.015.035-.022.05-.035q.635-.444 1.251-.918c.028-.015.05-.035.078-.056.388-.304.77-.608 1.152-.926.396-.332.784-.679 1.172-1.032q.542-.499 1.053-1.017.076-.064.127-.127c.291-.289.565-.587.841-.884.092-.092.176-.191.261-.289.29-.318.564-.642.84-.975l.17-.212a33 33 0 0 0 1.844-2.494c.22-.332.438-.672.65-1.01.085-.142.177-.283.255-.425q.275-.445.53-.911c.092-.155.176-.318.269-.48q.031-.055.064-.121a29 29 0 0 0 .48-.932q.13-.255.248-.509.273-.553.515-1.116c-14.661 11.065-33.189 17.149-51.292 14.633a54.8 54.8 0 0 1-12.315-3.229z"/><path fill="#001F54" d="M159.446 436.692q1.241.083 2.473.071c5.286-.028 10.684-.982 15.206-3.716a18.6 18.6 0 0 0 4.155-3.413q.445-1.482.911-2.968c.819-2.586 1.752-5.208 3.363-7.369.021-2.176-.276-4.373.36-6.437 1.131-3.737 4.903-5.984 6.974-9.284 1.866-2.968 2.254-6.691 1.618-10.133s-2.225-6.641-4.069-9.61a55.6 55.6 0 0 0-19.198-18.598l-.728.22c-.692-.601-1.752-.332-2.615-.015-.388.142-.777.297-1.159.446l-5.751 36.247c-.976 12.21-1.76 24.193-1.54 34.559" opacity=".2"/><path fill="#001F54" d="M253.257 288.89c-11.39-2.491-22.932-3.774-34.476-5.199-10.037-1.269-24.414-2.937-34.597-4.12a2.09 2.09 0 0 0-2.253 1.517l-8.848 31.44c-.2.249-14.093 89.105-14.229 89.431-.81 10.291-1.557 20.616-1.582 31.037.013 7.5.363 15.234 2.187 22.605.501 1.675.947 3.478 1.828 5.018 2.304 4.317 6.814 7.324 11.669 7.854 1.912.205 5.073.084 7.006.115 5.181.007 18.192 0 23.186.005h1.932c4.212.327 8.107-1.556 9.907-5.514 1.916-4.157 1.155-9.009-.405-13.001l.017 1.566c4.536-11.687 8.899-23.737 15.962-34.126l-1.904.885c3.534.246 7.077.423 10.634.447 22.276.251 45.955-5.61 52.943-29.632 8.683-31.763-8.128-64.624-29.299-87.528a.719.719 0 0 0-1.106.914c12.085 16.831 23.586 34.656 27.5 55.184 2.239 13.029 1.993 27.829-5.135 39.251-9.427 14.795-28.573 17.617-44.876 17.526-3.451-.027-6.909-.203-10.364-.447a2.13 2.13 0 0 0-1.879.886c-1.948 2.735-3.59 5.58-5.107 8.465-4.458 8.606-8.018 17.632-11.433 26.656a2.15 2.15 0 0 0 .017 1.567c.843 2.153 1.342 4.449 1.213 6.602-.121 2.156-.956 4.038-2.428 5.067-1.627 1.315-4.158.808-6.189.909-4.947.01-18.082-.003-23.186.005-1.913-.074-5.556.172-7.307-.205-4.023-.728-7.464-3.846-8.515-7.807-.115-.452-.4-1.297-.517-1.745-3.776-16.832-1.546-35.579-.526-52.05.178.277 14.122-90.027 14.055-88.795l8.816-31.447-2.253 1.517c16.805 1.903 35.255 3.752 51.989 5.346 5.79.471 11.592.834 17.431.881a.547.547 0 0 0 .122-1.078z"/><path fill="#F9F9F9" d="M134.954 416.36c5.491 1.555 10.96 1.632 15.482-.304 22.123 5.06 39.746-6.805 30.828-25.184 11.023-5.208 10.747-21.325-5.999-22.073-.028-.254-.05-.523-.078-.784-.191-2.445-.106-5.032.205-7.731.672-6.013 2.488-12.599 4.904-19.495l2.551-5.413 19.34-41.096-20.661-7.27c-5.504 4.614-10.988 9.348-16.337 14.195a414 414 0 0 0-10.542 9.851c-12.86 12.442-24.363 25.36-32.645 38.24-4.707 7.328-8.38 14.641-10.656 21.841-6.034 19.078 4.353 39.788 23.607 45.221z"/><path fill="#5F5F82" d="M134.955 416.361c5.491 1.555 10.96 1.633 15.482-.303 22.123 5.059 39.746-6.805 30.828-25.184 11.023-5.208 10.747-21.325-5.999-22.073a27 27 0 0 1-.134-1.732c-.015-.29-.021-.579-.028-.877-.007-.282-.015-.564-.015-.855 0-1.632.106-3.321.304-5.051-3.251-4.05-7.363-7.186-11.992-9.468-12.345-6.105-28.348-6.183-41.399-1.519-4.707 7.328-8.38 14.641-10.656 21.841-6.034 19.078 4.353 39.788 23.607 45.221z"/><path fill="#F9F9F9" d="M111.35 371.137c2.274-7.2 5.946-14.517 10.656-21.845 10.489-16.311 26.15-32.699 43.184-48.089 5.349-4.842 10.837-9.581 16.341-14.195l3.619 1.274c-4.987 4.205-9.954 8.507-14.804 12.898-17.035 15.39-32.695 31.778-43.184 48.089-4.71 7.328-8.382 14.645-10.656 21.845-6.035 19.076 4.349 39.787 23.607 45.224 1.78.503 3.559.849 5.304 1.024-3.308.392-6.88.012-10.46-1-19.258-5.437-29.641-26.148-23.607-45.224z" opacity=".4"/><path fill="#001F54" d="M163.307 362.51c.459 3.038 2.155 6.613 5.215 6.578.827-.006 1.625-.31 2.417-.529a14.7 14.7 0 0 1 4.246-.545 20 20 0 0 1-.056-.948 17 17 0 0 1-.028-.876c-.015-.282-.015-.565-.015-.855 0-1.633.106-3.322.304-5.052-3.251-4.049-7.363-7.186-11.992-9.468-.551 3.893-.692 7.801-.092 11.695z" opacity=".2"/><path fill="#001F54" d="M180.167 285.385c-25.915 21.893-58.674 50.744-70.473 83.197-3.543 9.511-3.22 20.454 1.032 29.706 5.009 11.225 15.852 19.658 28.113 21.351 4.079.565 8.48.343 12.535-1.394l-1.467.132c4.419.996 8.999 1.436 13.591 1.085 16.435-1.113 27.801-13.315 19.798-29.576l-1.069 3.035c5.987-2.702 10.243-9.629 8.388-16.305-1.71-6.71-8.982-9.895-15.249-9.999l2.078 1.957c-.494-4.842.15-9.896 1.269-14.848 3.369-15.19 10.894-28.885 18.06-42.582a.966.966 0 0 0-1.622-1.034c-3.189 4.19-6.095 8.594-8.754 13.16-5.39 9.156-9.512 19.123-11.882 29.502-1.195 5.219-1.959 10.672-1.421 16.262a2.165 2.165 0 0 0 2.049 1.955c2.557.12 5.07.649 7.107 1.798 4.238 2.202 5.514 7.381 3.138 11.425-1.116 1.999-2.942 3.611-5.093 4.618a2.254 2.254 0 0 0-1.08 3.013c6.565 13.326-2.932 22.07-16.072 22.936-4.041.291-8.166-.114-12.176-1.037a2.35 2.35 0 0 0-1.467.132c-3.012 1.281-6.536 1.506-9.995 1.005-10.62-1.489-20.042-8.78-24.418-18.575-4.745-10.238-3.561-21.3 1.136-31.332 4.507-10.321 10.944-19.64 18.007-28.439 14.36-17.715 31.302-33.107 48.661-47.897 2.049-1.778-.481-4.998-2.724-3.249z"/><path fill="#001F54" d="M181.31 367.708c-2.27-.309-4.585-.471-6.9-.324-2.308.146-4.626.625-6.707 1.587a.63.63 0 0 0-.307.833c.129.29.427.384.714.37 2.597-.039 5.106.473 7.641.879 1.543.049 3.086.197 4.554.761 2.961.914 4.06-3.545 1.005-4.106M182.065 388.045c-1.404.433-2.801.672-4.245.644-1.483-.104-3.027.323-4.176 1.251-1.59 1.207-2.484 3.372-2.053 5.328.349 1.71 1.711 3.544 3.557 3.701.78.07 1.132-.961.51-1.405-1.242-1.168-1.419-3.673.203-4.529a2.12 2.12 0 0 1 1.282-.269c2.109.272 4.329.034 6.296-.709 2.532-1.01 1.238-4.769-1.376-4.01z"/><path fill="#001F54" d="M167.574 410.645c-2.444 2.207-6.363 1.545-9.103 1.082-2.88-.487-3.731-1.343-6.212-1.111-1.635.152-3.133.943-4.711 1.398-4.93 1.421-10.136-.504-14.902-2.403-2.24-.893-4.586-1.86-6.086-3.75-1.5-1.888-1.75-4.999.125-6.515 1.128-.913 2.692-1.031 4.141-.988 8.89.26 17.766 4.996 26.324 2.573 2.617-.741 4.18-2.138 6.759-1.56 2.187.49 4.951 2.3 5.532 5.376.398 2.103-.289 4.473-1.868 5.898z" opacity=".2"/><path fill="#001F54" d="M177.012 358.919c-8.613-9.872-22.171-13.992-34.883-13.684a.773.773 0 0 0-.039 1.543c9.132.57 18.206 2.993 25.423 8.62a35.7 35.7 0 0 1 6.259 6.255c1.844 2.229 5.135-.523 3.24-2.734"/></g></svg>