<svg xmlns="http://www.w3.org/2000/svg" width="105" height="24" fill="none"><g clip-path="url(#a)"><mask id="b" width="105" height="24" x="0" y="0" maskUnits="userSpaceOnUse" style="mask-type:luminance"><path fill="#fff" d="M104.39 0H0v24h104.39z"/></mask><g mask="url(#b)"><mask id="c" width="105" height="24" x="0" y="0" maskUnits="userSpaceOnUse" style="mask-type:luminance"><path fill="#fff" d="M104.296 0H0v23.832h104.296z"/></mask><g mask="url(#c)"><path fill="#21325B" d="M30.78 7.795v3.277h3.98v1.348h-3.98v3.353h4.44v1.424h-6.186V6.387h6.185v1.41zm10.382 7.885v1.516H40.09q-1.348 0-2.045-.65-.696-.651-.696-2.166v-4.135h-1.21V8.76h1.21V6.662h1.76V8.76h2.037v1.485H39.11v4.165q0 .72.268.995.267.276.941.275zm6.355-7.058q1.47 0 2.358.95t.888 2.71v4.915h-1.746v-4.731q0-1.133-.582-1.754a2.08 2.08 0 0 0-1.592-.62 2.19 2.19 0 0 0-1.67.666q-.627.666-.627 1.953v4.486H42.8V5.866h1.746v4.747a2.83 2.83 0 0 1 1.133-1.47 3.3 3.3 0 0 1 1.837-.521m13.122 3.95a4 4 0 0 1-.06.75h-6.493q.045 1.303.72 1.93c.452.42 1.051.646 1.668.628a2.43 2.43 0 0 0 1.478-.444c.393-.28.66-.704.742-1.18h1.869a3.6 3.6 0 0 1-.705 1.578 3.64 3.64 0 0 1-1.393 1.08c-.603.266-1.256.4-1.914.39a4.4 4.4 0 0 1-2.166-.52 3.7 3.7 0 0 1-1.478-1.501 4.75 4.75 0 0 1-.536-2.312 4.7 4.7 0 0 1 .536-2.297 3.7 3.7 0 0 1 1.478-1.501 4.4 4.4 0 0 1 2.166-.52c.754-.018 1.5.159 2.166.512.6.324 1.093.813 1.424 1.409.336.612.507 1.3.498 1.999m-1.76-.045a2.6 2.6 0 0 0-.284-1.386 1.97 1.97 0 0 0-.857-.826 2.65 2.65 0 0 0-1.187-.268 2.45 2.45 0 0 0-1.715.627q-.69.63-.75 1.854zm5.19-2.113a3.25 3.25 0 0 1 1.225-1.31 3.5 3.5 0 0 1 1.837-.482v1.899h-.52q-1.149 0-1.846.559-.696.558-.695 1.845v4.273h-1.745V8.76h1.745zm7.135-1.761q1.486 0 2.38.758c.605.517.995 1.24 1.096 2.029h-1.654a1.79 1.79 0 0 0-.59-1.11 1.88 1.88 0 0 0-1.278-.421 1.5 1.5 0 0 0-1.018.314 1.07 1.07 0 0 0-.36.85.84.84 0 0 0 .26.643c.188.172.41.302.651.383q.547.182 1.11.306c.633.143 1.54.445 1.54.445s.73.395 1.01.727c.299.386.448.867.42 1.355a2.11 2.11 0 0 1-.803 1.715q-.804.659-2.166.659-1.577 0-2.55-.736a3.03 3.03 0 0 1-1.17-2.051h1.7a1.6 1.6 0 0 0 .612 1.117c.406.302.904.454 1.409.43.36.02.713-.097.988-.33a1.08 1.08 0 0 0 .359-.836.92.92 0 0 0-.276-.705 1.9 1.9 0 0 0-.689-.405 10 10 0 0 0-1.133-.299 13 13 0 0 1-1.493-.43 2.3 2.3 0 0 1-.98-.696 1.97 1.97 0 0 1-.406-1.31 2.15 2.15 0 0 1 .804-1.737q.804-.666 2.228-.665m9.065 0q1.64 0 2.71.865a3.73 3.73 0 0 1 1.333 2.35h-1.854a1.98 1.98 0 0 0-.743-1.248 2.36 2.36 0 0 0-1.477-.452 2.22 2.22 0 0 0-1.685.712q-.673.711-.673 2.09 0 1.378.673 2.098a2.21 2.21 0 0 0 1.685.72c.53.02 1.053-.142 1.48-.459.395-.31.66-.759.742-1.256h1.853a3.76 3.76 0 0 1-1.332 2.359q-1.072.872-2.71.872a4.4 4.4 0 0 1-2.166-.52 3.7 3.7 0 0 1-1.478-1.5 4.75 4.75 0 0 1-.537-2.313 4.7 4.7 0 0 1 .536-2.297 3.7 3.7 0 0 1 1.477-1.501 4.4 4.4 0 0 1 2.167-.52m9.111 0a3.34 3.34 0 0 1 1.96.566c.532.365.935.891 1.149 1.5V8.76h1.745v8.438H92.49v-1.96a3.05 3.05 0 0 1-1.149 1.5 3.34 3.34 0 0 1-1.96.567 3.74 3.74 0 0 1-1.967-.521 3.56 3.56 0 0 1-1.355-1.5 5.1 5.1 0 0 1-.49-2.313c-.019-.793.149-1.58.49-2.297a3.56 3.56 0 0 1 1.355-1.5 3.74 3.74 0 0 1 1.968-.52m.536 1.531a2.43 2.43 0 0 0-1.86.743q-.697.742-.697 2.044t.697 2.044a2.43 2.43 0 0 0 1.86.743c.463.008.918-.111 1.318-.344.39-.233.709-.57.919-.973.233-.454.348-.96.337-1.47a3.1 3.1 0 0 0-.337-1.462 2.44 2.44 0 0 0-.92-.98 2.54 2.54 0 0 0-1.316-.345m11.133-1.561q1.47 0 2.358.95.888.948.888 2.71v4.914h-1.746v-4.731q0-1.133-.582-1.754a2.08 2.08 0 0 0-1.592-.62 2.18 2.18 0 0 0-1.67.666q-.627.666-.627 1.953v4.486h-1.746V8.76h1.746v1.853a2.83 2.83 0 0 1 1.133-1.47 3.3 3.3 0 0 1 1.838-.521zM5.032 11.398a1.006 1.006 0 0 1 1.011-1.006l1.676.006a1.01 1.01 0 0 1 1.008 1.007v6.338c.189-.056.43-.116.696-.178a.84.84 0 0 0 .647-.817V8.886a1.01 1.01 0 0 1 1.008-1.008h1.68a1.01 1.01 0 0 1 1.007 1.008v7.296s.42-.17.83-.343a.84.84 0 0 0 .514-.774V6.367a1.01 1.01 0 0 1 1.007-1.007h1.68a1.01 1.01 0 0 1 1.007 1.007v7.163c1.456-1.055 2.932-2.324 4.102-3.85a1.69 1.69 0 0 0 .258-1.58 11.862 11.862 0 1 0-21.49 9.802 1.5 1.5 0 0 0 1.432.742q.477-.041 1.183-.123a.84.84 0 0 0 .744-.833z"/><path fill="#979695" d="M4.996 21.563a11.866 11.866 0 0 0 18.846-9.598c0-.273-.013-.543-.031-.812-4.336 6.466-12.34 9.489-18.815 10.41"/></g></g></g><defs><clipPath id="a"><path fill="#fff" d="M0 0h104.39v24H0z"/></clipPath></defs></svg>