<svg xmlns="http://www.w3.org/2000/svg" width="433" height="600" fill="none"><path fill="#C4612B" d="M58.108 379.626c12.468 6.116 16.248 14.952 16.533 20.73.226 4.575-.645 9.141-5.13 13.229-4.727 4.31-14.99 8.172-26.491 5.706-4.692-1.006-10.6-2.699-17.576-.268-1.006-1.329-.526-3.267.731-5.402-3.683-1.398-8.134-2.561-15.219-2.882-.072-.005 1.152-19.314 28.41-31.422-1.316-4.047.592-6.912 4.048-8.051 3.263 6.806 6.333 4.258 14.694 8.358z"/><path fill="#C4612B" d="M69.509 413.583c-4.724 4.308-14.988 8.175-26.485 5.706-4.68-.998-10.564-2.691-17.512-.292-.024.005-.054.015-.072.02a2.7 2.7 0 0 1-.356-.643c-.227-.615-.227-1.315-.058-2.077.195-.83.602-1.736 1.153-2.676-3.686-1.396-8.137-2.566-15.219-2.884-.005-.02.009-.428.126-1.144.015-.118.043-.247.07-.392q.131-.72.39-1.722c.039-.133.072-.274.115-.42.092-.303.186-.621.295-.964.046-.15.101-.306.157-.461.362-1.06.834-2.24 1.447-3.521 3.204-6.674 10.29-15.897 25.809-22.8-1.313-4.045.593-6.909 4.05-8.052 3.262 6.812 6.33 4.262 14.697 8.362 10.317 5.068 14.685 11.989 16.04 17.497l.01.013c.283 1.144.437 2.228.481 3.222.222 4.573-.645 9.139-5.132 13.226z"/><path fill="#5F5F82" d="M69.509 413.583c-4.724 4.308-14.988 8.175-26.485 5.706-4.68-.998-10.564-2.691-17.512-.292-.024.005-.054.015-.072.02a2.7 2.7 0 0 1-.356-.643c-.227-.615-.227-1.315-.058-2.077.195-.83.602-1.736 1.153-2.676-3.686-1.396-8.137-2.566-15.219-2.884-.005-.02.009-.428.126-1.144.015-.118.043-.247.07-.392q.131-.72.39-1.722c.039-.133.072-.274.115-.42.092-.303.186-.621.295-.964.046-.15.101-.306.157-.461.362-1.06.834-2.24 1.447-3.521 3.204-6.674 10.29-15.897 25.809-22.8-.038-.119-.075-.231-.106-.347-.428-1.494-.4-2.817-.016-3.944l.086-.236c.62-1.57 1.952-2.724 3.742-3.402q.17-.064.347-.123c3.261 6.811 6.329 4.262 14.696 8.362 10.317 5.068 14.685 11.988 16.04 17.497l.01.012a16.6 16.6 0 0 1 .481 3.223 22 22 0 0 1-.062 3.279c-.339 3.451-1.661 6.842-5.072 9.947z"/><path fill="#fff" d="M39.258 378.967q-.027.195-.032.412c.047-.019.096-.045.143-.064-.042-.116-.074-.235-.111-.348M74.58 403.638c-1.1-1.826-2.147-3.243-3.053-5.317-2.182-5.01-7.132-11.225-13.268-14.234-7.766-3.817-11.269-1.617-16.154-7.274-2.044.67-2.666.572-2.845 2.155-.428-1.494-.4-2.817-.015-3.943l.085-.237c.62-1.57 1.952-2.724 3.742-3.402.111-.036.223-.077.345-.116l.002-.007c3.261 6.811 6.33 4.262 14.696 8.362 10.318 5.068 14.686 11.989 16.04 17.497l.01.013a16.5 16.5 0 0 1 .482 3.222 22 22 0 0 1-.063 3.28zM13.558 402.112c-2.405 5.005-2.633 8.564-2.607 8.626.428.019.843.046 1.253.068a32 32 0 0 1 1.898-4.955c3.209-6.675 10.284-15.897 25.813-22.794-.474-1.456-.729-2.673-.692-3.68-15.424 6.892-22.469 16.087-25.663 22.733z" opacity=".4"/><path fill="#515151" d="M69.509 413.583c-4.724 4.308-14.988 8.175-26.485 5.706-4.68-.998-10.564-2.691-17.511-.292-.025.005-.055.015-.073.02a2.6 2.6 0 0 1-.356-.643c-.227-.615-.234-1.317-.058-2.077.195-.83.602-1.736 1.154-2.676-3.687-1.396-8.138-2.566-15.22-2.884-.005-.02.009-.428.126-1.144.015-.118.044-.247.07-.392q.131-.72.391-1.722c.038-.133.071-.274.114-.42.092-.303.186-.621.295-.964.046-.15.101-.306.157-.461.362-1.06.834-2.24 1.447-3.521-.144 3.438 1.42 4.943 4.81 4.641 6.782-.603 12.46-2.904 19.046-1.478-2.568 4.245 6.675 6.623 9.356 5.993 10.514-2.467 12.245-13.681 17.079-16.257 6.256-3.332 10.304 2.118 10.31 2.12a16.5 16.5 0 0 1 .482 3.222c.221 4.573-.646 9.139-5.133 13.227z"/><path fill="#001F54" d="M59.742 421.514c-5.065 1.357-11.017 1.725-17.28.385l-1.274-.281c-4.319-.959-9.214-2.046-14.866-.076a2.675 2.675 0 0 1-3-.906c-.836-1.102-1.5-2.855-.751-5.429-2.762-.83-6.392-1.561-11.734-1.803a2.67 2.67 0 0 1-2.5-2.17c-.035-.191.407-20.3 28-33.452-.383-4.139 1.935-7.623 6.247-9.044 1.282-.404 2.656.171 3.237 1.378 1.553 3.24 2.605 3.517 5.728 4.341 1.996.526 4.48 1.182 7.737 2.779 16.055 7.875 17.853 19.588 18.022 22.991.2 4.052-.203 10.05-5.996 15.332-2.704 2.465-6.73 4.662-11.565 5.958zm-31.59-5.963c5.584-1.049 10.456.034 14.192.864l1.235.272c10.334 2.215 19.756-1.074 24.137-5.071 3.23-2.945 4.506-6.273 4.265-11.13-.131-2.666-1.608-11.877-15.046-18.467-2.78-1.363-4.89-1.92-6.748-2.411-2.912-.769-5.496-1.45-7.784-4.76-.851.861-1.016 2.067-.503 3.644a2.664 2.664 0 0 1-1.453 3.259c-19.845 8.816-25.037 21.263-26.375 26.521 6.27.546 10.23 1.787 13.048 2.857a2.666 2.666 0 0 1 1.353 3.84q-.181.31-.32.58z"/><path fill="#001F54" d="M41.606 377.873c1.12 3.22 2.228 6.594 4.216 9.408-3.279-1.589-5.99-4.104-8.697-6.521l4.48-2.889zM24.122 411.921c3.774-2.935 7.935-5.864 12.764-6.432-3.913 2.117-6.51 6.095-8.659 9.833z"/><path fill="#fff" d="M128.052 416.993c-2.904 11.368-14.898 29.98-31.58 22.025-15.56-9.07-.65-32.589-19.675-42.274-7.772-3.603-13.91-.471-14.007 4.243-.123 5.909 7.346 5.754 9.154 12.978 2.549 11.179-1.056 26.73 10.86 38.661 13.319 13.858 44.253 14.754 60.386-10.293l-15.136-25.341z"/><path fill="#fff" d="M64.373 405.022c2.258 2.442 6.303 3.876 7.569 8.939 2.55 11.177-1.06 26.726 10.866 38.66 13.316 13.856 44.25 14.754 60.381-10.293l-15.134-25.343c-1.957 7.648-8.018 18.575-16.857 22.485-4.303 1.905-9.265 2.146-14.729-.458-15.555-9.071-.649-32.587-19.67-42.271-7.775-3.605-13.912-.47-14.009 4.237-.038 1.777.605 2.999 1.583 4.044"/><path fill="#E8E8E8" d="M71.942 413.966c2.55 11.176-1.06 26.726 10.866 38.659 13.316 13.857 44.25 14.754 60.381-10.292l-15.134-25.343c-1.957 7.648-8.018 18.575-16.857 22.485.224 2.551 1.007 5.878 3.23 9.159 3.707 5.47-15.56 12.658-28.388.759-13.822-12.829-2.596-39.541-18.438-44.951-1.2-.408-2.267-.183-3.228.58 2.258 2.442 6.303 3.876 7.569 8.94z"/><path fill="#001F54" d="M119.163 463.444a44.3 44.3 0 0 1-7.206 1.3c-11.963 1.16-23.871-2.777-31.075-10.273-9.142-9.152-9.814-20.08-10.406-29.721-.226-3.686-.442-7.168-1.132-10.194-.66-2.635-2.34-3.929-4.286-5.431-2.238-1.726-5.025-3.875-4.936-8.196.057-2.758 1.507-5.224 3.974-6.766 3.596-2.246 8.76-2.185 13.818.161 11.437 5.821 12.143 15.941 12.765 24.872.52 7.434.967 13.861 7.037 17.463 4.375 2.056 8.651 2.137 12.707.236 7.3-3.418 13.093-12.932 15.041-20.563l5.164 1.318c-2.188 8.571-8.737 19.759-17.945 24.07-5.527 2.584-11.527 2.482-17.363-.301a3 3 0 0 1-.195-.103c-8.597-5.011-9.218-13.905-9.765-21.751-.6-8.608-1.12-16.042-9.777-20.451-3.935-1.822-7.07-1.425-8.665-.432-.657.41-1.443 1.151-1.468 2.354-.03 1.499.718 2.212 2.862 3.865 2.15 1.657 5.093 3.926 6.214 8.411.799 3.505 1.028 7.196 1.268 11.105.562 9.125 1.141 18.557 8.894 26.32 6.138 6.386 16.375 9.705 26.755 8.696 12.078-1.169 22.554-7.758 29.505-18.549l4.481 2.887c-6.441 10.001-15.601 16.811-26.266 19.668z"/><path fill="#001F54" d="M243.321 600c104.653 0 189.49-9.666 189.49-21.589s-84.837-21.589-189.49-21.589c-104.652 0-189.49 9.666-189.49 21.589S138.67 600 243.321 600" opacity=".3"/><path fill="#001F54" d="M286.494 569.434c-.927 0-1.85-.367-2.537-1.094a3.486 3.486 0 0 1 .141-4.931 3.494 3.494 0 0 1 4.938.137 3.484 3.484 0 0 1-.138 4.928l-.007.008a3.48 3.48 0 0 1-2.395.952z"/><path fill="#5F5F82" d="m194.689 565.944-.727 5.592a14.754 14.754 0 0 1-12.946 12.742c-15.751 1.809-44.158 4.281-61.986 1.233-11.248-1.919-18.422-6.044-22.932-10.079-5.032-4.495-6.358-11.849-3.222-17.828l11.145-17.024s47.23-12.614 90.668 25.364"/><path fill="#fff" d="m98.354 560.204 13.347-20.959c-4.869.584-7.677 1.332-7.677 1.332L92.879 557.6c-3.137 5.979-1.809 13.333 3.222 17.828a34 34 0 0 0 3.873 2.986c-4.22-5.088-4.564-11.716-1.618-18.21z" opacity=".64"/><path fill="#5F5F82" d="M385.085 575.432c-4.51 4.037-11.683 8.159-22.924 10.079-17.836 3.048-46.243.576-61.994-1.233a14.74 14.74 0 0 1-12.938-12.742l-.727-5.601c44.236-42.687 95.574-18.975 96.427-18.58l.008.008 5.37 10.237c3.137 5.979 1.817 13.333-3.222 17.828z"/><path fill="#fff" d="m388.31 557.601-5.37-10.237-.008-.008c-.17-.078-2.347-1.083-6.067-2.302l4.356 11.681c2.741 7.355 2.114 16.165-1.391 22.556a35 35 0 0 0 5.258-3.861c5.04-4.495 6.358-11.85 3.222-17.829" opacity=".64"/><path fill="#fff" d="M382.931 547.357c-.853-.395-52.192-24.109-96.428 18.58l-4.914-37.641c-23.651-8.934-40.461-28.674-44.923-34.33-8.16 13.909-21.068 28.39-39.719 35.01 0 0-3.846 19.432-2.259 36.969-43.438-37.98-90.668-25.364-90.668-25.364s-2.875-71.924 14.393-101.009c13.784-23.231 234.664 11.636 234.664 11.636l24.655 86.236 5.197 9.913z"/><path fill="#001F54" d="M387.213 573.084a15 15 0 0 1-2.125 2.346c-4.51 4.037-11.684 8.16-22.925 10.079-17.836 3.049-46.243.577-61.993-1.232a14.744 14.744 0 0 1-12.939-12.742l-.727-5.602-4.914-37.64c-23.651-8.935-40.461-28.675-44.923-34.331-8.16 13.91-21.068 28.39-39.719 35.01 0 0-3.846 19.433-2.259 36.969l-.727 5.592a14.756 14.756 0 0 1-12.946 12.742c-15.751 1.809-44.158 4.281-61.986 1.232-11.248-1.919-18.422-6.043-22.932-10.078a14.73 14.73 0 0 1-4.802-12.798c5.199 6.746 14.448 13.57 30.674 14.076 32.663 1.019 54.284-.506 56.701-10.768s1.691-44.417 1.691-44.417 40.657-34.646-6.595-49.933c-21.124-6.834-43.225-13.341-61.22-18.445 1.643-5.103 3.579-9.716 5.871-13.579 12.022-20.271 181.652 3.68 224.759 10.126l-52.104 18.682s-28.437 20.987 3.72 49.085l3.721 21.335c4.311 24.721 26.144 42.737 51.218 41.758 10.253-.401 22.608-2.602 37.483-7.473z" opacity=".3"/><path fill="#001F54" d="M140.06 590.429c-7.812 0-15.338-.408-21.619-1.482-10.224-1.746-18.525-5.418-24.671-10.918a18.196 18.196 0 0 1-3.986-22.051q.078-.149.17-.29l11.145-17.023a3.5 3.5 0 0 1 2.019-1.459c2.003-.534 49.537-12.651 93.865 26.11a3.49 3.49 0 0 1 1.164 3.077l-.727 5.592a18.214 18.214 0 0 1-16.008 15.758c-10.289 1.181-26.347 2.688-41.354 2.688zm-44.167-31.068a11.23 11.23 0 0 0 2.53 13.465c5.155 4.613 12.284 7.723 21.193 9.241 17.493 2.994 45.726.496 61.002-1.259a11.244 11.244 0 0 0 9.884-9.728l.483-3.724c-37.206-31.503-77.296-25.23-84.819-23.689l-10.273 15.692zM356.163 586.986c-2.596-9.327-6.677-18.597-12.576-26.358-1.19-1.499.922-3.39 2.276-2.031 7.389 7.511 12.832 16.548 16.939 26.245 1.679 4.665-5.267 6.921-6.641 2.144z"/><path fill="#001F54" d="M107.455 582.031c3.201-8.886 7.351-17.368 13.269-24.744 1.184-1.446 3.443.119 2.505 1.733-4.482 7.573-7.279 16.233-9.026 24.799-1.114 4.825-8.169 2.968-6.748-1.79zM341.127 590.43c-15.01 0-31.066-1.505-41.355-2.688a18.21 18.21 0 0 1-16.001-15.756l-.727-5.603a3.5 3.5 0 0 1 1.038-2.961c45.469-43.877 98.095-20.263 100.316-19.234q.517.239.931.629c.28.265.522.582.702.923l5.37 10.238a18.19 18.19 0 0 1-3.985 22.05c-6.147 5.5-14.444 9.174-24.664 10.918-6.281 1.074-13.813 1.483-21.623 1.483zm-50.936-23.185.5 3.842a11.24 11.24 0 0 0 9.876 9.724c15.274 1.754 43.51 4.251 61.008 1.259 8.905-1.52 16.033-4.63 21.184-9.241l.004-.004a11.22 11.22 0 0 0 2.455-13.604l-4.804-9.157c-7.492-3.129-51.335-19.097-90.223 17.179z"/><path fill="#001F54" d="M194.689 569.431a3.5 3.5 0 0 1-2.299-.862c-41.436-36.229-87.019-24.741-87.477-24.62a3.492 3.492 0 0 1-4.382-3.234c-.118-2.978-2.715-73.296 14.879-102.93 2.677-4.512 10.266-9.691 45.453-9.691h.031c20.152 0 47.195 1.719 80.373 5.107 56.387 5.756 111.801 14.467 112.354 14.555a3.49 3.49 0 0 1 2.811 2.487l24.555 85.893 5.031 9.596a3.49 3.49 0 0 1-4.556 4.787c-2.041-.944-50.471-22.672-92.538 17.924a3.48 3.48 0 0 1-3.575.782 3.49 3.49 0 0 1-2.307-2.843l-4.647-35.597c-19.587-7.988-34.342-22.835-41.315-30.865-7.444 11.417-19.366 24.733-37.048 31.626-.883 5.231-3.108 20.375-1.867 34.081a3.49 3.49 0 0 1-3.475 3.802zm41.975-78.956a3.49 3.49 0 0 1 2.739 1.328c4.438 5.624 20.685 24.641 43.418 33.228a3.49 3.49 0 0 1 2.227 2.812l4.052 31.028c33.745-28.701 70.22-22.733 86.568-17.849l-1.028-1.961a3.6 3.6 0 0 1-.266-.662l-24.04-84.09c-10.828-1.668-59.941-9.077-109.801-14.167-103.592-10.573-117.368-1.75-119.121 1.205-14.215 23.945-14.289 79.397-14.011 94.963 12.185-2.097 48.103-5.17 83.419 21.947-.18-15.176 2.567-29.271 2.705-29.964a3.48 3.48 0 0 1 2.255-2.61c19.032-6.755 31.101-21.937 37.875-33.485a3.49 3.49 0 0 1 3.009-1.723"/><path fill="#fff" d="M235.526 422.232c59.889 0 108.438-39.651 108.438-88.562s-48.549-88.561-108.438-88.561-108.439 39.65-108.439 88.561 48.55 88.562 108.439 88.562"/><path fill="#5F5F82" d="M396.81 347.015c-2.125 20.175-21.344 42.325-39.59 55.739.757 10.584 1.207 22.039 1.224 34.416v.964s-38.612 33.461-122.803 33.461h-.15c-84.287-.04-122.922-33.572-122.922-33.572v-.83c.031-12.393.473-23.872 1.248-34.472-12.292-9.037-25.017-22.046-32.663-35.744-3.642-6.525-6.13-13.216-6.857-19.7-.347-3.049-.307-6.059.189-8.982 5.584-33.011 37.293-53.249 37.293-53.249.964.317 2.322.783 4.085 1.439 4.93 1.824 13.019 5.118 24.519 10.695 20.452 9.922 51.709 27.087 95.155 56.093 43.469-28.976 74.736-46.092 95.203-55.998 15.751-7.623 25.097-10.964 28.699-12.133 2.299 1.509 31.786 21.438 37.151 53.155.482 2.844.538 5.758.221 8.72z"/><path fill="#fff" d="M186.049 373.048c13.666 3.715 53.506 12.271 97.326.46 1.301-.351 2.129 1.347 1.045 2.146-15.373 11.33-55.724 37.919-99.491-.515-.967-.849-.122-2.429 1.12-2.091" opacity=".4"/><path fill="#fff" d="M115.862 286.482c-10.142 8.414-24.551 23.415-33.508 45.999-4.59 11.565-4.053 23.548-1.2 34.497-3.642-6.525-6.13-13.216-6.857-19.7-.347-3.049-.307-6.059.189-8.982 5.584-33.011 37.293-53.248 37.293-53.248.964.316 2.322.782 4.085 1.438zM355.211 286.482c10.144 8.414 24.551 23.415 33.508 45.999 4.59 11.565 4.052 23.548 1.2 34.497 3.642-6.525 6.13-13.216 6.857-19.7.347-3.049.307-6.059-.189-8.982-5.584-33.011-37.293-53.248-37.293-53.248-.964.316-2.322.782-4.085 1.438z" opacity=".64"/><path fill="#001F54" d="M205.781 404.8c1.845 10.075-1.663 20.758-9.058 27.947-7.381 7.221-18.471 9.766-28.277 7.816a1.014 1.014 0 0 1 0-1.994c4.615-.929 8.993-2.064 12.983-3.775 8.089-3.369 13.842-9.558 17.601-17.393 1.927-3.89 3.436-8.177 4.756-12.603.21-1.05 1.793-1.057 1.994 0z"/><path fill="#5F5F82" d="M361.143 284.61s-.561.15-1.706.528c-3.601 1.17-12.946 4.51-28.699 12.134-20.466 9.905-51.731 27.024-95.202 55.998-43.447-29.007-74.704-46.173-95.156-56.094-15.617-7.575-24.946-10.931-28.603-12.133a37 37 0 0 0-1.794-.553s.086-19.977 31.361-10.318c36.984 11.43 94.199 56.75 94.199 56.757.008-.007 57.263-45.27 94.247-56.661 31.282-9.637 31.353 10.34 31.353 10.34z"/><path fill="#001F54" d="M235.535 344.168a3.5 3.5 0 0 1-1.939-.587c-44.806-29.917-76.252-34.295-94.741-43.265-15.594-7.567-24.895-10.882-28.169-11.958a35 35 0 0 0-1.61-.498 3.5 3.5 0 0 1-2.585-3.385c0-.318.111-7.849 6.67-12.666 6.355-4.668 16.182-4.994 29.212-.971 15.667 4.842 36.489 15.98 61.889 33.102a636 636 0 0 1 23.848 16.926c3.47 2.585 5.837 4.35 7.451 5.617 11.151-8.646 59.711-45.236 93.2-55.551 13.032-4.014 22.857-3.68 29.212.992 6.556 4.821 6.657 12.353 6.659 12.669a3.49 3.49 0 0 1-2.584 3.383c-.057.015-.557.155-1.514.471-3.263 1.059-12.504 4.331-28.276 11.962-18.54 8.972-50.036 13.339-94.789 43.17a3.5 3.5 0 0 1-1.934.585zm-121.582-62.074c4.651 1.589 13.751 5.056 27.949 11.945 18.418 8.934 49.524 13.112 93.635 42.448 35.404-23.509 66.914-29.401 93.68-42.356 14.564-7.05 23.804-10.503 27.959-11.918-.485-1.466-1.458-3.312-3.417-4.722-4.426-3.188-12.359-3.148-22.943.112-35.996 11.086-92.17 55.321-93.099 56.055a3.49 3.49 0 0 1-4.382-.023c-1.232-.98-56.994-44.991-93.024-56.127-10.581-3.268-18.515-3.314-22.943-.13-1.958 1.408-2.933 3.251-3.419 4.714z"/><path fill="#fff" d="M354.255 460.352c-38.992 33.826-118.774 32.065-118.774 32.065s-79.774 1.69-118.743-32.173c-6.052-5.27-7.891-14.574-4.266-22.039q.048-.096.096-.182s38.634 33.534 122.921 33.572c84.294.04 122.954-33.461 122.954-33.461l.095.189c3.617 7.465 1.778 16.77-4.281 22.031z"/><path fill="#001F54" d="M112.473 447.347q.048-.096.096-.181s38.635 33.533 122.921 33.571c84.294.04 122.954-33.461 122.954-33.461l.095.189a18.3 18.3 0 0 1 1.278 3.589c1.021-4.165.668-8.711-1.278-12.729l-.095-.189s-38.66 33.501-122.954 33.461c-84.286-.04-122.921-33.572-122.921-33.572q-.048.086-.096.182c-1.951 4.019-2.306 8.569-1.284 12.74a18.3 18.3 0 0 1 1.284-3.598z" opacity=".3"/><path fill="#001F54" d="M238.03 495.927c-1.322 0-2.192-.013-2.55-.021-4.266.084-81.761 1.097-121.031-33.029-7.265-6.327-9.415-17.344-5.115-26.198.086-.172.145-.286.204-.389a3.49 3.49 0 0 1 5.315-.905c.374.323 38.855 32.681 120.636 32.719h.145c81.698 0 120.146-32.288 120.525-32.614a3.5 3.5 0 0 1 2.961-.778 3.49 3.49 0 0 1 2.436 1.85l.1.199c4.315 8.9 2.155 19.913-5.115 26.226-35.998 31.229-104.067 32.94-118.513 32.94zm-2.55-7.001h.076c.786.017 78.897 1.324 116.41-31.21 3.814-3.31 5.54-8.764 4.699-13.849-12.029 8.488-50.797 31.214-121.027 31.214h-.153c-70.329-.033-109.129-22.825-121.154-31.326-.84 5.073.883 10.535 4.697 13.854 37.513 32.601 115.591 31.338 116.377 31.317zM235.536 344.739a3.5 3.5 0 0 1-1.939-.588c-42.566-28.42-73.074-33.136-91.869-42.429-2.189 3.924-6.43 12.391-10.808 25.896a3.489 3.489 0 1 1-6.639-2.152c6.635-20.468 12.946-29.862 13.211-30.253a3.49 3.49 0 0 1 4.407-1.176c18.418 8.935 49.525 13.685 93.635 43.021 35.404-23.51 66.914-29.973 93.68-42.929a3.49 3.49 0 0 1 4.407 1.179c.265.389 6.547 9.758 13.154 30.16a3.49 3.49 0 1 1-6.637 2.148c-4.356-13.448-8.572-21.886-10.754-25.804-18.844 9.294-49.397 13.997-91.914 42.337a3.5 3.5 0 0 1-1.936.586z"/><path fill="#001F54" d="M235.637 475.084h-.148c-44.452-.021-74.557-9.455-89.479-28.039-12.605-15.699-9.209-31.931-9.059-32.614a3.5 3.5 0 0 1 1.267-2.003c33.207-25.82 34.214-47.363 34.22-47.577a3.52 3.52 0 0 1 1.589-2.838 3.49 3.49 0 0 1 3.226-.315c13.538 5.561 33.146 8.387 58.28 8.4h.16c25.059 0 44.612-2.806 58.126-8.345a3.48 3.48 0 0 1 3.247.319 3.49 3.49 0 0 1 1.565 2.863c.006.189.994 21.732 34.182 47.585a3.5 3.5 0 0 1 1.263 2.003c.15.683 3.537 16.918-9.083 32.606-14.921 18.547-44.988 27.955-89.354 27.955zm-92.052-57.997c-.443 3.567-.929 14.734 7.976 25.724 13.391 16.528 42.412 25.275 83.932 25.294h.139c41.445 0 70.422-8.717 83.811-25.213 8.907-10.976 8.436-22.133 7.995-25.719-26.218-20.767-33.228-39.078-35.103-47.409-14.049 4.853-33.071 7.311-56.644 7.311h-.162c-23.649-.012-42.725-2.486-56.801-7.366-1.881 8.331-8.905 26.634-35.141 47.376z"/><path fill="#001F54" d="M267.251 404.832c3.548 12.527 9.701 24.943 22.334 30.018 3.99 1.717 8.37 2.857 12.987 3.79 1.066.193 1.066 1.813-.008 1.992-15.703 3.137-31.551-5.292-36.298-20.942a33.5 33.5 0 0 1-1.419-7.392c-.177-2.498-.124-4.957.412-7.466.118-.549.658-.9 1.208-.782.408.088.696.403.786.784zM140.36 418.666h-.1c-7.045-.199-17.439-4.985-28.512-13.136a3.49 3.49 0 0 1 4.137-5.62c9.662 7.112 19.077 11.626 24.57 11.781a3.49 3.49 0 0 1-.095 6.977zM175.929 368.412a3.49 3.49 0 0 1-3.039-1.77c-11.695-20.665-31.732-31.431-46.483-36.824a3.49 3.49 0 1 1 2.396-6.555c15.852 5.795 37.421 17.427 50.162 39.939a3.49 3.49 0 0 1-3.034 5.21z"/><path fill="#001F54" d="M114.853 322.806c4.634-.235 9.302.005 13.948.461a3.563 3.563 0 0 1 3.184 3.9c-.321 2.77-3.234 3.964-5.58 2.654-3.911-1.591-8.028-3.049-12.103-4.075-1.807-.51-1.296-3.068.551-2.94"/><path fill="#001F54" d="M235.64 475.085h-.152c-84.615-.04-123.589-33.022-125.207-34.426a3.5 3.5 0 0 1-1.202-2.636c.008-11.558.385-22.867 1.122-33.644-22.499-17.058-43.006-43.905-39.156-66.665 5.777-34.145 37.509-54.748 38.856-55.608a3.5 3.5 0 0 1 2.965-.374c4.233 1.391 13.637 4.838 29.039 12.309 18.418 8.934 49.524 12.158 93.634 41.495 35.405-23.51 66.914-28.447 93.681-41.403 16.161-7.82 25.763-11.214 29.141-12.311a3.49 3.49 0 0 1 2.992.4c3.373 2.213 33.11 22.579 38.677 55.49 3.855 22.766-16.673 49.628-39.198 66.697.738 10.888 1.108 22.224 1.101 33.726a3.5 3.5 0 0 1-1.204 2.635c-1.618 1.402-40.571 34.313-125.087 34.313zM116.06 436.34c7.102 5.386 45.638 31.732 119.43 31.767h.145c73.7 0 112.201-26.275 119.315-31.658-.03-11.428-.438-22.673-1.213-33.444a3.49 3.49 0 0 1 1.414-3.062c20.703-15.217 41.424-40.817 37.997-61.065-4.588-27.133-28.208-45.554-34.254-49.873-4.207 1.457-12.969 4.796-26.633 11.41-18.54 8.972-50.036 12.385-94.789 42.216a3.49 3.49 0 0 1-3.873 0c-44.806-29.916-76.253-33.341-94.741-42.311-13.526-6.561-22.318-9.929-26.547-11.407-5.947 4.231-29.773 22.708-34.386 49.965-3.423 20.242 17.277 45.827 37.957 61.032a3.5 3.5 0 0 1 1.414 3.066c-.778 10.663-1.192 21.879-1.234 33.366z"/><path fill="#001F54" d="M330.713 418.666a3.488 3.488 0 0 1-.097-6.977c5.491-.155 14.89-4.657 24.534-11.748a3.489 3.489 0 1 1 4.135 5.622c-11.052 8.129-21.429 12.904-28.47 13.103zM359.434 288.626a3.47 3.47 0 0 1-1.933-.585l-.122-.082a3.49 3.49 0 0 1 3.831-5.832l.162.106a3.49 3.49 0 0 1-1.938 6.393M295.142 368.411a3.491 3.491 0 0 1-3.033-5.21c12.738-22.508 34.304-34.142 50.154-39.937a3.49 3.49 0 0 1 2.396 6.555c-14.747 5.393-34.783 16.159-46.476 36.82a3.49 3.49 0 0 1-3.039 1.77z"/><path fill="#001F54" d="M356.861 326.234c-4.377.915-8.809 2.335-13.027 3.89-5.044 1.549-6.793-6.046-1.572-6.855 4.783-.469 9.587-.712 14.36-.443 2.001.119 2.188 3.02.24 3.408z"/><path fill="#4C4C7F" d="M357.217 402.755c.757 10.585 1.207 22.039 1.224 34.417-46.163 32.837-119.01 34.361-122.803 34.424h-.15s-75.509-.702-122.922-34.401c.031-12.393.473-23.873 1.248-34.472-18.153-13.351-37.261-35.358-39.52-55.445 4.535 9.408 12.717 20.143 27.119 31.044 41.329 31.282 62.263 13.461 62.965 12.843l-.126.185c-12.788 18.611-4.676 44.387 16.598 51.955 32.797 11.668 75.148 11.749 108.941-.57 21.013-7.66 29.26-32.969 16.817-51.553l-.011-.017c.704.616 21.636 18.437 62.965-12.843 14.535-10.997 22.735-21.835 27.245-31.305-2.125 20.175-21.344 42.324-39.59 55.738" opacity=".3"/><path fill="#fff" d="M246.961 289.115c-.948-.015-1.903-.041-2.851-.064-2.787-.055-5.582-.086-8.361.017q-5.675.226-11.172.286h-.048c-23.721.239-44.791-1.896-62.803-6.61-40.889-10.654-65.996-34.551-70.535-73.927-1.713-14.827-.502-31.844 3.877-51.177.343-1.497.7-3.003 1.25-4.444 21.643-164.68 245.661-165.477 271.764-3.949.677 4.172 1.975 8.241 2.62 12.421 12.017 76.961-6.927 127.063-123.742 127.447z"/><path fill="#fff" d="M97.331 170.535c.34-1.496.7-3.003 1.248-4.439C120.22 1.409 344.243.616 370.347 162.14c.346 2.141.855 4.256 1.356 6.37a325 325 0 0 0-.993-6.846c-.651-4.179-1.946-8.248-2.621-12.424-26.102-161.524-250.128-160.729-271.768 3.956-.548 1.436-.91 2.943-1.248 4.439-5.636 24.869-6.01 45.898-1.69 63.364-1.59-14.66-.366-31.436 3.948-50.464" opacity=".6"/><path fill="#001F54" d="M246.961 265.483c-3.736-.074-7.483-.175-11.215-.04-84.439 3.044-138.215-19.205-144.639-73.863-7.4 71.92 48.923 100.969 144.639 97.517 3.732-.135 7.479-.035 11.215.04 105.205-.314 131.017-37.347 126.338-95.888-4.287 44.686-36.116 71.965-126.338 72.234" opacity=".2"/><path fill="#001F54" d="M220.94 293.351c-55.099 0-93.813-13-115.207-38.725-19.148-23.026-24.042-55.953-14.541-97.867.328-1.448.693-2.983 1.243-4.519 5.232-39.09 22.149-71.807 48.939-94.633 24.17-20.591 55.552-32.2 88.366-32.685 33.003-.485 65.002 10.27 90.104 30.29 27.849 22.212 45.893 54.507 52.176 93.399.309 1.908.759 3.806 1.237 5.815.506 2.138 1.031 4.349 1.388 6.63 7.181 46.027 2.339 75.981-15.7 97.124-19.891 23.314-56.517 34.734-111.966 34.916q-.05 0-.1-.002l-1.135-.025c-3.246-.073-6.605-.148-9.836-.02a379 379 0 0 1-14.966.303zm10.899-260.483q-.994 0-1.983.015c-56.708.839-118.771 38.527-129.587 120.837-.04.308-.116.611-.228.901-.46 1.201-.775 2.529-1.085 3.897-8.924 39.374-4.584 69.996 12.899 91.016 19.808 23.818 56.437 35.855 108.977 35.857 4.791 0 9.704-.1 14.76-.3 3.479-.136 6.963-.058 10.33.017l1.078.023c52.964-.18 87.598-10.687 105.885-32.122 16.398-19.218 20.682-47.199 13.89-90.727-.308-1.972-.775-3.939-1.268-6.018-.49-2.06-.995-4.191-1.35-6.384-13.098-81.049-75.539-117.01-132.319-117.01z"/><path fill="#001F54" d="M173.359 197.479c8.502 0 15.395-8.161 15.395-18.229s-6.893-18.228-15.395-18.228-15.394 8.161-15.394 18.228 6.892 18.229 15.394 18.229"/><path fill="#fff" d="M178.933 187.041c1.913 0 3.464-2.783 3.464-6.217s-1.551-6.216-3.464-6.216-3.464 2.783-3.464 6.216 1.551 6.217 3.464 6.217"/><path fill="#001F54" d="M286.411 197.479c8.502 0 15.394-8.161 15.394-18.229s-6.892-18.228-15.394-18.228-15.394 8.161-15.394 18.228 6.892 18.229 15.394 18.229"/><path fill="#fff" d="M280.838 187.041c1.913 0 3.464-2.783 3.464-6.217s-1.551-6.216-3.464-6.216-3.464 2.783-3.464 6.216 1.551 6.217 3.464 6.217"/><path fill="#FFD8BE" d="M346.233 272.081s-21.332 17.786-111.663 40.799c-17-1.757-61.512-16.1-109.154-40.799-17.523-9.958-32.528-35.036-22.702-49.344 8.896-7.937 47.122-31.86 124.769-31.86 79.556 0 127.52 17.341 136.408 25.278 15.167 23.561-17.658 55.926-17.658 55.926"/><path fill="#FFB6B8" d="M359.067 252.576c-.79 3.385-2.294 6.738-4.671 10.012-19.157 20.407-86.056 41.04-120.051 41.04-43.529-.585-102.721-23.809-120.045-41.038-2.376-3.274-3.881-6.622-4.67-10.012 22.082 22.234 79.706 35.563 124.715 36.169 45.008-.606 105.985-15.503 124.722-36.171M197.332 215.628c.478-1.718-2.007-3.814-5.549-4.682s-6.801-.179-7.279 1.539 2.007 3.814 5.55 4.682 6.801.179 7.278-1.539"/><path fill="#001F54" d="M176.816 212.988c-2.268-6.575 3.795-12.719 10.952-12.724 6.633-.028 12.54 3.76 15.599 8.992-2.769-1.261-5.337-2.424-7.928-3.292-7.942-2.889-16.005-1.509-18.623 7.024"/><path fill="#FFB6B8" d="M278.151 217.167c3.542-.868 6.027-2.964 5.549-4.682s-3.736-2.407-7.278-1.539c-3.543.868-6.027 2.964-5.55 4.682s3.737 2.407 7.279 1.539"/><path fill="#001F54" d="M291.385 212.988c-2.621-8.538-10.683-9.911-18.624-7.023-2.59.868-5.158 2.03-7.927 3.292 3.059-5.233 8.966-9.02 15.598-8.993 7.156.002 13.223 6.153 10.953 12.724"/><path fill="#5F5F82" d="M388.214 191.585a115 115 0 0 1-.167 4.014c-101.454-63.912-203.793-68.258-307.215 0-1.41-25.092 4.379-49.757 14.571-72.625 5.12-11.497 11.356-22.529 18.347-32.938 15.13-22.544 33.818-42.124 52.452-56.957 24.987-19.904 49.871-31.26 65.948-29.76 45.357-4.092 158.723 88.145 156.064 188.268z"/><g fill="#fff" opacity=".6"><path d="M80.796 194.629c.015.325.018.648.037.971 11.142-7.353 22.27-13.859 33.389-19.545-11.13 5.359-22.272 11.546-33.426 18.572zM232.151 3.32c-9.737-.909-22.709 2.907-36.975 10.475 11.588-5.322 22.047-7.891 30.225-7.13 44.847-4.047 156.17 86.086 156.092 184.899a410 410 0 0 1 6.555 4.036c.08-1.342.135-2.673.166-4.014C390.874 91.463 277.508-.773 232.151 3.319"/></g><path fill="#001F54" d="M388.047 198.787a3.2 3.2 0 0 1-1.698-.49c-104.595-65.895-203.957-65.907-303.76-.037a3.186 3.186 0 0 1-4.934-2.481c-1.59-28.381 5.564-57.73 21.258-87.233 16.813-31.602 38.91-54.866 54.49-68.817C182.354 13.802 212.826-1.44 232.14.122c20.808-1.715 53.561 14.743 84.565 42.69 49.61 44.718 77.468 101.903 74.522 152.972a3.18 3.18 0 0 1-3.179 3.001zm-155.344-55.946c.838 0 1.671.003 2.509.013 49.148.522 99.533 16.378 149.845 47.145.634-47.766-26.196-100.608-72.62-142.454-27.847-25.102-57.745-40.973-76.792-41.18-.456.25-.979.394-1.533.394h-3.98c-.545 0-1.06-.139-1.51-.38-17.582.328-45.147 14.971-70.97 38.097-17.884 16.014-74.918 72.92-73.833 145.391 48.882-31.215 98.935-47.026 148.885-47.026z"/><path fill="#5F5F82" d="m367.841 127.9 3.856-6.79c40.073-69.875-28.571-122.35-80.013-83.117-3.697 2.82-7.935 4.69-12.399 5.427l-4.627.763c-5.833 25.673 38.222 83.719 93.183 83.719z"/><path fill="#fff" d="M276.53 55.48a6.12 6.12 0 0 1 5.142-6.143c4.464-.736 8.701-2.606 12.398-5.427 32.707-24.943 72.356-12.81 86.608 17.291-11.602-34.336-54.225-49.725-88.997-23.206-3.698 2.82-7.935 4.69-12.399 5.427l-4.627.763c-1.458 6.419.202 14.86 4.371 23.91-1.57-4.518-2.431-8.79-2.495-12.616z" opacity=".6"/><path fill="#001F54" d="M344.906 26.793c22.872 15.505 33.808 48.716 11.725 87.221-2.459 4.331-7.275 6.872-12.263 6.338a83 83 0 0 1-7.728-1.204c-1.435-.294-2.072 1.728-.717 2.279 7.382 3.008 15.194 5.112 23.302 6 5.062.555 9.974-1.921 12.471-6.316 26.519-46.242 5.421-84.854-26.789-94.318z" opacity=".2"/><path fill="#5F5F82" d="M190.998 41.534c0 20.163-8.687 37.763-22.207 52.273-17.056 18.31-41.813 31.692-66.49 39.088l-4.53-6.443a89 89 0 0 1-2.365-3.478C68.247 81.48 85.095 43.78 115.226 31.03c14.97-6.349 33.222-6.522 50.979 2.05a75 75 0 0 1 6.785 3.73c4.037 2.5 8.544 4.006 13.195 4.352l4.817.37z"/><path fill="#fff" d="M114.902 38.13c14.969-6.348 33.221-6.521 50.979 2.05a75 75 0 0 1 6.784 3.73c4.038 2.5 8.545 4.006 13.195 4.353 2.68.206 5.016-1.833 5.104-4.492q.037-1.113.037-2.235l-4.817-.37c-4.651-.346-9.158-1.852-13.195-4.352a75 75 0 0 0-6.785-3.73c-17.757-8.572-36.008-8.398-50.979-2.05-19.791 8.374-33.851 27.515-33.474 51.423 2.204-20.57 15.36-36.797 33.153-44.327z" opacity=".6"/><path fill="#001F54" d="M274.139 41.038c1.113-.171 3.497-.604 4.545-.771 4.048-.683 7.832-2.408 11.097-4.91l2.591-1.893c22.546-16.264 53.898-16.723 75.079 2.19 27.593 24.528 22.768 65.912 1.916 93.113-1.254 1.66-3.845.205-3.06-1.724 1.603-3.803 3.512-7.49 5.22-11.077 5.182-10.641 9.008-22.256 9.226-34.096.991-23.803-14.486-46.194-37.729-52.244-15.063-4.157-31.405-.808-44.483 7.56-3.551 2.213-6.784 5.15-10.638 6.89-3.919 1.951-8.437 2.608-12.728 3.249-4.119.553-5.174-5.45-1.036-6.285zM190.759 44.708c-1.148-.068-3.591-.266-4.672-.333-5.182-.345-10.272-2.011-14.691-4.722a104 104 0 0 0-5.224-2.938c-21.193-11.14-48.469-9.117-65.883 7.97-18.197 17.26-19.395 44.12-8.696 65.866 3.438 7.475 8.12 14.077 12.147 21.331 1.006 1.79-1.481 3.603-2.874 2.025-2.775-3.141-5.372-6.35-7.872-9.852C71.9 93.981 72.931 52.69 106.246 32.015c18.845-11.699 43.544-11.362 62.894-1.105 3.614 1.803 6.941 4.324 10.662 5.612 3.589 1.386 7.64 1.535 11.439 1.836 4.142.457 3.732 6.514-.482 6.352z"/><path fill="#001F54" d="M388.214 191.539a120 120 0 0 1-.163 4.064c-99.44-64.713-199.745-69.114-301.112 0-1.381-25.407 4.292-50.382 14.283-73.536C74.6 80.053 91.115 41.879 120.647 28.969l3.068.966c-12.824 6.747-20.457 22.516-17.936 37.04 1.506 8.662 6.563 16.472 13.423 21.74 4.644 3.561 10.114 5.964 15.891 6.699 11.957 1.51 23.868-3.506 35.901-3.026q1.077.048 2.155.143c12.533 1.15 24.015 7.817 35.854 12.432 25.397 9.893 53.283 10.459 79.623 17.254 39.742 10.259 75.456 35.491 99.588 69.321z" opacity=".2"/><path fill="#5F5F82" d="M244.844 130.537c-7.461.063-14.93.063-22.391 0-79.596-.686-186.99 63.904-141.667 130.269 7.596 11.119 17.774 19.603 29.216 24.965 37.832 17.719 75.719 43.896 113.646 53.8a39.6 39.6 0 0 0 20.003 0c37.927-9.904 75.814-36.081 113.646-53.8 11.442-5.362 21.62-13.846 29.216-24.965 45.325-66.365-62.069-130.955-141.667-130.269zM359.803 256.09c-6.243 7.948-14.611 14.02-24.015 17.846-31.119 12.663-62.27 29.953-93.452 37.026a37.1 37.1 0 0 1-16.442 0c-31.191-7.073-62.341-24.363-93.451-37.026-9.405-3.824-17.781-9.896-24.024-17.846-37.266-47.423 51.042-93.586 116.488-93.096 6.139.047 12.279.047 18.411 0 65.455-.488 153.754 45.673 116.489 93.096z"/><path fill="#fff" d="M222.452 138.949c7.462.063 14.93.063 22.391 0 64.759-.558 147.914 42.091 152.26 93.751 4.654-55.356-84.017-102.75-152.26-102.162-7.461.063-14.929.063-22.391 0-68.243-.588-156.913 46.806-152.26 102.162 4.346-51.658 87.502-94.309 152.26-93.751" opacity=".6"/><path fill="#001F54" d="M386.512 245.035c-7.597 11.119-17.774 19.603-29.216 24.965-37.832 17.719-75.719 31.496-113.647 41.4a39.6 39.6 0 0 1-20.003 0C185.719 301.496 147.832 287.719 110 270c-11.442-5.362-21.62-13.846-29.216-24.965-5.607-8.208-8.873-16.389-10.147-24.424-2.037 12.954.82 26.537 10.147 40.195 7.596 11.119 17.774 19.603 29.216 24.965 37.832 17.719 75.719 43.133 113.646 53.037a39.6 39.6 0 0 0 20.003 0c37.928-9.904 75.815-35.318 113.647-53.037 11.442-5.362 21.619-13.846 29.216-24.965 9.327-13.658 12.181-27.24 10.147-40.195-1.275 8.035-4.541 16.216-10.147 24.424" opacity=".2"/><path fill="#001F54" d="M234.111 315.828a40.4 40.4 0 0 1-8.926-.993c-31.301-7.1-62.909-25.312-93.948-37.949-10.132-4.126-18.89-10.634-25.325-18.825-10.45-13.3-12.34-27.735-5.467-41.745 7.545-15.377 25.45-29.83 50.419-40.698 23.49-10.224 50.46-15.977 74.066-15.812 6.092.045 12.27.045 18.364 0 23.557-.18 50.575 5.588 74.066 15.812 24.968 10.868 42.872 25.321 50.417 40.698 6.873 14.01 4.982 28.445-5.467 41.743-6.435 8.191-15.193 14.7-25.325 18.825-31.037 12.637-62.646 30.848-93.948 37.95a40.5 40.5 0 0 1-8.926.993zm-10.234-149.656c-22.481 0-48.101 5.551-70.472 15.288-23.584 10.264-40.362 23.641-47.242 37.664-5.802 11.824-4.2 23.601 4.759 35.001 5.754 7.321 13.608 13.152 22.718 16.861 30.719 12.507 61.992 30.613 92.954 37.636a34.2 34.2 0 0 0 15.035 0c30.962-7.023 62.238-25.129 92.955-37.636 9.109-3.709 16.964-9.54 22.717-16.861 8.958-11.4 10.559-23.177 4.757-35.001-6.88-14.023-23.657-27.398-47.241-37.664-22.369-9.736-47.991-15.288-70.472-15.288q-.504-.001-1.006.004c-6.124.045-12.336.045-18.457 0q-.502-.005-1.005-.004"/><path fill="#001F54" d="M233.649 344.799c-3.634 0-7.268-.46-10.803-1.383-38.048-9.929-76.47-37.09-114.197-54.762-12.217-5.723-22.761-14.731-30.494-26.053-13.62-19.942-14.961-41.463-3.88-62.236 10.681-20.02 32.583-38.699 61.667-52.593 27.656-13.212 59.176-20.647 86.54-20.422 7.409.063 14.924.063 22.336 0 27.329-.245 58.883 7.21 86.538 20.422 29.086 13.894 50.987 32.571 61.666 52.593 11.082 20.773 9.74 42.294-3.879 62.236-7.733 11.322-18.277 20.331-30.493 26.053-37.727 17.672-76.149 44.831-114.199 54.762a42.8 42.8 0 0 1-10.802 1.383m-12.507-211.082c-56.557 0-121.003 31.698-141.248 69.647-10.035 18.81-8.85 37.532 3.52 55.644 7.09 10.381 16.749 18.639 27.934 23.878 37.377 17.507 75.431 44.534 113.105 54.365a36.5 36.5 0 0 0 18.388 0c37.674-9.833 75.73-36.858 113.105-54.365 11.186-5.241 20.845-13.497 27.935-23.878 12.37-18.112 13.555-36.834 3.519-55.644-20.243-37.945-84.692-69.647-141.248-69.647-.431 0-.853.001-1.283.005-7.446.065-14.998.065-22.444 0q-.642-.005-1.285-.005z"/><path fill="#001F54" d="M230.76 4.847c-18.267-.967-36.442 11.24-42.293 28.404-.494 1.453-.931 2.973-1.906 4.162-1.611 1.965-4.425 2.625-6.96 2.297-2.532-.329-4.867-1.493-7.146-2.638-1.92-.965-4.147-2.473-3.864-4.586.138-1.03.875-1.87 1.591-2.629 14.873-15.738 36.132-25.38 57.88-26.252" opacity=".3"/><path fill="#EEE" d="M212.409 379.67a4.59 4.59 0 0 1-4.592-4.592c0-37.69 5.495-48.075 6.12-49.133a4.59 4.59 0 0 1 6.287-1.619 4.59 4.59 0 0 1 1.669 6.198c-.191.383-4.894 10.243-4.894 44.554a4.59 4.59 0 0 1-4.592 4.592z"/><path fill="#001F54" d="M212.408 381.321a6.247 6.247 0 0 1-6.239-6.241c0-37.352 5.288-48.183 6.349-49.976a6.25 6.25 0 0 1 8.547-2.199c2.896 1.713 3.914 5.49 2.269 8.424-.011.025-4.684 9.831-4.684 43.749a6.25 6.25 0 0 1-6.24 6.241zm5.488-55.981a2.94 2.94 0 0 0-2.538 1.446c-.239.408-5.889 10.391-5.889 48.296a2.945 2.945 0 0 0 2.941 2.942 2.945 2.945 0 0 0 2.942-2.942c0-34.742 4.861-44.877 5.069-45.291.813-1.452.333-3.235-1.033-4.041a2.93 2.93 0 0 0-1.492-.408z"/><path fill="#63524B" d="M212.442 375.794a6.54 6.54 0 0 1-4.533-1.818c-.6-.572-1.576-.334-1.801.465a6.6 6.6 0 0 0-.085 3.258c.554 2.508 2.608 4.505 5.133 4.983a6.59 6.59 0 0 0 7.866-6.461c0-.627-.089-1.233-.255-1.807-.225-.785-1.204-1-1.793-.436a6.54 6.54 0 0 1-4.532 1.818z"/><path fill="#001F54" d="M212.428 384.449a8.4 8.4 0 0 1-1.578-.15c-3.157-.597-5.745-3.108-6.439-6.247a8.26 8.26 0 0 1 .107-4.062 2.69 2.69 0 0 1 1.894-1.883 2.74 2.74 0 0 1 2.632.675 4.9 4.9 0 0 0 3.395 1.362 4.9 4.9 0 0 0 3.394-1.362 2.76 2.76 0 0 1 2.639-.677 2.67 2.67 0 0 1 1.879 1.85 8.214 8.214 0 0 1-2.664 8.604 8.23 8.23 0 0 1-5.261 1.888zm-4.903-8.638a5.1 5.1 0 0 0 .107 1.531c.413 1.869 1.951 3.363 3.828 3.717 1.507.286 2.971-.084 4.122-1.04a4.92 4.92 0 0 0 1.772-4.211 8.17 8.17 0 0 1-4.913 1.633 8.17 8.17 0 0 1-4.916-1.633z"/><path fill="#EEE" d="M258.663 379.674a4.59 4.59 0 0 0 4.591-4.592c0-37.69-5.492-48.075-6.119-49.133a4.591 4.591 0 0 0-7.957 4.579c.192.383 4.895 10.243 4.895 44.554a4.59 4.59 0 0 0 4.592 4.592z"/><path fill="#001F54" d="M258.662 381.323a6.245 6.245 0 0 1-6.239-6.241c0-33.915-4.674-43.724-4.722-43.818-1.608-2.864-.59-6.644 2.306-8.354a6.25 6.25 0 0 1 8.548 2.199c1.06 1.79 6.348 12.623 6.348 49.973a6.247 6.247 0 0 1-6.239 6.241zm-5.486-55.981c-.509 0-1.023.131-1.49.409a2.96 2.96 0 0 0-1.069 3.97c.244.484 5.105 10.621 5.105 45.361a2.946 2.946 0 0 0 2.942 2.942 2.945 2.945 0 0 0 2.942-2.942c0-37.903-5.65-47.888-5.89-48.294a2.95 2.95 0 0 0-2.538-1.446z"/><path fill="#63524B" d="M258.629 375.794a6.54 6.54 0 0 0 4.533-1.818c.599-.572 1.576-.334 1.801.465a6.6 6.6 0 0 1 .084 3.258c-.553 2.508-2.607 4.505-5.132 4.983a6.59 6.59 0 0 1-7.612-8.268c.226-.785 1.204-1 1.793-.436a6.54 6.54 0 0 0 4.533 1.818z"/><path fill="#001F54" d="M258.643 384.448a8.23 8.23 0 0 1-7.927-10.494 2.67 2.67 0 0 1 1.879-1.85c.939-.25 1.928 0 2.639.678a4.9 4.9 0 0 0 3.394 1.361 4.9 4.9 0 0 0 3.395-1.361 2.74 2.74 0 0 1 2.634-.676 2.7 2.7 0 0 1 1.894 1.883 8.2 8.2 0 0 1 .108 4.062c-.695 3.139-3.281 5.65-6.438 6.247a8.5 8.5 0 0 1-1.578.15m-4.928-8.638a4.921 4.921 0 0 0 1.772 4.21c1.153.956 2.611 1.326 4.124 1.04 1.877-.354 3.415-1.848 3.828-3.716a5 5 0 0 0 .109-1.532 8.18 8.18 0 0 1-4.915 1.633 8.18 8.18 0 0 1-4.916-1.633zM262.366 237.301c-9.414 20.465-30.987 30.792-49.871 15.178-1.14-.966.021-2.794 1.371-2.154 6.167 2.941 12.475 4.942 19.122 4.117 10.424-1.411 18.319-9.606 23.909-18.04.328-.494.659-1.013.922-1.456 1.68-2.699 5.767-.578 4.545 2.355z"/><path fill="#001F54" d="M248.166 237.113c1.873-5.514 8.502-7.947 13.66-5.522 5.622 2.94 7.607 9.96 8.011 15.657.025.397-.557.54-.713.173-2.185-3.955-5.272-10.43-9.746-11.516-2.864-.512-5.569.624-7.53 2.693-.08.07-.177.189-.217.19l-2.267.017c-.863.024-1.504-.889-1.197-1.691z"/></svg>