<svg xmlns="http://www.w3.org/2000/svg" width="463" height="600" fill="none"><path fill="#001F54" d="M231.592 595.93c-102.399 0-185.41-7.147-185.41-15.965S129.193 564 231.592 564c102.398 0 185.409 7.148 185.409 15.965S333.99 595.93 231.592 595.93" opacity=".1"/><path fill="#C4612B" d="M377.967 352.507c-11.2 9.78-12.661 19.967-11.354 26.022 1.034 4.795 3.2 9.275 8.971 12.261 6.084 3.147 17.77 4.297 28.981-1.441 4.575-2.34 10.216-5.728 18.105-5.148.672-1.652-.362-3.524-2.254-5.384 3.422-2.466 7.703-4.903 14.942-7.199.073-.024-6.544-19.656-38.091-24.626.239-4.549-2.529-6.984-6.419-7.205-1.488 7.945-5.37 6.16-12.881 12.718z"/><path fill="#C4612B" d="M375.588 390.79c6.079 3.147 17.767 4.302 28.974-1.438 4.563-2.33 10.18-5.711 18.031-5.155.026-.002.06 0 .08 0 .098-.25.165-.505.19-.764.065-.699-.13-1.423-.516-2.164-.431-.804-1.103-1.628-1.934-2.448 3.426-2.466 7.705-4.909 14.941-7.2 0-.023-.127-.441-.446-1.149-.049-.118-.114-.243-.181-.386a27 27 0 0 0-.882-1.673c-.076-.127-.15-.263-.235-.402-.179-.288-.364-.592-.572-.915a10 10 0 0 0-.29-.434 35 35 0 0 0-2.472-3.24c-5.164-6.015-15.049-13.591-33.013-16.43.237-4.547-2.528-6.981-6.421-7.205-1.485 7.949-5.365 6.162-12.882 12.722-9.267 8.101-11.867 16.469-11.741 22.542l-.007.016c.024 1.262.165 2.425.395 3.466 1.039 4.791 3.201 9.273 8.974 12.257z"/><path fill="#5F5F82" d="M375.588 390.79c6.079 3.147 17.767 4.302 28.974-1.438 4.563-2.33 10.18-5.711 18.031-5.155.026-.002.06 0 .08 0 .098-.25.165-.505.19-.764.065-.699-.13-1.423-.516-2.164-.431-.804-1.103-1.628-1.934-2.448 3.426-2.466 7.705-4.909 14.941-7.2 0-.023-.127-.441-.446-1.149-.049-.118-.114-.243-.181-.386a27 27 0 0 0-.882-1.673c-.076-.127-.15-.263-.235-.402-.179-.288-.364-.592-.572-.915a10 10 0 0 0-.29-.434 35 35 0 0 0-2.472-3.24c-5.164-6.015-15.049-13.591-33.013-16.43.007-.134.014-.259.014-.388.029-1.664-.367-3.024-1.077-4.083l-.154-.221c-1.076-1.452-2.774-2.276-4.813-2.481q-.194-.02-.393-.032c-1.485 7.949-5.365 6.162-12.883 12.722-9.266 8.101-11.866 16.469-11.741 22.542l-.006.016c.024 1.262.165 2.425.395 3.466.246 1.146.56 2.278.974 3.375 1.306 3.475 3.613 6.615 8.002 8.882z"/><path fill="#fff" d="M397.28 346.597q.082.193.148.417c-.054-.006-.112-.02-.166-.026.012-.132.012-.264.018-.391" opacity=".4"/><path fill="#fff" d="M367.586 381.909c.632-2.194 1.322-3.949 1.684-6.346.869-5.786 4.266-13.586 9.778-18.399 6.975-6.099 11.208-4.795 14.692-12 2.3.127 2.917-.147 3.54 1.441.029-1.664-.367-3.024-1.077-4.083l-.154-.221c-1.076-1.452-2.774-2.276-4.813-2.482-.125-.006-.252-.017-.389-.024l-.004-.007c-1.485 7.949-5.365 6.162-12.882 12.722-9.267 8.101-11.867 16.469-11.742 22.542l-.006.016a17.7 17.7 0 0 0 .395 3.466c.246 1.146.561 2.278.974 3.375zM430.274 363.417c3.875 4.509 5.096 8.128 5.087 8.199-.437.139-.86.281-1.277.418a34.4 34.4 0 0 0-3.337-4.599c-5.168-6.015-15.042-13.593-33.015-16.422.087-1.637.014-2.966-.303-3.998 17.863 2.854 27.696 10.412 32.842 16.4z" opacity=".4"/><path fill="#001F54" d="M375.588 390.789c6.079 3.147 17.767 4.301 28.974-1.439 4.563-2.329 10.18-5.71 18.031-5.154.026-.003.06 0 .08 0 .098-.25.165-.505.19-.764.065-.699-.123-1.427-.516-2.164-.431-.804-1.103-1.629-1.934-2.448 3.426-2.466 7.705-4.909 14.941-7.201 0-.022-.127-.44-.446-1.148-.049-.118-.114-.243-.181-.386a27 27 0 0 0-.882-1.673c-.076-.127-.15-.264-.235-.402-.179-.288-.364-.592-.572-.916a10 10 0 0 0-.29-.433 35 35 0 0 0-2.472-3.241c1.101 3.516-.099 5.506-3.69 6.133-7.18 1.255-13.691.449-20.108 3.75 3.833 3.679-5.067 8.699-8.015 8.791-11.558.362-16.456-10.756-22.169-12.081-7.395-1.713-10.071 5.046-10.078 5.05.025 1.262.166 2.426.396 3.466 1.038 4.791 3.2 9.274 8.974 12.258z"/><path fill="#001F54" d="M387.887 396.283c5.615 0 11.873-1.269 17.979-4.391l1.24-.644c4.201-2.188 8.962-4.67 15.354-4.198a2.86 2.86 0 0 0 2.853-1.769c.558-1.372.759-3.368-.729-5.823 2.627-1.624 6.178-3.386 11.637-5.117a2.86 2.86 0 0 0 1.983-2.937c-.016-.207-6.046-20.882-38.23-26.839-.75-4.386-4.114-7.348-8.967-7.622-1.438-.063-2.7.913-2.966 2.322-.708 3.781-1.72 4.36-4.721 6.077-1.919 1.097-4.307 2.464-7.232 5.019-14.424 12.594-13.037 25.207-12.269 28.773.916 4.246 2.995 10.339 10.451 14.196 3.479 1.8 8.252 2.957 13.612 2.957zm31.02-14.922c-6.066.462-10.805 2.933-14.439 4.827l-1.202.623c-10.075 5.154-20.73 4.364-26.37 1.445-4.156-2.151-6.399-5.24-7.495-10.33-.603-2.794-1.628-12.73 10.443-23.27 2.497-2.18 4.525-3.341 6.312-4.364 2.798-1.602 5.282-3.022 6.732-7.08 1.119.654 1.623 1.856 1.529 3.629a2.853 2.853 0 0 0 2.406 2.968c22.969 3.618 31.788 15.054 34.629 20.121-6.334 2.303-10.086 4.684-12.703 6.571a2.86 2.86 0 0 0-1.178 2.095 2.86 2.86 0 0 0 .842 2.251q.275.271.492.512z"/><path fill="#001F54" d="M394.551 346.118c-.265 3.64-.478 7.437-1.753 10.899 2.951-2.553 5.057-5.905 7.187-9.155l-5.434-1.747zM422.069 376.49c-4.717-1.99-9.831-3.866-14.984-3.116 4.635 1.106 8.422 4.501 11.681 7.771z"/><path fill="#fff" d="M315.984 410.541c6.154 10.953 23.717 26.88 38.766 14.028 13.579-13.693-8.36-33.885 8.635-49.175 7.039-5.881 14.256-4.342 15.663.507 1.764 6.077-6.004 7.986-5.872 15.96.462 12.268 8.5 27.353-.518 42.996-9.934 18.023-41.68 27.522-65.308 6.088l8.632-30.404z"/><path fill="#fff" d="M378.53 380.512c-1.66 3.152-5.445 5.756-5.352 11.344.461 12.266 8.503 27.348-.524 42.996-9.933 18.022-41.679 27.523-65.304 6.088l8.63-30.406c4.143 7.368 13.441 16.99 23.666 18.585 4.978.777 10.177-.349 15.107-4.556 13.574-13.694-8.36-33.884 8.63-49.172 7.042-5.883 14.258-4.342 15.663.5.531 1.827.205 3.27-.516 4.621"/><path fill="#E8E8E8" d="M373.18 391.859c.46 12.266 8.503 27.348-.525 42.995-9.932 18.022-41.678 27.523-65.303 6.089l8.63-30.406c4.143 7.368 13.441 16.99 23.665 18.584.476 2.7.588 6.359-.801 10.368-2.319 6.685 19.6 8.779 29.57-7.082 10.741-17.1-8.272-41.616 6.614-51.602 1.127-.755 2.293-.817 3.499-.294-1.659 3.151-5.445 5.755-5.351 11.343z"/><path fill="#001F54" d="M338.052 456.119a47.4 47.4 0 0 0 7.813-.652c12.694-2.115 23.92-9.488 29.293-19.237 6.919-12 4.585-23.489 2.526-33.624-.788-3.875-1.53-7.536-1.655-10.857-.047-2.908 1.331-4.713 2.928-6.805 1.836-2.406 4.123-5.401 2.835-9.845-.825-2.837-3.007-4.985-5.986-5.896-4.342-1.327-9.666.167-14.247 3.995-10.216 9.191-8.141 19.853-6.31 29.263 1.524 7.832 2.841 14.604-2.439 20.011-3.955 3.339-8.355 4.608-13.076 3.766-8.498-1.512-17.126-9.747-21.256-17.099l-4.976 2.794c4.639 8.259 14.513 18.014 25.231 19.922 6.432 1.141 12.61-.628 17.874-5.124q.091-.077.175-.16c7.502-7.565 5.679-16.937 4.071-25.203-1.764-9.07-3.288-16.902 4.445-23.862 3.564-2.975 6.917-3.432 8.842-2.847.793.241 1.811.79 2.171 2.028.446 1.541-.13 2.486-1.89 4.79-1.764 2.31-4.179 5.472-4.096 10.422.145 3.846.931 7.727 1.767 11.837 1.947 9.593 3.962 19.509-1.905 29.687-4.579 8.306-14.247 14.575-25.263 16.409-12.815 2.137-25.477-1.774-35.657-11.009l-3.834 4.228c9.434 8.559 20.795 13.063 32.617 13.063z"/><path fill="#C97043" d="M91.38 263.637c18.854 15.39 100.538 57.554 146.785 57.051 14.473-.158-41.354 40.662-51.73 43.898s-92.004-.796-140.974-12.022"/><path fill="#fff" d="M225.47 338.272c-13.943 11.43-33.337 24.535-39.032 26.314-10.378 3.237-92.005-.792-140.977-12.017l45.917-88.932c7.979 6.512 27.215 17.832 50.26 28.667 31.394 14.771 69.857 28.674 96.529 28.386 6.527-.072-1.249 8.193-12.699 17.584z"/><path fill="#FFAD40" d="M286.931 370.455s45.086 40.961 47.308 67.93c-3.761 4.66-7.09 10.769-4.983 16.512 1.468 4.005 5.841 5.014 10.433 5.395-3.761 10.154-.213 17.23 4.25 19.834 5.368 3.133 14.141 2.125 18.772-3.325 7.301-.184 12.97-1.908 16.485-5.779 7.069-7.788 7.737-23.972 4.739-40.701-11.047-57.702-72.856-97.455-95.906-102.771l-38.255-6.357"/><path fill="#fff" d="M379.194 471.022c-3.511 3.877-9.18 5.597-16.485 5.779-4.629 5.454-13.406 6.462-18.768 3.329-4.465-2.608-8.011-9.684-4.25-19.838-4.597-.379-8.966-1.386-10.438-5.395-1.949-5.317.758-10.939 4.158-15.445.269-.366.543-.719.824-1.067-2.218-26.967-47.304-67.928-47.304-67.928l-37.155-49.264 38.255 6.357c23.05 5.316 84.857 45.073 95.902 102.773.027.143.054.295.078.438 2.909 16.571 2.197 32.538-4.819 40.261z"/><path fill="#E8E8E8" d="M384.41 459.986c-1.02 4.492-2.721 8.292-5.212 11.037-3.518 3.878-9.189 5.598-16.486 5.78-4.637 5.454-13.405 6.461-18.773 3.329-4.466-2.609-8.012-9.684-4.251-19.839-4.59-.379-8.965-1.386-10.437-5.394-2.105-5.741 1.228-11.848 4.989-16.512-1.693-20.527-28.222-49.167-40.797-61.67.242-12.83 8.13-19.281 8.13-19.281 16.123 35.676 39.127 48.591 40.73 79.022-7.031 2.34-12.837 10.006-9.756 14.792 2.447 3.792 6.924.707 11.719 1.773 4.793 1.059 4.328 9.344 3.923 14.25-.086 1.013-2.551-.93-2.459 0 .256 2.649 1.386 4.557 4.093 5.009 7.29 1.216 11.77-4.027 11.77-4.027s10.279 4.879 22.815-8.265z"/><path fill="#F9D3B7" d="M384.414 459.986c-1.02 4.492-2.721 8.292-5.213 11.037-3.517 3.878-9.188 5.598-16.485 5.78-4.637 5.454-13.406 6.461-18.774 3.329-4.465-2.609-8.011-9.684-4.25-19.839-4.59-.379-8.965-1.386-10.437-5.395-1.949-5.316.765-10.938 4.158-15.445a144 144 0 0 1 8.893-3.013v.02c-7.03 2.34-12.836 10.006-9.755 14.792 2.447 3.792 6.924.707 11.719 1.773 4.793 1.059 4.328 9.344 3.923 14.25-.086 1.013-2.551-.93-2.459 0 .256 2.649 1.386 4.557 4.092 5.009 7.291 1.216 11.77-4.027 11.77-4.027s10.28 4.879 22.816-8.265z"/><path fill="#E8E8E8" d="M310.775 337.502c-7.317 1.425-15.183 2.832-18.655 3.505-.367.072-12.47 2.838-23.659 4.957l-18.682-24.771 38.255 6.357c5.675 1.309 13.706 4.709 22.743 9.952z"/><path fill="#5F5F82" d="M379.193 471.023c-3.511 3.877-9.18 5.597-16.485 5.779-4.629 5.454-13.406 6.462-18.768 3.329-4.465-2.608-8.011-9.684-4.25-19.838-4.596-.379-8.965-1.386-10.437-5.395-1.949-5.317.757-10.939 4.158-15.445 16.956-6.396 38.41-10.429 50.6-8.691 2.909 16.571 2.196 32.538-4.82 40.261z"/><path fill="#001F54" d="M384.413 459.985c-1.02 4.492-2.721 8.292-5.213 11.037-3.517 3.878-9.188 5.598-16.485 5.78-4.637 5.454-13.406 6.461-18.774 3.329-4.465-2.608-8.011-9.684-4.25-19.839-4.59-.378-8.965-1.386-10.437-5.394-1.949-5.317.765-10.939 4.158-15.445a143 143 0 0 1 8.894-3.014v.02c-7.031 2.341-12.837 10.006-9.756 14.792 2.447 3.792 6.924.707 11.719 1.773 4.793 1.059 4.328 9.344 3.923 14.25-.086 1.013-2.551-.93-2.459 0 .256 2.649 1.386 4.557 4.092 5.009 7.291 1.217 11.77-4.027 11.77-4.027s10.28 4.879 22.816-8.265z"/><path fill="#001F54" d="M351.016 484.482c-3.093 0-6.06-.731-8.398-2.094-5.149-3.008-8.809-10.173-6.361-19.869-3.429-.602-7.782-2.148-9.458-6.72-1.984-5.407-.391-11.526 4.729-18.198-3.137-25.662-45.919-64.81-46.358-65.208a2.616 2.616 0 0 1 3.52-3.871c1.871 1.701 45.876 41.974 48.155 69.652l.086 1.042-.657.815c-4.419 5.474-5.954 10.173-4.564 13.967.809 2.205 3.182 3.273 8.194 3.689l3.433.284-1.196 3.231c-3.122 8.435-.686 14.448 3.116 16.669 4.148 2.42 11.516 1.882 15.462-2.759l.757-.891 1.169-.029c6.988-.176 11.768-1.787 14.614-4.923 5.751-6.335 7.284-20.721 4.101-38.482-10.945-57.169-72.265-95.63-93.841-100.667l-38.173-6.344a2.618 2.618 0 0 1 .858-5.162l38.412 6.39c11.526 2.659 33.222 13.918 53.619 32.35 16.766 15.15 38.054 40.023 44.268 72.479 2.071 11.569 4.123 32.491-5.373 42.951-3.687 4.062-9.333 6.226-17.236 6.596-3.474 3.509-8.312 5.102-12.88 5.102z"/><path fill="#001F54" d="M348.188 467.268c-1.14-2.557-2.381-5.734-4.801-7.192-.364-.147-.538-.041-.569.07-.075.161-.657.835-1.06 1.746l-4.138-3.2c1.929-2.055 5.511-3.679 7.815-1.165 2.344 2.748 2.51 6.382 2.753 9.739z"/><path fill="#E8E8E8" d="M190.44 362.755c-1.667.896-3.034 1.529-4.002 1.83-10.378 3.237-92.005-.792-140.977-12.018l43.014-79.632 12.64 5.511c9.989 21.341-2.434 50.034 3.792 61.86 9.622 18.272 64.691 18.395 72.858 10.574 2.721-2.602 7.86 3.565 12.673 11.875zM225.47 338.272c-12.103-1.961-24.86-5.048-31.772-7.788-15.746-6.238-41.995-25.823-52.057-38.182 31.393 14.771 69.856 28.675 96.529 28.386 6.527-.072-1.249 8.193-12.7 17.584"/><path fill="#001F54" d="M169.95 368.248c-29.45 0-87.486-4.519-125.073-13.136a2.617 2.617 0 0 1 1.17-5.1c49.35 11.314 130.395 14.948 139.61 12.073 4.011-1.251 16.784-9.479 29.085-18.733 13.762-10.355 20.522-17.079 22.541-20.049-46.362-.039-127.028-40.889-147.557-57.645a2.616 2.616 0 1 1 3.309-4.053c18.041 14.724 99.643 56.981 145.104 56.461h.104c4.021 0 4.746 2.585 4.87 3.386.269 1.695.979 6.197-24.162 25.276-11.621 8.818-26.253 18.641-31.734 20.351-2.503.782-8.666 1.167-17.265 1.167z"/><path fill="#fff" d="m307.998 477.998-132.466-13.814c-30.132-35.035-11.6-84.501 3.491-115.948 0 0 23.48-38.391 59.139-38.391 35.658 0 59.138 38.391 59.138 38.391 15.093 31.447 40.824 94.726 10.698 129.762"/><path fill="#E8E8E8" d="M292.119 341.007c-17.206 3.169-66.685 2.189-98.419-10.519 10.37-10.05 25.737-20.639 44.466-20.639 25.757 0 45.166 20.035 53.953 31.158"/><path fill="#001F54" d="M168.325 478.001c-18.227-15.998-19.126-43.604-14.7-65.743 4.652-22.695 13.779-44.143 25.397-64.022-8.017 21.241-15.848 42.727-19.568 65.082-3.788 21.949-3.563 45.42 8.871 64.683M307.999 478.001c12.433-19.267 12.659-42.732 8.871-64.683-3.72-22.355-11.549-43.839-19.568-65.082 11.618 19.881 20.745 41.327 25.399 64.022 4.426 22.133 3.525 49.749-14.7 65.743zM342.303 436.454c-3.874 1.922-7.404 4.7-9.387 8.511l-4.044-3.321c3.728-3.21 8.654-4.844 13.431-5.19"/><path fill="#C1603E" d="m104.079 581.023 73.412 3.214a8.68 8.68 0 0 0 7.33-3.432c2.744-3.625 5.812-6.151 9.266-7.381 2.72-.967 5.502 1.346 5.155 4.211l-.174 1.449c-.358 2.913 1.874 5.501 4.817 5.579l20.955.572a5.89 5.89 0 0 0 5.235-2.905c3.204-5.497 3.178-11.073 1.757-18.152q-.115-.535-.228-1.092c-3.998-8.738-1.405-18.499-2.396-29.765-24.032-21.3-49.09-29.413-75.697-17.851-.632.27-1.256.549-1.88.843-22.806 8.347-57.248-3.831-65.496 27.403-.028.094-.059.198-.079.292-2.654 1.691-4.758 3.707-6.303 5.923-8.214 11.787-.514 29.08 24.328 31.096z"/><path fill="#C1603E" d="m104.079 581.023 73.412 3.214a8.68 8.68 0 0 0 7.33-3.432c2.744-3.625 5.812-6.151 9.266-7.381 2.72-.967 5.502 1.346 5.155 4.211l-.174 1.449c-.358 2.913 1.874 5.501 4.817 5.579l20.955.572a5.89 5.89 0 0 0 5.235-2.905c3.204-5.497 3.178-11.073 1.757-18.152q-.115-.535-.228-1.092c-3.998-8.738-1.405-18.499-2.396-29.765-24.032-21.3-49.09-29.413-75.697-17.851-.632.27-1.256.549-1.88.843-22.806 8.347-57.248-3.831-65.496 27.403-.028.094-.059.198-.079.292-2.654 1.691-4.758 3.707-6.303 5.923-8.214 11.787-.514 29.08 24.328 31.096z"/><g fill="#fff" opacity=".6"><path d="M199.244 577.634c.006-.049.005-.1.008-.15 1.824.455 3.223 2.237 2.97 4.316l-.174 1.449c-.041.337-.044.67-.018.996-1.958-.852-3.237-2.907-2.959-5.163zM79.753 549.926c1.544-2.215 3.649-4.232 6.303-5.924.022-.094.05-.198.08-.291 8.247-31.234 42.687-19.056 65.494-27.403a59 59 0 0 1 1.881-.844c26.608-11.562 51.664-3.447 75.696 17.851.051.573.086 1.14.12 1.706-23.158-19.444-47.283-26.497-72.837-15.391-.632.27-1.255.549-1.88.843-22.806 8.347-57.248-3.831-65.495 27.403-.029.094-.06.197-.08.292-2.653 1.691-4.758 3.707-6.303 5.923-3.755 5.389-4.173 11.924-1.16 17.629-5.995-6.463-6.532-15.032-1.82-21.794"/></g><path fill="#E59A67" d="m104.078 581.023 73.412 3.214a8.68 8.68 0 0 0 7.331-3.432c2.743-3.626 5.811-6.151 9.265-7.381 2.72-.967 5.502 1.346 5.155 4.211l-.174 1.449c-.358 2.913 1.874 5.5 4.817 5.579l20.956.572a5.89 5.89 0 0 0 5.235-2.905c3.204-5.497 3.177-11.074 1.756-18.152-10.626 1.268-20.621.528-29.531-3.726a16.51 16.51 0 0 0-14.539.167c-3.227 1.627-6.397 3.515-9.744 5.256-2.728 1.415-5.769 2.115-8.837 2.11-22.002-.011-42.725-2.052-60.743-8.352-6.579-10.76-13.812-17.286-22.304-15.919-.028.094-.059.198-.08.292-16.804 10.682-11.483 34.623 18.025 37.017"/><path fill="#001F54" d="m103.95 583.419.023.001 73.414 3.214a11.07 11.07 0 0 0 9.349-4.384c2.516-3.325 5.262-5.535 8.156-6.566.643-.229 1.142.059 1.381.249.209.165.68.635.586 1.415l-.175 1.449a7.38 7.38 0 0 0 1.731 5.7 7.37 7.37 0 0 0 5.403 2.563l20.954.572a8.29 8.29 0 0 0 7.373-4.096c3.934-6.749 3.303-13.518 2.037-19.831-.082-.38-.156-.737-.232-1.103a2.4 2.4 0 0 0-.169-.517c-2.343-5.123-2.195-10.732-2.023-17.226.098-3.739.201-7.606-.165-11.752a2.4 2.4 0 0 0-.799-1.585c-27.252-24.153-53.449-29.856-80.09-17.429-6.969 2.527-15.376 3.088-23.509 3.63-18.197 1.213-37.008 2.466-43.223 24.78-7.726 5.289-11.255 13.528-9.231 21.705 2.056 8.308 10.79 17.719 29.139 19.207l.065.004zm91.749-12.61a6.2 6.2 0 0 0-2.416.353c-3.793 1.352-7.284 4.107-10.375 8.193a6.28 6.28 0 0 1-5.307 2.484l-73.372-3.212c-15.781-1.295-23.172-8.891-24.825-15.574-1.58-6.384 1.462-12.907 7.939-17.025a2.4 2.4 0 0 0 1.052-1.493 1 1 0 0 1 .033-.117l.027-.094c5.164-19.555 21.631-20.654 39.065-21.816 8.506-.568 17.302-1.154 24.935-3.949q.098-.034.193-.079c24.517-11.476 48.812-6.246 74.245 15.992.25 3.535.16 6.947.073 10.257-.177 6.703-.345 13.038 2.342 19.094q.089.434.179.855c1.491 7.428 1.076 12.045-1.483 16.438a3.48 3.48 0 0 1-3.105 1.714l-20.947-.571c-.758-.008-1.415-.339-1.897-.899a2.54 2.54 0 0 1-.603-1.989l.175-1.455a6.33 6.33 0 0 0-2.353-5.737 6.26 6.26 0 0 0-3.573-1.375z"/><path fill="#001F54" d="m103.991 582.619.017.001 73.413 3.214a10.27 10.27 0 0 0 8.676-4.065c2.612-3.452 5.481-5.754 8.525-6.839a2.2 2.2 0 0 1 2.149.379c.651.52.979 1.317.88 2.135l-.175 1.449a6.58 6.58 0 0 0 1.543 5.083c1.209 1.403 2.971 2.222 4.819 2.285l20.954.572a7.49 7.49 0 0 0 6.661-3.698c3.8-6.518 3.179-13.113 1.945-19.27a1.6 1.6 0 0 0-1.758-1.274c-11.387 1.356-20.759.186-28.652-3.582-5.024-2.394-10.986-2.325-15.95.183-1.787.901-3.583 1.896-5.32 2.857-1.445.799-2.938 1.626-4.44 2.408-2.444 1.266-5.245 1.935-8.094 1.93-24.728-.012-43.712-2.581-59.685-8.078-7.587-12.218-15.32-17.507-23.621-16.174-.501.08-.928.393-1.159.831-7.646 5.089-11.165 13.107-9.2 21.051 1.99 8.039 10.503 17.148 28.428 18.603l.044.003zm91.662-11.01a5.4 5.4 0 0 0-2.102.306c-3.643 1.298-7.01 3.963-10.006 7.923a7.09 7.09 0 0 1-5.982 2.801l-73.385-3.213c-16.214-1.326-23.83-9.225-25.551-16.179-1.665-6.729 1.51-13.584 8.286-17.891q.112-.071.21-.16c6.724-.668 13.263 4.332 19.952 15.271.192.314.488.553.836.675 16.433 5.746 35.901 8.428 61.27 8.442 3.362.007 6.673-.785 9.574-2.289 1.542-.803 3.053-1.64 4.515-2.447 1.789-.991 3.479-1.926 5.212-2.801 4.088-2.064 8.997-2.122 13.13-.152 8.104 3.868 17.578 5.195 28.924 4.035 1.027 5.772 1.002 10.709-1.844 15.593a4.28 4.28 0 0 1-3.814 2.11l-20.95-.571a3.35 3.35 0 0 1-2.481-1.177 3.32 3.32 0 0 1-.791-2.608l.176-1.452a5.54 5.54 0 0 0-2.057-5.017 5.45 5.45 0 0 0-3.118-1.201z"/><path fill="#001F54" d="M96.93 548.312c6.12 5.381 11.672 12.21 12.64 20.467.138 1.036 1.694.861 1.587-.19-.235-4.308-1.7-8.566-3.913-12.362-2.211-3.814-5.09-7.213-8.2-10.316a1.601 1.601 0 1 0-2.114 2.401"/><path fill="#001F54" d="m104.078 581.021 73.412 3.214a8.68 8.68 0 0 0 7.33-3.433c2.744-3.625 5.812-6.15 9.266-7.38 2.72-.967 5.502 1.346 5.155 4.21l-.174 1.45c-.358 2.912 1.874 5.5 4.817 5.579l20.955.572a5.89 5.89 0 0 0 5.235-2.906c3.204-5.497 3.178-11.073 1.757-18.151q-.115-.535-.228-1.093c-3.998-8.738-1.404-18.498-2.396-29.765-24.032-21.3-49.09-29.413-75.697-17.851l5.016 2.635c13.003-1.541 26.274 4.696 34.729 14.692 8.447 10.004 12.372 23.327 12.45 36.428.004 1.106-.106 2.39-1.027 2.997-1.686 1.118-3.487-1.11-5.13-2.279-2.992-2.149-7.252-.696-10.198 1.516s-5.493 5.175-9.006 6.283c-2.094.663-4.341.598-6.531.528-12.914-.417-25.827-.843-38.74-1.26-10.586-.339-21.237-.691-31.603-2.868-8.878-1.865-18.34-5.837-22.066-14.104-1.444-3.202-1.845-6.619-1.649-10.101-8.214 11.786-.514 29.079 24.328 31.095z" opacity=".25"/><path fill="#C1603E" d="m380.677 584.149-77.647 1.173a9.18 9.18 0 0 1-7.64-3.848c-2.788-3.912-5.952-6.672-9.564-8.077-2.845-1.104-5.854 1.256-5.573 4.294l.141 1.534c.29 3.087-2.146 5.754-5.256 5.748l-22.154-.03a6.23 6.23 0 0 1-5.443-3.228c-3.218-5.904-3.022-11.794-1.307-19.227q.138-.562.274-1.147c4.487-9.111 2.042-19.5 3.433-31.372 26.032-21.773 52.746-29.586 80.505-16.568.659.305 1.31.618 1.961.947 23.84 9.508 60.59-2.314 68.358 30.929.028.1.056.21.075.31 2.753 1.867 4.914 4.061 6.48 6.449 8.32 12.7-.338 30.734-26.641 32.111z"/><path fill="#C1603E" d="m380.677 584.149-77.647 1.173a9.18 9.18 0 0 1-7.64-3.848c-2.788-3.912-5.952-6.672-9.564-8.077-2.845-1.104-5.854 1.256-5.573 4.294l.141 1.534c.29 3.087-2.146 5.754-5.256 5.748l-22.154-.03a6.23 6.23 0 0 1-5.443-3.228c-3.218-5.904-3.022-11.794-1.307-19.227q.138-.562.274-1.147c4.487-9.111 2.042-19.5 3.433-31.372 26.032-21.773 52.746-29.586 80.505-16.568.659.305 1.31.618 1.961.947 23.84 9.508 60.59-2.314 68.358 30.929.028.1.056.21.075.31 2.753 1.867 4.914 4.061 6.48 6.449 8.32 12.7-.338 30.734-26.641 32.111z"/><g fill="#fff" opacity=".6"><path d="M280.25 577.687c-.006-.053-.001-.105-.005-.159-1.94.426-3.471 2.266-3.269 4.468l.141 1.535c.034.358.027.711-.01 1.053 2.093-.84 3.508-2.971 3.282-5.364l-.141-1.534zM407.317 552.034c-1.565-2.386-3.727-4.582-6.479-6.448a4 4 0 0 0-.075-.31c-7.768-33.243-44.519-21.422-68.358-30.929a58 58 0 0 0-1.961-.947c-27.76-13.02-54.474-5.207-80.506 16.568a60 60 0 0 0-.177 1.798c25.054-19.838 50.75-26.559 77.411-14.055a59 59 0 0 1 1.96.947c23.84 9.507 60.591-2.315 68.359 30.929.028.1.055.21.075.31 2.752 1.866 4.914 4.06 6.479 6.448 3.804 5.806 4.048 12.723.691 18.657 6.53-6.645 7.356-15.681 2.581-22.968"/></g><path fill="#E59A67" d="m380.678 584.147-77.648 1.174a9.18 9.18 0 0 1-7.64-3.849c-2.788-3.912-5.952-6.672-9.564-8.077-2.844-1.103-5.854 1.256-5.573 4.294l.141 1.535c.29 3.086-2.145 5.753-5.256 5.747l-22.154-.029a6.23 6.23 0 0 1-5.442-3.228c-3.219-5.905-3.023-11.795-1.308-19.227 11.185 1.661 21.769 1.181 31.309-3.044a17.45 17.45 0 0 1 15.353.617c3.36 1.818 6.651 3.907 10.134 5.848 2.839 1.577 6.03 2.409 9.27 2.497 23.243.653 45.197-.875 64.421-6.985 7.275-11.168 15.114-17.843 24.043-16.141.028.1.055.21.075.31 17.429 11.792 11.081 36.921-20.161 38.56z"/><path fill="#001F54" d="M252.531 587.464q.218.011.438.014l22.162.03a7.82 7.82 0 0 0 5.784-2.545 7.8 7.8 0 0 0 2.001-5.975l-.14-1.53c-.076-.825.437-1.307.662-1.477.258-.196.794-.481 1.469-.221 3.025 1.178 5.859 3.595 8.418 7.186a11.72 11.72 0 0 0 9.747 4.912l77.644-1.174q.048 0 .094-.003c19.429-1.017 28.94-10.695 31.365-19.409 2.385-8.577-1.095-17.385-9.096-23.209-5.892-23.758-25.726-25.653-44.912-27.484-8.575-.818-17.439-1.665-24.723-4.545-14.226-7.138-28.855-9.188-43.479-6.086-13.563 2.875-27.578 10.302-41.653 22.076a2.54 2.54 0 0 0-.892 1.649c-.512 4.37-.521 8.459-.53 12.412-.015 6.866-.029 12.794-2.66 18.135a2.6 2.6 0 0 0-.195.543 90 90 0 0 1-.267 1.12c-1.538 6.666-2.407 13.801 1.543 21.048a8.75 8.75 0 0 0 7.22 4.536zm32.185-16.871a6.6 6.6 0 0 0-4.332 1.337 6.69 6.69 0 0 0-2.657 5.99l.141 1.535a2.69 2.69 0 0 1-.698 2.088 2.72 2.72 0 0 1-2.031.892l-22.155-.03a3.69 3.69 0 0 1-3.219-1.905c-2.572-4.718-2.87-9.608-1.063-17.446.066-.267.137-.559.209-.863 3.021-6.317 3.036-13.013 3.051-20.097.009-3.499.016-7.108.388-10.835 27.538-22.723 53.361-27.513 78.915-14.648q.098.05.201.089c7.978 3.183 17.252 4.069 26.219 4.925 18.383 1.756 35.745 3.413 40.609 24.227l.025.1q.018.058.028.115a2.6 2.6 0 0 0 1.069 1.619c6.717 4.544 9.734 11.527 7.872 18.223-1.95 7.01-9.987 14.812-26.697 15.702l-77.601 1.175a6.63 6.63 0 0 1-5.535-2.782c-3.144-4.411-6.748-7.429-10.712-8.972a6.6 6.6 0 0 0-2.027-.437z"/><path fill="#001F54" d="M252.577 586.62q.198.01.396.012l22.159.029a6.98 6.98 0 0 0 5.159-2.268 6.96 6.96 0 0 0 1.783-5.326l-.14-1.533a2.5 2.5 0 0 1 .994-2.23 2.33 2.33 0 0 1 2.284-.333c3.183 1.237 6.143 3.756 8.8 7.482a10.87 10.87 0 0 0 9.045 4.558l77.646-1.173q.032 0 .064-.002c18.981-.995 28.25-10.359 30.594-18.791 2.317-8.332-1.159-16.908-9.082-22.514a1.69 1.69 0 0 0-1.2-.913c-8.73-1.663-17.058 3.693-25.442 16.37-17.039 5.323-37.174 7.462-63.291 6.728-3.014-.079-5.952-.872-8.497-2.284-1.564-.871-3.116-1.791-4.619-2.68-1.805-1.068-3.671-2.172-5.53-3.177-5.166-2.799-11.463-3.053-16.84-.676-8.453 3.743-18.388 4.695-30.377 2.916a1.7 1.7 0 0 0-1.896 1.293c-1.492 6.468-2.344 13.418 1.471 20.417a7.9 7.9 0 0 0 6.522 4.097zm32.095-15.181a5.75 5.75 0 0 0-3.78 1.168 5.85 5.85 0 0 0-2.325 5.238l.141 1.535a3.52 3.52 0 0 1-.914 2.735 3.55 3.55 0 0 1-2.655 1.168l-22.154-.029a4.5 4.5 0 0 1-3.96-2.347c-2.859-5.244-2.735-10.459-1.477-16.528 11.952 1.565 21.999.456 30.679-3.389a15.86 15.86 0 0 1 13.864.559c1.804.975 3.559 2.013 5.418 3.114 1.52.9 3.094 1.83 4.697 2.724 3.02 1.679 6.497 2.619 10.048 2.709 26.797.752 47.446-1.491 64.978-7.065.373-.119.692-.361.906-.689 7.395-11.352 14.447-16.447 21.537-15.527q.1.095.217.174c7.027 4.755 10.175 12.093 8.213 19.15-2.029 7.295-10.315 15.41-27.483 16.32l-77.616 1.174a7.49 7.49 0 0 1-6.237-3.137c-3.046-4.276-6.521-7.192-10.33-8.674a5.7 5.7 0 0 0-1.764-.381z"/><path fill="#001F54" d="M387.379 547.094c-7.036 6.111-12.609 14.115-13.763 23.749a.845.845 0 0 0 1.677.209c.834-4.487 2.074-8.635 4.778-12.152 2.706-3.533 6.01-6.548 9.531-9.258 1.82-1.5-.469-4.149-2.223-2.548"/><path fill="#001F54" d="m380.676 584.146-77.648 1.174a9.18 9.18 0 0 1-7.64-3.848c-2.787-3.913-5.952-6.673-9.564-8.077-2.844-1.104-5.853 1.256-5.572 4.293l.141 1.535c.29 3.086-2.146 5.753-5.257 5.747l-22.154-.029a6.23 6.23 0 0 1-5.442-3.228c-3.218-5.904-3.022-11.795-1.308-19.227q.139-.563.275-1.148c4.486-9.111 2.042-19.499 3.433-31.372 26.031-21.772 52.745-29.585 80.505-16.568l-5.379 2.632c-13.69-2.021-27.899 4.166-37.133 14.469-9.225 10.313-13.776 24.27-14.254 38.105-.038 1.167.039 2.527.995 3.196 1.748 1.232 3.719-1.067 5.489-2.252 3.225-2.179 7.682-.517 10.727 1.909 3.047 2.426 5.647 5.633 9.323 6.908 2.191.764 4.568.764 6.885.755 13.655-.05 27.308-.108 40.961-.158 11.194-.039 22.455-.088 33.473-2.075 9.435-1.702 19.55-5.611 23.737-14.231 1.624-3.34 2.15-6.938 2.048-10.621 8.32 12.7-.338 30.734-26.641 32.111" opacity=".25"/><path fill="#FFF1E8" d="M143.728 512.538c1.416 2.984 4.762 4.526 7.993 3.867 35.689-7.21 54.508 22.818 78.825 21.785l-.497-5.633c3.618-2.488 6.37-5.087 7.736-7.84l.001-.008c.188-.366.343-.726.475-1.095.312-.88.481-1.784.491-2.697a7 7 0 0 0-.026-.705 12.5 12.5 0 0 0-1.041-3.109v-.008c-.913-1.916-2.311-3.626-4.118-5.172-.315-8.676-5.389-15.293-2.793-24.493.041-.158.09-.323.138-.481l9.499 2.116 6.959 18.711.035.091c-10.102 9.066-7.727 24.412 4.253 25.059 51.803 5.131 56.386-23.225 85.574-18.941 2.177.318 4.412-.426 5.925-2.018 4.188-4.427 3.587-10.364-1.49-14.226-9.479-10.893-15.155-52.914-21.174-92.12-.473-3.101-2.485-5.726-5.321-7.071-11.169-5.289-19.923-14.332-27.323-25.465l-12.009-1.738-14.537-2.099c-18.223 4.912-35.498 3.833-51.7-4.066a78 78 0 0 1-10.627-6.269c-.124-.087-.255-.175-.379-.262l-.323.023h-.008l-18.397 1.168-9.404.598c-21.169 21.179-26.802 80.948-20.151 135.774-.322.167-.627.335-.925.519-.008 0-.009.008-.009.008-6.17 3.736-7.923 10.994-5.651 15.802z"/><g fill="#fff" opacity=".5"><path d="M239.336 372.187c7.157.063 14.48-.927 21.965-2.944l4.924.711c-9.213 2.325-18.182 3.105-26.889 2.233M339.503 513.925a6.9 6.9 0 0 1-2.271.054c-.194-.029-.382-.049-.573-.074.923-.029 1.87-.025 2.844.02M230.541 538.112l.006.076c-20.146.855-36.52-19.608-61.836-22.553 26.162-.171 42.858 19.274 61.83 22.477M149.38 496.731s0-.009.009-.008c.297-.185.604-.352.924-.519-6.65-54.826-1.017-114.594 20.152-135.775l9.404-.597 18.397-1.169.008.001.323-.023c.124.087.254.174.378.261.212.149.425.282.636.428l-13.353.847-9.404.598c-21.169 21.179-26.802 80.948-20.152 135.774l-.798-.043c-1.353.016-5.732.239-9.002 3.518-4.089 4.101-5.409 11.951-1.619 15.132 2.713 2.274 6.943 1.241 8.013.95q-.783.134-1.575.294c-3.232.658-6.576-.884-7.994-3.867-2.27-4.808-.517-12.068 5.651-15.802z"/></g><path fill="#001F54" d="M227.573 540.571c1.015.055 2.039.064 3.076.019a2.4 2.4 0 0 0 2.289-2.607l-.375-4.264c3.258-2.388 5.577-4.775 6.977-7.195l.006.015c1.823 5.175 6.279 8.454 11.928 8.779 29.831 2.945 44.731-5.142 56.703-11.639 9.345-5.071 16.725-9.078 28.708-7.32 2.977.435 5.973-.589 8.015-2.747 2.451-2.587 3.658-5.778 3.397-8.982-.265-3.266-2.026-6.323-4.966-8.636-8.152-9.722-13.651-45.921-18.971-80.932-.498-3.275-.995-6.548-1.495-9.803-.592-3.861-3.086-7.179-6.669-8.878-9.8-4.644-18.418-12.7-26.344-24.626a2.4 2.4 0 0 0-1.655-1.046l-26.549-3.838a2.4 2.4 0 0 0-.967.057c-22.482 6.056-42.336 2.703-60.698-10.241a2.4 2.4 0 0 0-1.534-.433l-28.131 1.787a2.4 2.4 0 0 0-1.545.698c-10.338 10.345-17.666 29.935-21.189 56.654-3.126 23.709-3.064 51.893.166 79.533-6.933 4.48-8.862 12.974-6.183 18.639 1.868 3.946 6.24 6.086 10.635 5.194 19.735-3.983 33.901 3.809 47.599 11.348 9.263 5.097 18.064 9.938 27.775 10.463zm.352-4.789-.038-.002c-8.681-.47-17.007-5.051-25.777-9.877-13.782-7.584-29.405-16.181-50.863-11.845-2.229.448-4.425-.597-5.347-2.546-1.902-4.016-.141-10.265 5.509-13.167a2.4 2.4 0 0 0 1.286-2.422c-7.198-59.356.548-113.814 18.846-133.151l26.371-1.676c19.022 13.136 40.391 16.701 63.532 10.595l25.008 3.616c8.263 12.185 17.328 20.502 27.687 25.411 2.141 1.015 3.63 2.984 3.98 5.268.5 3.252.998 6.525 1.493 9.797 5.705 37.551 11.093 73.018 20.242 83.532q.16.185.358.335c1.966 1.496 3.138 3.403 3.299 5.37.151 1.855-.575 3.686-2.097 5.293-.971 1.023-2.4 1.509-3.834 1.298-13.563-1.991-22.37 2.791-31.694 7.85-11.993 6.511-25.594 13.89-53.991 11.076l-.107-.008c-3.779-.204-6.521-2.187-7.715-5.583-1.447-4.109-.482-10.432 4.936-15.296a2.4 2.4 0 0 0 .647-2.621l-6.995-18.8a2.4 2.4 0 0 0-1.727-1.505l-9.498-2.115a2.397 2.397 0 0 0-2.814 1.634c-2.008 6.513-.56 11.777.839 16.867.822 2.988 1.598 5.81 1.712 8.902.024.67.328 1.301.838 1.736 2.4 2.052 3.819 4.273 4.335 6.783.174 3.102-2.33 6.39-7.653 10.052a2.4 2.4 0 0 0-1.03 2.187l.266 3.012zm16.683-28.55c-2.349 2.44-4.053 5.305-5.022 8.292-.894-1.686-2.124-3.266-3.679-4.727-.245-3.229-1.045-6.138-1.821-8.961-1.14-4.146-2.147-7.809-1.402-12.033l5.93 1.32 5.993 16.108z"/><path fill="#001F54" d="M237.676 486.002c-8.342-2.008-16.748-3.745-24.826-6.769-8.158-2.949-16.076-6.578-23.833-10.499-.914-.485-1.723.852-.824 1.425 15.031 9.259 31.207 16.993 48.67 20.572 3.208.527 4.028-4.112.811-4.73zM238.753 514.138c-3.754-3.878-9.509-6.464-14.829-5.089-1.415.31-1.144 2.412.296 2.358 4.612-.291 8.273 2.264 10.944 5.937 2.173 2.627 5.958-.745 3.589-3.206M146.452 503.142c2.659-4.003 6.615-6.375 11.479-6.592.389-.008.797-.031 1.2-.064.652-.03.777-1.01.162-1.207-4.248-1.65-9.731-1.098-13.493 1.865-1.323.989-2.478 2.197-3.457 3.516-1.861 2.902 2.25 5.414 4.108 2.483zM345.563 498.161c-5.283-5.213-13.712-4.614-19.955-2.03-1.362.579-.654 2.64.775 2.259 2.784-.768 5.758-1.014 8.551-.612 2.89.415 5.535 1.578 7.032 3.568 2.156 2.53 5.851-.73 3.597-3.185"/><path fill="#001F54" d="M220.087 469.408c-32.804-2.669-33.158-29.375-31.394-60.834q34.165 6.55 68.626 7.629c5.526.173 9.868 4.775 9.667 10.299-.868 23.856-5.314 43.222-25.236 43.181-6.158.735-13.63.448-21.663-.274z" opacity=".25"/><path fill="#001F54" d="M244.779 515.351c2.284-4.123 5.588-7.554 9.676-9.898a1.19 1.19 0 0 0 .434-1.629c-.336-.587-1.061-.739-1.635-.448a28.2 28.2 0 0 0-6.886 3.837c-2.147 1.625-4.092 3.599-5.776 5.796a2.41 2.41 0 0 0 .446 3.381c1.269.997 3.131.417 3.743-1.039z"/><path fill="#FEBD1C" d="M217.702 464.609c-30.305-2.438-30.676-26.315-29.098-54.437q36.08 6.755 72.505 7.121c-.065 25.246-2.454 47.674-23.398 47.596-5.686.646-12.588.379-20.009-.28"/><path fill="#fff" d="M261.11 417.297q-.007 2.496-.048 4.949a416 416 0 0 1-62.241-5.903c-3.464-.593-6.668 1.997-6.807 5.509-.537 13.547-.035 25.709 4.898 34.399-9.54-9.788-9.379-26.947-8.305-46.078q36.08 6.755 72.505 7.121z" opacity=".5"/><path fill="#001F54" d="M188.617 410.174c-1.204 25.994.559 47.332 27.249 49.53 6.932.632 13.382.877 18.698.209 18.275.004 21.501-19.552 21.97-42.69q2.286.047 4.573.071c-.065 25.246-2.454 47.674-23.398 47.596-5.686.646-12.588.379-20.009-.28-30.305-2.438-30.676-26.315-29.098-54.437q.007 0 .013.003z" opacity=".25"/><path fill="#001F54" d="M217.768 463.803c-21.677-3.339-27.194-15.467-27.579-35.932-.095-5.818.139-11.691.412-17.586l-2.363 1.853c24.011 4.5 48.42 6.915 72.852 7.156l-1.979-2.004c-.706 12.699.006 31.737-8.858 41.451-3.243 3.423-7.829 5.055-12.539 5.521a.63.63 0 0 0-.563.696.64.64 0 0 0 .559.563c2.538.286 5.187.177 7.763-.529 5.253-1.301 9.616-5.419 12.057-10.15 5.79-11.564 5.725-24.97 5.578-37.54a2.015 2.015 0 0 0-1.979-2.003c-24.198-.239-48.369-2.631-72.157-7.087a2 2 0 0 0-2.333 1.597c-.885 16.852-2.975 40.632 13.333 51.099 2.679 1.682 5.632 2.817 8.622 3.514 2.994.705 6.035.986 9.043.998a.811.811 0 0 0 .129-1.613z"/><path fill="#FFF1E8" d="M263.781 361.603a109 109 0 0 0-.17 9.371l27.111 2.266c.009-19.888 2.451-38.394 8.568-54.805l-24.887 1.059a141 141 0 0 0-4.866 12.664c-3.183 9.68-5.154 19.491-5.756 29.445"/><path fill="#001F54" d="M263.781 361.604a109 109 0 0 0-.17 9.371l27.111 2.266c.009-19.889 2.451-38.395 8.568-54.805l-24.887 1.059a140 140 0 0 0-4.866 12.664l.155.097c4.192-3.473 11.092-2.172 14.541 2.035 3.457 4.208 3.722 10.421 1.664 15.453-2.131 5.196-6.571 9.385-11.884 11.205-3.272 1.113-6.841 1.32-10.232.657z" opacity=".25"/><path fill="#001F54" d="M290.614 375.236a2.004 2.004 0 0 0 2.109-1.996c.013-21.206 2.774-38.905 8.441-54.108a2 2 0 0 0-.255-1.873 2 2 0 0 0-1.702-.823l-24.887 1.059a2 2 0 0 0-1.745 1.193c-7.723 17.58-11.411 35.189-10.961 52.338a2 2 0 0 0 1.832 1.941l27.112 2.266.058.003zm5.791-54.678c-4.971 14.472-7.488 31.051-7.671 50.508l-23.155-1.935c-.138-15.621 3.277-31.653 10.159-47.694z"/><path fill="#001F54" d="M176.013 382.157c.036 2.156.275 4.533 1.837 6.034.586.568 1.326.961 2.068 1.306 7.381 3.354 16.784 1.564 22.41-4.275 4.718-4.887 6.591-11.834 7.515-18.57l-.242-1.472a78 78 0 0 1-10.627-6.269c-.228-.076-.465-.154-.699-.239h-.008l-18.397 1.168a60.8 60.8 0 0 0-3.857 22.316zM247.404 507.867c-10.102 9.066-7.727 24.412 4.253 25.059 51.803 5.131 56.386-23.225 85.574-18.941 2.177.318 4.412-.426 5.925-2.018 4.188-4.427 3.587-10.364-1.49-14.226-9.479-10.893-15.155-52.914-21.174-92.12-.473-3.101-2.485-5.726-5.321-7.071-11.168-5.289-19.923-14.332-27.323-25.465l-12.009-1.738a12 12 0 0 0-1.916 1.803c-1.822 2.153-2.764 4.905-3.44 7.64-1.702 6.893-1.922 14.514 1.475 20.745l-4.313-.385c5.649 5.44 14.303 6.132 21.179 9.899 6.979 3.821 11.852 10.724 14.775 18.123 2.924 7.391 4.097 15.344 5.242 23.215.948 6.482 1.902 12.967 2.85 19.449 1.392 9.536 2.739 19.572-.688 28.59-2.875 7.55-8.913 13.607-15.901 17.66-6.988 4.06-14.893 6.276-22.824 7.786-6.66 1.266-13.948 1.977-19.873-1.307-5.934-3.293-9.128-12.067-4.572-17.083-.157.095-.307.199-.464.296z" opacity=".25"/><path fill="#FEBD1C" d="M292.209 368.896c-7.792-4.23-20.246-5.378-28.969-2.989-2.531.693-4.32 2.946-4.462 5.565l-.658 12.173c-.53 9.824 7.032 18.389 16.867 18.671q.69.02 1.383-.001c8.015-.237 14.758-6.112 16.461-13.948l2.672-12.302a6.57 6.57 0 0 0-3.294-7.169"/><path fill="#001F54" d="M143.728 512.539c1.416 2.984 4.762 4.526 7.994 3.868 35.689-7.211 54.507 22.817 78.824 21.785l-.497-5.634c3.619-2.487 6.37-5.087 7.737-7.839v-.009c.011-.36.007-.72.01-1.081a178 178 0 0 0-.112-6.526v-.009c-.913-1.916-2.311-3.625-4.118-5.172-.315-8.676-5.389-15.292-2.793-24.492-.377-.132-.771-.234-1.151-.335a141.6 141.6 0 0 1-39.604-17.279l-1.335.097c3.562 3.765 7.122 7.522 10.684 11.287 3.258 3.445 6.561 6.938 8.77 11.135 1.641 3.116 2.627 6.518 3.607 9.895q1.282 4.457 2.578 8.902c.958 3.32 1.869 7.077.129 10.051-2.506 4.285-8.781 4.204-13.476 2.595-8.777-2.99-16.358-9.285-25.482-10.892-3.721-.658-7.55-.497-11.272-1.154-3.729-.659-7.547-2.347-9.427-5.628-1.873-3.281-.833-8.294 2.728-9.56a26.3 26.3 0 0 0-8.132.186c-.009-.001-.009.008-.009.008-6.17 3.736-7.923 10.994-5.651 15.802zM269.881 398.839q.671.023 1.346.01c7.792-.141 14.305-5.021 15.903-11.58l2.509-10.299c.582-2.392-.747-4.847-3.255-6.036-7.011-3.323-17.851-4.471-26.134-3.112a6.03 6.03 0 0 1 2.992-1.914c8.723-2.389 21.177-1.241 28.969 2.989a6.57 6.57 0 0 1 3.294 7.169l-2.672 12.302c-1.703 7.836-8.445 13.711-16.461 13.948a24 24 0 0 1-1.383.001c-4.402-.126-8.347-1.916-11.317-4.733 1.908.737 4 1.181 6.209 1.254z" opacity=".25"/><path fill="#001F54" d="M274.438 404.297q.245.014.491.02.75.022 1.503-.001c8.878-.263 16.425-6.646 18.353-15.524l2.672-12.301c.803-3.697-.962-7.542-4.295-9.352-8.026-4.357-21.116-5.717-30.45-3.16a8.085 8.085 0 0 0-5.93 7.385l-.658 12.173a20 20 0 0 0 5.225 14.546c3.449 3.748 8.081 5.942 13.089 6.212zm1.309-37.563c5.68.307 11.354 1.665 15.507 3.922 1.779.966 2.724 3.016 2.295 4.986l-2.672 12.302c-1.537 7.077-7.527 12.166-14.567 12.375a22 22 0 0 1-1.267 0c-4.112-.114-7.928-1.874-10.752-4.944a15.98 15.98 0 0 1-4.175-11.621l.658-12.173a4.09 4.09 0 0 1 2.994-3.743c3.589-.982 7.784-1.329 11.977-1.103z"/><path fill="#FFF1E8" d="M197.797 358.607c.184-14.351 4.443-33.585 10.668-49.18l-21.564-1.165c-1.154 2.525-2.464 9.134-3.481 11.642-4.02 9.915-6.951 19.672-8.548 29.247a106 106 0 0 0-1.034 8.161z"/><path fill="#001F54" d="M197.798 358.607c.183-14.352 4.464-33.994 10.689-49.589l-21.564-1.165c-1.153 2.525-2.331 6.681-3.348 9.188 8.22 4.413 9.913 8.805 11.169 14.319 1.494 6.584-1.956 13.968-7.969 17.038-3.648 1.862-8.032 2.034-11.903.751-.452 2.73-.8 5.459-1.033 8.161l23.959 1.295z" opacity=".25"/><path fill="#001F54" d="m173.73 359.309 23.959 1.295a2 2 0 0 0 2.108-1.97c.166-12.904 4.84-36.37 11.608-53.326a2 2 0 0 0-.172-1.819 2 2 0 0 0-1.578-.92l-21.564-1.165a2 2 0 0 0-1.928 1.167c-7.538 16.521-13.099 40.394-14.318 54.571a1.998 1.998 0 0 0 1.885 2.167m22.12-2.81-19.823-1.071c1.365-12.751 6.575-35.152 13.214-49.958l17.435.942c-5.936 15.439-10.366 37.893-10.826 50.087"/><path fill="#FEBD1C" d="M199.335 354.484c-9.229-.936-18.006-1.074-25.845.442-1.626.315-2.819 1.715-2.909 3.369l-.94 17.395c-.217 4.017 1.12 8.015 3.889 10.933q.321.338.657.653c8.049 7.556 21.314 3.53 24.429-7.064 2.223-7.564 3.441-14.812 3.977-21.847a3.636 3.636 0 0 0-3.257-3.884z"/><path fill="#001F54" d="M192.948 381.371a86 86 0 0 0 3.86-19.689c.139-1.767-1.32-3.333-3.277-3.523-8.098-.783-15.843-1.01-22.908-.159.208-1.52 1.341-2.777 2.868-3.073 7.839-1.516 16.616-1.378 25.845-.442a3.635 3.635 0 0 1 3.258 3.885c-.536 7.034-1.754 14.281-3.977 21.847-2.295 7.809-10.108 12.043-17.281 10.704 5.24-.925 9.942-4.345 11.612-9.55" opacity=".25"/><path fill="#001F54" d="M183.122 393.145a16.9 16.9 0 0 0 5.347-.576c5.851-1.591 10.361-5.998 12.064-11.789 2.141-7.286 3.468-14.567 4.053-22.258.23-3.016-2.036-5.72-5.051-6.025-10.746-1.087-19.144-.94-26.427.467a5.61 5.61 0 0 0-4.526 5.225l-.94 17.395c-.251 4.658 1.366 9.184 4.436 12.42q.36.38.738.734a16.28 16.28 0 0 0 10.304 4.408zm16.011-36.67a1.644 1.644 0 0 1 1.467 1.743c-.563 7.41-1.84 14.421-3.902 21.433-1.307 4.449-4.775 7.836-9.277 9.06-4.332 1.177-8.656.124-11.865-2.89a14 14 0 0 1-.575-.571c-2.316-2.442-3.535-5.884-3.343-9.45l.94-17.395a1.62 1.62 0 0 1 1.293-1.514c6.89-1.334 14.919-1.465 25.264-.416z"/><path fill="#001F54" d="M238.263 523.617a8.3 8.3 0 0 0 .49-2.696c-.208.885-.369 1.79-.49 2.696" opacity=".25"/><path fill="#fff" d="M370.095 108.862c24.535 17.288 71.786 12.533 74.947 30.313 2.096 11.785-16.838 34.27-39.718 32.398-19.861-1.625-31.652-16.043-31.652-16.043"/><path fill="#001F54" d="M371.032 107.531c13.169 5.986 26.959 9.232 41.185 12.076 9.977 2.28 25.12 4.463 32.469 12.013 6.838 6.945 3.096 17.607-1.76 24.3-6.877 9.728-17.476 16.984-29.375 18.747-7.855 1.143-16.044-.482-23.206-3.736-7.067-3.286-13.316-8.07-17.935-14.373-1.105-1.6 1.016-3.443 2.441-2.137 1.239 1.162 2.689 2.332 4.112 3.407 9.532 7.07 21.602 11.838 33.576 10.101 9.943-1.604 19.078-7.721 24.97-15.827 3.151-4.579 6.77-11.482 2.397-15.987-4.495-4.359-12.134-5.968-18.392-7.49-10.809-2.422-21.669-4.11-32.385-7.537-3.597-1.13-7.178-2.449-10.582-4.219-3.386-1.781-6.675-3.9-9.392-6.68a1.657 1.657 0 0 1 1.877-2.662z"/><path fill="#E8E8E8" d="M433.788 143.694c-27.809 12.708-45.6-5.817-53.248-6.54-3.367-.318-8.127 1.042-8.605 8.204 0 0 5.264 7.228 15.467 11.049 40.367 15.123 46.386-12.713 46.386-12.713"/><path fill="#001F54" d="M433.789 143.694c-12.971 9.202-29.45 8.678-43.284 1.483-3.304-1.574-6.153-3.427-9.254-4.744-2.279-.883-4.902-.479-6.309 1.679-.624.9-1.064 2.13-1.398 3.423a1.646 1.646 0 0 1-2.007 1.178 1.65 1.65 0 0 1-1.225-1.461c-.129-1.601-.004-3.314.63-5.049 2.128-5.916 9.305-7.327 14.542-4.782 5.496 2.343 10.105 5.132 15.522 7.157 10.522 4.217 21.729 4.096 32.782 1.118z"/><path fill="#5F5F82" d="M181.797 71.207c-28.741 8.65-72.068-10.793-80.684 5.076-5.713 10.52 5.147 37.836 27.444 43.29 19.357 4.735 35.101-5.219 35.101-5.219"/><path fill="#fff" d="m181.792 71.21-2.569 6.112c-28.657 7.878-70.905-10.8-79.582 4.655.143-2.186.622-4.126 1.473-5.694 8.616-15.87 51.94 3.582 80.678-5.073" opacity=".5"/><path fill="#001F54" d="M182.267 72.769c-15.865 7.725-38.52 2.42-55.502.945-6.416-.538-14.18-1.422-19.816 1.294-5.577 2.892-4.311 10.586-2.778 15.924 3.526 11.102 12.059 21.094 23.25 24.838 11.547 3.658 24.38 2.01 35.364-2.791a1.632 1.632 0 0 1 1.741 2.752c-1.643 1.205-3.249 2.144-4.973 3.029a47.8 47.8 0 0 1-16.587 4.939c-7.823.824-16.105-.222-23.198-3.789-10.734-5.433-18.495-15.666-21.947-27.07-2.489-7.879-2.675-19.186 6.009-23.61 7.34-3.703 15.778-2.797 23.554-2.313 10.912.96 21.883 2.72 32.683 3.25 7.163.263 14.126.21 21.256-.518 1.782-.193 2.565 2.287.938 3.119z"/><path fill="#001F54" d="M110.359 84.128c22.371 20.843 45.102 8.892 52.586 10.62 3.295.763 7.382 3.557 5.572 10.503 0 0-7.278 5.194-18.166 5.597-43.078 1.592-39.992-26.72-39.992-26.72"/><path fill="#001F54" d="M110.361 84.13c9.546 6.318 20.143 9.974 31.458 9.299 5.781-.209 11.032-1.4 16.988-1.885 5.767-.763 12.142 2.853 12.286 9.132.012 1.908-.53 6.896-3.155 5.861a1.65 1.65 0 0 1-1-1.622c.096-1.332.064-2.64-.244-3.692-.651-2.49-3.015-3.701-5.455-3.584-3.359.272-6.647 1.127-10.279 1.578-15.387 2.459-31.216-2.266-40.599-15.085z"/><path fill="#F9E3D2" d="m224.435 87.178-29.25-3.852-9.524-1.61c-9.898-14.193-4.333-40.22 4.251-54.133 3.782-6.15 8.145-9.932 12.032-9.302 6.433 1.043 4.81 18.407 15.123 32.26 5.756 7.734 15.219 14.385 31.879 16.498 36.119 4.597-24.511 20.14-24.511 20.14z"/><path fill="#fff" d="M238.809 64.967c-11.719-2.212-19.568-7.255-25.101-13.258-10.652-11.54-12.725-26.615-17.104-31.853 1.816-1.27 3.626-1.855 5.342-1.577 6.433 1.043 4.81 18.407 15.123 32.26 4.465 6 11.166 11.35 21.74 14.428" opacity=".5"/><path fill="#E2C3AF" d="m224.436 87.178-29.251-3.851-9.523-1.61c-9.898-14.193-4.334-40.22 4.25-54.134 0 0-8.953 30.677 7.832 28.16 8.359-1.248 13.455-3.585 19.324-5.2 5.756 7.733 15.219 14.383 31.878 16.497 36.119 4.596-24.511 20.14-24.511 20.14z"/><path fill="#001F54" d="M194.662 86.539a3.255 3.255 0 0 1-2.705-3.641 3.255 3.255 0 0 1 3.653-2.804l28.627 3.78c14.816-3.846 28.502-8.95 32.196-11.902-1.142-.464-3.438-1.136-7.9-1.703a77 77 0 0 1-2.676-.387c-31.633-5.13-37.495-26.692-41.037-39.718-.863-3.177-2.31-8.494-3.403-8.67-1.608-.262-4.81 1.538-8.541 7.472-7.759 12.34-13.839 37.56-4.545 50.888a3.256 3.256 0 0 1-5.341 3.725c-11.03-15.814-4.547-43.89 4.373-58.08 4.739-7.538 10.102-11.245 15.097-10.435 5.235.849 6.815 6.661 8.645 13.391 3.623 13.329 8.58 31.576 38.248 35.351 7.257.924 14.006 2.469 14.32 7.498.241 3.862-3.072 7.635-20.031 13.495-9.067 3.133-18.019 5.44-18.397 5.535l-.611.157-29.879-3.943-.098-.016z"/><path fill="#F9E3D2" d="m327.588 103.904 28.969 5.587 9.544 1.481c13.876-10.338 16.82-36.79 13.075-52.703-1.645-7.03-4.59-11.997-8.476-12.628-6.434-1.043-10.381 15.944-24.544 25.828-7.905 5.52-18.985 8.838-35.458 5.58-35.721-7.053 16.892 26.855 16.892 26.855z"/><path fill="#fff" d="M320.976 78.288c11.817 1.602 20.857-.7 28.004-4.647 13.751-7.584 20.483-21.23 26.293-24.816-1.322-1.778-2.853-2.906-4.569-3.184-6.434-1.043-10.381 15.944-24.544 25.828-6.13 4.281-14.179 7.239-25.182 6.819z" opacity=".5"/><path fill="#E2C3AF" d="m327.588 103.904 28.97 5.588 9.544 1.48c13.876-10.338 16.82-36.79 13.075-52.703 0 0-1.201 31.934-16.33 24.243-7.536-3.826-11.632-7.655-16.69-11.042-7.905 5.52-18.985 8.838-35.459 5.58-35.72-7.053 16.892 26.855 16.892 26.855z"/><path fill="#001F54" d="m356.04 112.705-.095-.016-29.594-5.699-.531-.342c-.326-.212-8.092-5.227-15.705-11.065-14.237-10.919-16.189-15.545-14.74-19.134 1.888-4.674 8.787-4.005 15.957-2.59 29.332 5.81 39.81-9.954 47.459-21.454 3.863-5.807 7.199-10.822 12.432-9.974 5.233.85 8.912 6.02 11.026 14.67 3.98 16.28 1.258 44.968-14.204 56.488a3.256 3.256 0 0 1-3.89-5.222c13.03-9.708 15.229-35.56 11.767-49.717-1.663-6.807-4.133-9.526-5.742-9.787-1.093-.177-4.144 4.41-5.969 7.151-7.476 11.238-19.856 29.842-51.485 24.715a82 82 0 0 1-2.659-.478c-4.415-.873-6.803-.961-8.033-.882 2.571 3.968 13.944 13.133 26.785 21.464l28.354 5.461a3.256 3.256 0 0 1 2.582 3.815 3.26 3.26 0 0 1-3.717 2.6z"/><path fill="#fff" d="M377.022 296.819c-26.233 38.95-91.37 38.154-138.755 31.496-47.062-8.656-109.115-28.483-121.695-73.727-5.709-20.54-.218-40.791 10-59.157 8.123-71.512 32.264-166.578 156.973-146.357C408.254 69.297 401.119 167.12 386.227 237.533c3.893 20.653 2.7 41.602-9.205 59.286"/><path fill="#fff" d="M377.019 296.815c-26.234 38.953-91.367 38.15-138.754 31.498-47.06-8.661-109.117-28.485-121.7-73.732-5.705-20.535-.214-40.796 10.001-59.156 5.486-48.258 18.261-107.24 64.313-134.277 22.191-13.04 52.114-18.657 92.666-12.081s67.166 21.359 84.099 40.744c35.148 40.203 28.631 100.199 18.58 147.717 3.892 20.648 2.706 41.607-9.204 59.285z"/><path fill="#fff" d="M377.021 296.823c-26.234 38.948-91.372 38.148-138.754 31.494-47.064-8.664-109.118-28.479-121.704-73.731-5.699-20.534-.209-40.795 10.003-59.158 3.277-28.847 9.167-61.529 23.213-88.923 9.445-18.433 22.578-34.472 41.101-45.347 20.127-11.826 46.615-17.554 81.613-13.6 3.595.4 7.276.904 11.051 1.516 40.554 6.577 67.165 21.355 84.104 40.743 35.148 40.203 28.63 100.203 18.578 147.718 3.885 20.649 2.708 41.604-9.205 59.288"/><path fill="#5F5F82" d="M272.494 47.554c-3.206 18.602-10.89 35.738-20.948 43.592-22.58 17.632-31.672-2.082-73.482 15.889-14.116 6.07-23.373 4.522-28.284-.533 9.445-18.433 22.578-34.472 41.101-45.347 20.127-11.826 46.615-17.554 81.613-13.601"/><path fill="#fff" d="M128.681 179.148a496 496 0 0 0-2.112 16.277c-.186.33-.371.668-.539.999a391 391 0 0 1 2.653-17.278zM386.421 238.65a28 28 0 0 0-.195-1.119 498 498 0 0 0 3.142-16.128 390 390 0 0 1-2.945 17.249z"/><path fill="#fff" d="M126.051 196.478a452 452 0 0 0-1.048 8.609 129 129 0 0 0-3.242 6.23c-3.143 6.479-5.627 13.18-7.193 20.001.95-10.187 4.153-20.148 8.76-29.662a121 121 0 0 1 2.744-5.311l-.021.135zM386.267 275.41c.616-6.377.465-12.888-.272-19.414a123 123 0 0 0-1.333-8.804 489 489 0 0 0 1.747-8.626 114 114 0 0 1 1.155 7.767c1.117 9.87.888 19.697-1.293 29.077zM127.616 186.819a444 444 0 0 0-1.048 8.609c-.171.302-.334.614-.497.917a403 403 0 0 1 2.742-18.039 400 400 0 0 0-1.197 8.513M386.407 238.568c-.048-.346-.115-.686-.18-1.037a476 476 0 0 0 3.255-16.759 408 408 0 0 1-3.077 17.796z"/><path fill="#FFD8BE" d="M377.023 296.816c-26.234 38.95-91.371 38.156-138.756 31.498-47.062-8.656-109.114-28.485-121.695-73.729-5.073-18.24-1.309-36.255 6.759-52.928 10.314-7.973 64.831-24.789 136.679-13.114 71.856 11.626 118.267 44.807 125.523 55.63.525.779 1.215 1.5 2.03 2.161 2.004 17.734-.325 35.312-10.538 50.482z"/><path fill="#FFB6B8" d="M380.021 274.969c-1.72 5.408-4.173 10.643-7.514 15.604-25.15 37.341-87.601 36.577-133.022 30.197-45.11-8.297-104.596-27.306-116.657-70.681-1.602-5.761-2.279-11.496-2.198-17.179 13.33 44.378 74.973 62.245 121.617 70.827 46.966 6.598 111.105 9.126 137.776-28.766z"/><path fill="#001F54" d="m237.744 331.528-.068-.011c-49.564-9.117-111.356-29.712-124.244-76.059-5.256-18.913-1.9-39.446 9.976-61.039 3.275-28.534 8.06-50.787 15.053-69.981 9.509-26.11 23.328-46.167 41.076-59.615 25.906-19.63 61.073-26.012 104.529-18.965s74.805 24.214 93.181 51.024c12.586 18.367 19.36 41.763 20.131 69.538.567 20.421-1.921 43.044-7.832 71.15 4.445 24.24 1.14 44.78-9.823 61.063-26.872 39.899-92.004 39.916-141.909 32.902l-.068-.011zm45.278-279.239c-41.628-6.75-75.123-.787-99.553 17.728-38.62 29.265-49.121 85.801-53.663 125.783-.049.428-.181.84-.39 1.216-11.269 20.252-14.536 39.328-9.708 56.7 11.981 43.08 71.352 62.596 119.08 71.385 48.057 6.744 110.553 6.99 135.534-30.101 10.068-14.954 12.998-34.087 8.706-56.862a3.3 3.3 0 0 1 .014-1.276c8.326-39.367 16.225-96.325-11.167-136.294-17.328-25.285-47.222-41.528-88.851-48.278z"/><path fill="#FFB6B8" d="M221.256 203.178c.764-1.731-1.334-4.334-4.687-5.815-3.353-1.48-6.69-1.276-7.455.455s1.334 4.334 4.687 5.815c3.353 1.48 6.69 1.276 7.455-.455"/><path fill="#001F54" d="M201.436 197.131c-1.248-7.335 5.886-12.925 13.014-11.769 3.462.482 6.46 2.196 8.793 4.333 2.329 2.161 4.138 4.79 5.07 7.767-4.652-3.104-9.234-6.422-14.541-7.267-5.386-.81-9.777 1.799-12.335 6.938z"/><path fill="#FFB6B8" d="M300.851 217.784c3.649-.345 6.462-2.152 6.284-4.036s-3.28-3.132-6.929-2.787-6.462 2.152-6.284 4.036 3.28 3.131 6.929 2.787"/><path fill="#001F54" d="M314.659 215.49c-.801-5.684-4.147-9.547-9.511-10.48-5.306-.875-10.694.825-16.092 2.299 1.823-2.53 4.372-4.452 7.265-5.766 2.888-1.291 6.272-1.968 9.711-1.333 7.124 1.156 12.131 8.721 8.629 15.278zM291.501 294.417c-6.774 7.886-22.408-1.616-46.834-5.577s-42.274.112-46.208-9.511c-4.49-10.969 9.011-48.523 18.412-55.867 1.522-1.174 4.262 9.637 6.591 9.901 2.391.286 10.569-7.423 11.186-7.323s7.588 11.903 9.331 11.868c1.756-.033 8.661-8.645 10.304-8.379 1.643.267 5.461 10.618 7.117 11.204 1.644.584 11.987-8.423 12.606-8.323s5.94 10.011 8.297 10.495c2.295.486 8.309-8.906 9.38-7.299 6.601 9.927 7.542 49.823-.184 58.811z"/><path fill="#001F54" d="M208.411 289.249c-6.512-1.056-11.171-3.225-13.34-8.532-5.18-12.652 8.893-51.817 19.547-60.141a4.07 4.07 0 0 1 3.49-.743c2.43.608 3.466 2.909 5.035 6.391.364.806.874 1.941 1.335 2.83 1.617-1.045 3.96-2.925 5.13-3.863 2.853-2.29 3.813-3.06 5.632-2.765s2.345 1.117 5.03 5.099c.988 1.465 2.729 4.05 4.024 5.722.726-.678 1.544-1.486 2.145-2.079 3.713-3.667 5.757-5.687 8.437-5.253s3.981 2.997 6.341 7.652c.381.752.9 1.772 1.373 2.645 1.755-1.179 4.224-3.082 5.622-4.162 3.807-2.933 4.598-3.544 6.385-3.254 1.788.29 2.49 1.332 4.473 4.41.813 1.262 2.439 3.788 3.643 5.292.715-.694 1.556-1.609 2.153-2.255 2.592-2.811 4.304-4.667 6.807-4.471a4.07 4.07 0 0 1 3.064 1.804c7.485 11.259 8.464 52.855-.455 63.232-5.932 6.905-15.318 4.318-28.303.742-6.375-1.756-13.599-3.746-21.894-5.091s-15.779-1.741-22.382-2.089c-4.986-.263-9.459-.499-13.29-1.121zm36.845-4.024c8.685 1.409 16.112 3.454 22.666 5.26 11.429 3.148 18.03 4.772 20.803 1.547 5.478-6.376 5.974-37.929 1.555-50.853l-.028.03c-2.949 3.198-5.5 5.971-8.705 5.28-2.563-.525-4.611-3.089-8.42-8.978-.149.117-.3.231-.444.342-7.229 5.572-9.79 7.299-12.506 6.333-2.097-.741-3.2-2.777-5.499-7.307a122 122 0 0 0-1.207-2.337c-.661.625-1.357 1.313-1.888 1.837-3.616 3.571-5.308 5.152-7.534 5.192-2.873.055-4.758-2.384-9.858-9.952l-.314-.466c-5.476 4.379-8.226 6.16-10.846 5.847-3.207-.365-4.78-3.796-6.571-7.768l-.016-.037c-8.266 10.859-17.775 40.971-14.591 48.748 1.611 3.938 8.391 4.484 20.235 5.109 6.788.358 14.483.765 23.168 2.173"/><path fill="#FC9595" d="M295.544 283.806c-.891 4.715-2.23 8.509-4.044 10.613-6.774 7.886-22.414-1.617-46.834-5.577s-42.273.112-46.208-9.511c-1.043-2.567-1.116-6.576-.485-11.333 12.701-10.16 31.79-15.047 51.981-11.773 20.19 3.274 36.747 13.94 45.586 27.581z"/><path fill="#001F54" d="M278.934 300.688c-3.831-.622-8.148-1.81-12.962-3.136-6.374-1.757-13.597-3.747-21.889-5.091s-15.781-1.741-22.386-2.089c-13.46-.713-23.182-1.225-26.626-9.652-1.257-3.097-1.496-7.413-.726-13.203l.194-1.459 1.149-.919c13.942-11.154 34.448-15.838 54.855-12.528s38.367 14.225 48.074 29.205l.798 1.231-.272 1.442c-1.073 5.675-2.711 9.82-4.868 12.324-3.731 4.344-8.835 4.93-15.343 3.874zm-77.5-30.733c-.492 4.793.036 7.049.423 7.999 1.606 3.929 8.385 4.475 20.226 5.1 6.791.358 14.486.765 23.173 2.174s16.11 3.453 22.662 5.259c11.432 3.149 18.034 4.773 20.807 1.548.672-.781 1.892-2.754 2.925-7.458-8.78-12.644-24.461-21.844-42.278-24.733-17.816-2.889-35.613.884-47.938 10.111"/><path fill="#FF1B40" d="M233.748 161.696c.224-4.946-50.707-41.03-53.189-40.626-2.48.402-23.728 37.109 8.446 56.517 26.473 15.967 44.519-10.945 44.743-15.891"/><path fill="#001F54" d="M200.602 185.455c-4.091-.664-8.541-2.224-13.279-5.081-15.189-9.162-21.697-23.819-18.324-41.274 1.544-7.995 6.734-20.548 11.037-21.246 1.358-.218 2.893-.466 21.844 12.962 11.658 8.261 22.227 16.406 28.274 21.791 5.869 5.225 6.935 7.277 6.846 9.235-.203 4.528-7.162 14.933-17.188 20.3-4.71 2.522-11.287 4.599-19.21 3.315zm-19.219-60.516c-2.403 3.633-7.758 14.567-6.573 26.356.99 9.84 6.331 17.746 15.877 23.502 8.653 5.219 17.05 5.943 24.963 2.155 8.73-4.179 13.831-12.339 14.717-14.952-4.046-5.746-39.843-32.062-48.984-37.061M209.138 103.212c1.408-5.366 14.426-10.745 21.299-3.159 5.172 5.709 5.515 17.604 9.055 26.873-5.897-4.462-16.895-15.364-30.352-23.714z"/><path fill="#FF1B40" d="M294.505 171.544c1.35-4.763 61.074-22.903 63.301-21.736 2.226 1.165 10.786 42.706-25.873 50.952-30.163 6.782-38.779-24.453-37.428-29.216"/><path fill="#001F54" d="M318.444 204.562c-7.921-1.285-13.505-5.332-17.178-9.213-7.816-8.261-11.131-20.332-9.895-24.692.536-1.886 2.196-3.496 9.42-6.6 7.438-3.197 20.04-7.585 33.708-11.737 22.23-6.752 23.604-6.031 24.818-5.394 3.861 2.023 4.818 15.572 3.757 23.646-2.317 17.626-13.123 29.475-30.428 33.367-5.397 1.214-10.112 1.288-14.204.624zm-20.828-31.659c.016 2.762 2.278 12.115 9.24 18.839 6.31 6.092 14.505 8.061 24.363 5.842 10.875-2.445 18.441-8.26 22.49-17.281 4.849-10.81 3.225-22.875 2.093-27.082-10.25 1.854-52.526 15.51-58.186 19.682M336.333 123.835c.361-5.537-10.291-14.754-19.209-9.728-6.711 3.782-10.795 14.958-17.083 22.634 7.005-2.37 20.884-9.238 36.29-12.907z"/><path fill="#5F5F82" d="M55.008 254.269c-6.349-17.015-10.69-55.841 17.547-60.138 10.261-1.075 15.101 3.681 14.4 11.887-.904 10.55-7.099 26.556 1.473 38.375 16.301 22.506 20.858 34.909 12.124 65.395 0 0 2.021 20.085-3.615 33.591-6.036 14.462-25.92 28.812-66.784 20.199-12.755-3.235-19.765-13.191-15.959-26.792-6.252-4.311-16.153-19.552-3.72-37.722-6.983-5.19-12.433-23.654 1.941-35.625 12.065-10.046 42.59-9.17 42.59-9.17z"/><path fill="#001F54" d="M63.471 302.094c-13.7 2.101-47.657-.319-52.935-13.346-2.82-6.959 25.802 8.47 59.667-.094 5.526-1.399 2.928 10.036-6.734 13.442zM63.508 332.656c-24.863 5.716-50.837-1.943-51.699-11.193-.497-5.343 28.34 7.676 58.9-2.704 3.11-1.057-.025 9.991-7.201 13.899zM66.206 356.253c-16.019 8.863-45.434.239-46.204-8.032-.444-4.776 25.333 6.861 52.65-2.418 2.781-.944-.435 7.123-6.446 10.45"/><path fill="#001F54" d="M103.22 299.097c-.006.014-.006.02-.006.032-.682 3.305-1.569 6.843-2.664 10.659 0 0 2.023 20.084-3.611 33.586-4.705 11.267-17.814 22.459-42.685 22.793 32.39-5.36 29.228-29.295 17.574-35.456 11.647-7.583 9.864-22.538 1.962-30.81 8.682-7.728 10.017-26.05-10.647-32.998 19.657 4.831 44.46-5.841 40.075 32.192z"/><path fill="#001F54" d="M100.132 330.714c1.337 25.358-20.836 37.447-43.424 38.434-1.41.055-4.653.086-6.02.102-1.278-.018-4.673-.266-5.991-.309-4.517-.389-9.35-1.152-13.816-2.01-15.244-2.94-24.06-15.676-19.203-30.849 0 0 1.037 2.864 1.031 2.856-9.54-7.127-12.945-20.218-9.364-31.285 1.103-3.661 2.977-6.937 4.973-10.067l.598 3.577c-10.018-8.458-10.548-25.041-2.717-34.989 4.072-5.464 10.157-8.902 16.622-10.73 10.521-3.067 21.348-3.851 32.26-3.79l-2.527 3.53c-6.901-18.494-10.107-49.453 9.741-60.994 6.4-3.413 14.07-4.891 21.004-1.824 8.05 3.974 7.534 12.773 5.997 20.158-1.876 10.3-4.648 21.822 2.06 30.736 11.028 15.316 19.69 31.652 14.668 51.065-.991 4.156-2.524 8.127-4.494 11.907.035-4.283.477-8.4.629-12.483 1.65-20.987-4.095-31.113-16.196-47.557-1.147-1.662-2.232-3.554-3.01-5.415-2.123-5.301-2.453-11.395-1.925-16.792.392-4.347 1.196-8.546 1.884-12.577.67-4.551 2.397-10.691-2.475-13.189-4.619-1.973-10.62-.708-14.984 1.634-16.408 9.395-13.08 38.17-7.995 53.501l1.267 3.578c-13.5-.215-37.21.252-46.85 10.595-3.18 3.46-5.36 7.901-5.748 12.624-.575 5.841 1.41 13.117 5.909 16.815l1.898 1.521-1.3 2.055c-3.581 5.344-5.962 11.59-5.395 18.037.524 6.756 4.172 13.441 9.89 17.12l-.415 1.793c-3.046 12.145 3.495 21.039 15.508 23.244 21.3 4.328 48.936 4.36 62.065-16.021 2.606-4.113 4.248-9.028 5.843-13.999z"/><path fill="#001F54" d="M30.573 360.959c13.126 2.952 34.776 4.109 44.24-7.049 5.764-6.996 4-17.427-3.955-21.916l-3.63-2.183 3.588-2.278c3.914-2.547 6.68-7.567 6.794-12.303.308-6.164-3.66-11.506-7.755-15.834l2.576-1.732c4.956-4.553 6.248-13.154 3.304-19.226-3.632-7.254-11.553-10.509-19.054-12.884 14.372-.528 28.51 8.302 26.107 24.275-.923 4.903-3.007 9.592-7.642 12.306l.587-3.984c8.146 8.671 9.995 21.28 1.648 30.561-1.091 1.214-2.322 2.317-3.793 3.253l-.043-4.461c6.608 3.753 10.887 11.663 9.763 19.31-3.84 23.602-35.936 23.389-54.043 19.208-3.38-.927-2.113-5.894 1.308-5.065z"/><path fill="#001F54" d="M33.932 300.743c9.47.862 36.035 2.67 41.302-6.298 1.52-3.103 6.136-.988 4.767 2.195-6.898 11.705-34.805 6.369-46.07 4.105zM33.932 333.631c12.357.948 30.914.778 39.89-8.775a2.62 2.62 0 1 1 3.701 3.698c-3.144 2.77-6.846 4.473-10.543 5.481-10.878 2.835-22.21 1.783-33.048-.404"/><path fill="#C0603E" d="M95.745 461.586c-2.675 54.429-69.555 64.926-69.555 64.926l.017-.78.004-.249.369-15.799a56.5 56.5 0 0 0-5.838-26.362l-3.772-7.629c-8.483-17.155-3.348-29.105-.622-35.239 1.128-2.533 2.718-4.835 4.54-6.922l7.634-8.762h51.055c5.186 5.187 16.983 20.193 16.168 36.816"/><path fill="#6B9FC6" d="m79.581 424.339-17.497.146-19.045.159-14.518.124.022-.42 1.209-25.114 13.87-287.674c.382-7.149 5.419-12.992 12.08-14.655.042-.013.09-.021.137-.034a15.6 15.6 0 0 1 2.477-.39q.008.001.022-.004a17 17 0 0 1 2.327-.013 17.13 17.13 0 0 1 11.008 4.942 17.1 17.1 0 0 1 5.08 12.04l2.6 285.788.078 8.401z"/><path fill="#fff" d="m79.608 399.235-.176 8.401-.339 15.916-17.321.274-18.732.296-14.496.227-.228.004 1.025-25.118z"/><g opacity=".271"><path fill="#4C7FB6" d="M60.664 96.465a17.13 17.13 0 0 1 11.008 4.942 17.1 17.1 0 0 1 5.079 12.04l2.602 285.788h.253l-.176 8.401.15 16.704-17.497.146c-.107-.219-.21-.442-.313-.66-.519-.635-.386-9.76.111-24.591 2.435-72.856 13.588-283.452-1.217-302.77"/><path fill="#905044" d="M95.745 461.586c-2.675 54.429-69.556 64.926-69.556 64.926l.018-.78c11.839-10.802 25.16-23.417 31.659-37.575 12.954-28.23 11.8-47.111 4.346-63.387h17.365c5.186 5.187 16.982 20.193 16.168 36.816"/></g><path fill="#fff" d="M60.987 97.84c-.013.017-.022.038-.034.055-.536.93-.425.626-.206.163-1.153.339-4.972-4.432-6.704 31.389-4.26 87.906-9.649 196.562-10.785 269.787a1679 1679 0 0 0-.218 24.887v.647c-10.365 8.067-17.446 20.447-16.85 33.567.596 13.117 5.126 25.14 5.25 38.274.095 9.781-.368 20.956-5.229 28.873l.369-15.8a56.5 56.5 0 0 0-5.838-26.361l-3.772-7.63c-8.483-17.154-3.348-29.105-.622-35.239 1.128-2.533 2.718-4.835 4.54-6.922l7.634-8.762.021-.42-.227.005 1.024-25.119h.412l13.87-287.674c.382-7.15 5.419-12.992 12.08-14.655q.066-.018.137-.034a15.6 15.6 0 0 1 2.477-.39q.008.001.022-.005a17 17 0 0 1 2.328-.013q.451.029.895.082c.026.63-.055 1.397-.574 1.294" opacity=".29"/><path fill="#001F54" fill-rule="evenodd" d="M47.624 111.704v.007L32.666 421.91l45.229-.38-2.8-308.058c-.07-7.868-6.471-14.21-14.338-14.21-6.988 0-12.757 5.466-13.134 12.442m-5.657-.296c.535-9.985 8.79-17.811 18.79-17.811 10.977 0 19.904 8.848 20.004 19.823l2.85 313.727-56.89.478 15.245-316.209z" clip-rule="evenodd"/><path fill="#001F54" fill-rule="evenodd" d="M79.466 402.067h-49.83v-5.665h49.83zM28.405 421.942h53.521l.83.829c2.76 2.759 7.18 8.025 10.822 14.777 3.638 6.742 6.609 15.172 6.168 24.176-1.404 28.581-19.73 45.535-37.24 55.214-8.761 4.844-17.413 7.928-23.862 9.803-3.229.938-5.918 1.577-7.81 1.982a77 77 0 0 1-2.806.549l-.161.027-.045.007-.014.002-.004.001c-.002 0-.003.001-.442-2.797l.439 2.798-3.35.525.47-20.218a53.7 53.7 0 0 0-5.546-25.04l-3.772-7.629c-4.477-9.048-5.411-16.853-4.796-23.278.61-6.383 2.744-11.259 4.125-14.367v-.001c1.27-2.852 3.035-5.389 4.994-7.633zm1.87 101.106c1.73-.384 4.052-.952 6.788-1.747 6.175-1.795 14.41-4.736 22.703-9.32 16.6-9.177 33.052-24.687 34.322-50.535.373-7.613-2.144-14.996-5.495-21.209-3-5.56-6.581-10.019-9.039-12.631H30.982l-6.788 7.787c-1.685 1.931-3.1 3.996-4.086 6.211v.001c-1.345 3.026-3.144 7.192-3.663 12.605-.514 5.372.225 12.12 4.235 20.226l3.773 7.631a59.33 59.33 0 0 1 6.13 27.683z" clip-rule="evenodd"/><path fill="#001F54" d="M26.05 523.302c1.771-1.68 3.516-3.395 5.037-5.251 1.522-1.856 2.88-3.815 3.927-5.919a22.6 22.6 0 0 0 2.126-6.704c.368-2.353.386-4.801.227-7.27a52 52 0 0 0-.36-3.695 111 111 0 0 0-.617-3.716c-.45-2.499-.853-5.054-.995-7.626a35.4 35.4 0 0 1 .39-7.681c.407-2.525 1.093-4.985 1.955-7.368-.656 2.452-1.123 4.942-1.316 7.445a34.3 34.3 0 0 0 .253 7.48c.347 2.473.938 4.891 1.599 7.338.325 1.222.655 2.456.947 3.721.287 1.282.506 2.55.703 3.828.386 2.559.6 5.208.411 7.891a26.2 26.2 0 0 1-1.791 7.908c-1 2.534-2.354 4.883-3.867 7.082-1.517 2.198-3.232 4.2-4.98 6.163zM56.281 425.865c-1.028 1.908-1.53 4.351-1.671 6.906-.133 2.567.034 5.237.3 7.925.544 5.38 1.496 10.828 2.13 16.34.322 2.756.574 5.534.66 8.328.086 2.791-.013 5.603-.433 8.38-.42 2.769-1.187 5.513-2.465 8.003a19.55 19.55 0 0 1-5.216 6.412c2.01-1.886 3.605-4.175 4.633-6.682 1.042-2.508 1.57-5.187 1.77-7.879.387-5.4-.454-10.814-1.49-16.164-1.047-5.362-2.41-10.681-3.413-16.202-.489-2.761-.9-5.577-.977-8.517.013-.742-.013-1.479.034-2.233.065-.759.082-1.509.227-2.281l.189-1.153.3-1.161.154-.583.219-.579.45-1.157z"/><path fill="#5F5F82" d="M74.178 272.511s12.884 13.957 0 27.914c0 0 12.493 13.762 0 28.989 16.788 20.008-3.97 42.8-44.835 34.187-12.755-3.235-19.765-13.191-15.959-26.791-6.252-4.312-16.153-19.552-3.72-37.722-6.983-5.19-8.325-22.805 6.05-34.776 26.068-9.691 58.464 8.199 58.464 8.199"/><path fill="#001F54" d="M62.663 302.118c-13.7 2.101-47.658-.319-52.936-13.346-2.819-6.959 25.803 8.469 59.667-.095 5.526-1.398 2.928 10.036-6.733 13.443zM62.7 332.683c-24.863 5.716-50.838-1.943-51.7-11.192-.497-5.344 28.34 7.675 58.9-2.705 3.11-1.056-.025 9.991-7.2 13.899zM65.397 356.28c-16.018 8.863-45.434.24-46.204-8.031-.444-4.777 25.334 6.86 52.651-2.418 2.78-.944-.436 7.122-6.447 10.449"/><path fill="#001F54" d="m74.472 357.915-16.495 9.041s-1.529.698-12.298 1.11c-4.517-.389-10.371-.314-14.836-1.171-15.245-2.94-24.83-15.616-19.974-30.788 0 0 1.038 2.864 1.032 2.856-9.54-7.127-12.945-20.218-9.365-31.286 1.104-3.66 2.977-6.936 4.973-10.066l.598 3.577C-1.91 292.73-2.44 276.147 5.39 266.199c4.072-5.465 13.057-13.989 30.626-15.453l-.293 4.588s-15.017 1.875-24.657 12.218c-3.18 3.46-5.36 7.901-5.747 12.624-.576 5.841 1.41 13.117 5.908 16.815l1.898 1.521-1.3 2.055c-3.58 5.344-5.962 11.59-5.395 18.037.524 6.756 4.173 13.441 9.89 17.12l-.415 1.793c-3.046 12.145 3.495 21.039 15.509 23.243 21.3 4.329 35.25 2.231 43.058-2.845"/><path fill="#001F54" d="M30.35 360.988c13.126 2.952 34.776 4.109 44.241-7.049 5.763-6.996 3.999-17.427-3.955-21.917l-3.63-2.182 3.587-2.279c3.914-2.547 6.68-7.567 6.795-12.302.307-6.165-3.66-11.506-7.755-15.834l2.575-1.732c4.957-4.554 6.249-13.154 3.305-19.227-5.532-10.943-32.582-14.509-40.083-16.884 37.87.391 49.54 12.302 47.136 28.275-.924 4.904-3.008 9.592-7.643 12.307l.587-3.984c8.147 8.67 9.995 21.28 1.649 30.56-1.092 1.214-2.322 2.318-3.794 3.253l-.043-4.461c6.609 3.753 10.888 11.664 9.764 19.311-3.841 23.601-35.937 23.388-54.044 19.208-3.38-.928-2.112-5.895 1.309-5.065z"/><path fill="#001F54" d="M33.709 300.766c9.47.862 36.035 2.67 41.303-6.297 1.519-3.104 6.135-.989 4.766 2.195-6.898 11.704-34.805 6.369-46.069 4.105zM33.709 333.655c12.358.948 30.915.778 39.89-8.775a2.62 2.62 0 0 1 3.71-.229c1.175 1.028 1.169 2.901-.008 3.927-3.145 2.77-6.847 4.473-10.544 5.48-10.878 2.836-22.21 1.783-33.048-.403"/></svg>