<svg xmlns="http://www.w3.org/2000/svg" width="202" height="102" fill="none" viewBox="0 0 130 26"><path fill="#000" d="M44.518 14.147h4.842c.681 0 1.233.558 1.233 1.239 0 .68-.552 1.238-1.233 1.238h-5.84a.37.37 0 0 0-.247.094l-1.76 1.52c-.27.235-.106.675.246.675h7.308s.006 0 .006-.006.005-.006.005-.006c.094.006.182.012.282.012a3.52 3.52 0 0 0 3.51-3.527 3.52 3.52 0 0 0-3.222-3.516s-.006 0-.006-.006q.002-.008-.006-.006h-5.212c-.68 0-1.233-.557-1.233-1.238 0-.687.552-1.239 1.233-1.239h5.828a.39.39 0 0 0 .258-.1l1.638-1.52a.386.386 0 0 0-.258-.669h-7.46a3.52 3.52 0 0 0-3.51 3.528 3.52 3.52 0 0 0 3.51 3.527zM72.709 7.086a.38.38 0 0 0-.382.388v11.058c0 .211.17.387.382.387h8.862a.4.4 0 0 0 .282-.123l1.109-1.192a.383.383 0 0 0-.281-.645h-7.736a.383.383 0 0 1-.382-.388V7.474a.386.386 0 0 0-.381-.388z"/><path fill="#000" fill-rule="evenodd" d="M58.516 7.086c-.006.006 0 .006 0 0a2.203 2.203 0 0 0-2.095 2.096v7.53c0 1.18.927 2.143 2.095 2.19h8.041a2.2 2.2 0 0 0 2.096-2.19V9.188a2.19 2.19 0 0 0-2.09-2.096h-8.047zm1.497 2.102c-.71.029-1.28.604-1.309 1.32v4.737c0 .74.581 1.35 1.309 1.38h5.042a1.376 1.376 0 0 0 1.309-1.38v-4.737a1.38 1.38 0 0 0-1.309-1.32zM95.846 18.532c0 .211.17.387.381.387h1.503c.211 0 .381-.17.381-.387V9.287c0-1.18-.921-2.142-2.072-2.189h-7.812c-1.197 0-2.165.98-2.165 2.195v9.244c0 .212.17.388.381.388h1.503c.211 0 .381-.17.381-.387v-3.81c0-.21.17-.387.382-.387h6.773c.211 0 .381.17.381.387v3.804zm-7.536-6.298v-1.902c0-.74.592-1.338 1.32-1.338h4.895a1.33 1.33 0 0 1 1.321 1.338v1.902c0 .211-.17.387-.382.387h-6.773a.38.38 0 0 1-.381-.387M127.569 18.92a.38.38 0 0 1-.381-.388v-3.81a.386.386 0 0 0-.382-.387h-6.849a.38.38 0 0 0-.382.387v3.81c0 .211-.17.387-.381.387h-1.515a.38.38 0 0 1-.381-.387V9.287c0-1.209.98-2.195 2.189-2.195h7.9a2.2 2.2 0 0 1 2.096 2.19v9.244a.386.386 0 0 1-.382.387h-1.532zm-8-8.588v1.902c0 .211.171.387.382.387h6.849c.212 0 .382-.17.382-.387v-1.902c0-.74-.599-1.338-1.332-1.338h-4.948c-.734 0-1.333.599-1.333 1.338" clip-rule="evenodd"/><path fill="#000" d="M103.763 7.086c.112 0 .218.047.288.135l6.738 8.036c.229.27.669.105.669-.253v-7.53c0-.211.17-.388.382-.388h1.502c.212 0 .382.17.382.388v11.058c0 .211-.17.387-.382.387h-1.866q-.01-.002-.012-.012c0-.006 0-.006-.006-.011l-6.855-7.977c-.229-.27-.669-.1-.669.253v7.366a.386.386 0 0 1-.382.387h-1.514a.38.38 0 0 1-.382-.387V7.474c0-.211.17-.388.382-.388z"/><path fill="url(#a)" d="M41.973 57.324a1 1 0 0 1 .705-.293h24.446c.446 0 .669.54.352.85l-4.83 4.825a1 1 0 0 1-.705.294h-24.44a.498.498 0 0 1-.352-.851z" transform="translate(-36 -38)"/><path fill="url(#b)" d="M41.973 39.294a1 1 0 0 1 .705-.294h24.446c.446 0 .669.54.352.851l-4.83 4.825a1 1 0 0 1-.705.293h-24.44a.498.498 0 0 1-.352-.85z" transform="translate(-36 -38)"/><path fill="url(#c)" d="M62.646 48.25a1 1 0 0 0-.705-.294h-24.44c-.446 0-.67.54-.352.852l4.83 4.824c.188.188.44.294.705.294H67.13c.446 0 .669-.54.352-.851z" transform="translate(-36 -38)"/><defs><linearGradient id="a" x1="64.79" x2="47.873" y1="36.117" y2="68.52" gradientUnits="userSpaceOnUse"><stop stop-color="#00FFA3"/><stop offset="1" stop-color="#DC1FFF"/></linearGradient><linearGradient id="b" x1="57.393" x2="40.475" y1="32.255" y2="64.658" gradientUnits="userSpaceOnUse"><stop stop-color="#00FFA3"/><stop offset="1" stop-color="#DC1FFF"/></linearGradient><linearGradient id="c" x1="61.068" x2="44.151" y1="34.174" y2="66.577" gradientUnits="userSpaceOnUse"><stop stop-color="#00FFA3"/><stop offset="1" stop-color="#DC1FFF"/></linearGradient></defs></svg>