<svg xmlns="http://www.w3.org/2000/svg" width="23" height="24" fill="none"><path fill="#49ADF4" d="M20.305 10.09a3.3 3.3 0 0 1-.828-.682c.023-.377.113-.748.265-1.094.279-.787.594-1.678.088-2.37-.506-.694-1.461-.671-2.3-.652a3.3 3.3 0 0 1-1.107-.075 3.2 3.2 0 0 1-.407-1.019c-.238-.81-.509-1.725-1.342-1.999-.803-.259-1.546.31-2.204.81-.284.26-.612.465-.97.606a3.2 3.2 0 0 1-.98-.605c-.656-.497-1.396-1.072-2.203-.81-.831.27-1.102 1.188-1.342 1.998-.077.36-.213.703-.403 1.017a3.3 3.3 0 0 1-1.11.077c-.84-.023-1.788-.048-2.3.651-.51.7-.19 1.584.089 2.37.154.346.245.716.27 1.094a3.3 3.3 0 0 1-.828.683c-.701.48-1.498 1.024-1.498 1.91s.797 1.429 1.498 1.91c.311.18.59.411.827.682-.022.378-.11.748-.261 1.095-.278.786-.593 1.677-.088 2.37s1.458.67 2.3.651c.371-.038.746-.012 1.108.075.192.314.33.659.407 1.019.237.81.508 1.725 1.341 1.999q.202.065.413.065a3.24 3.24 0 0 0 1.79-.876 3.2 3.2 0 0 1 .97-.605c.361.14.694.345.98.605.657.501 1.4 1.074 2.205.81.83-.27 1.102-1.188 1.341-1.997.077-.36.215-.704.407-1.018a3.3 3.3 0 0 1 1.105-.077c.841.02 1.789.048 2.3-.651s.191-1.584-.088-2.371a3.2 3.2 0 0 1-.27-1.092c.237-.271.517-.502.828-.683.702-.48 1.498-1.025 1.498-1.911s-.8-1.43-1.501-1.91"/><path fill="#fff" d="M10.542 14.635a.71.71 0 0 1-.508-.21l-1.916-1.917a.718.718 0 0 1 1.016-1.016l1.475 1.476 3.335-2.501a.718.718 0 1 1 .863 1.15l-3.834 2.875a.72.72 0 0 1-.43.143"/></svg>